<svg width="62" height="62" viewBox="0 0 62 62" fill="none" xmlns="http://www.w3.org/2000/svg">
<path d="M31 18.5818C24.1279 18.5818 18.5818 24.1279 18.5818 31C18.5818 37.8721 24.1279 43.4182 31 43.4182C37.8721 43.4182 43.4181 37.8721 43.4181 31C43.4181 24.1279 37.8721 18.5818 31 18.5818ZM31 39.0709C26.5558 39.0709 22.9291 35.4441 22.9291 31C22.9291 26.5559 26.5558 22.9291 31 22.9291C35.4441 22.9291 39.0709 26.5559 39.0709 31C39.0709 35.4441 35.4441 39.0709 31 39.0709ZM43.9267 15.1791C42.3223 15.1791 41.0265 16.4748 41.0265 18.0793C41.0265 19.6838 42.3223 20.9795 43.9267 20.9795C45.5312 20.9795 46.8269 19.6898 46.8269 18.0793C46.8274 17.6983 46.7527 17.321 46.6071 16.9689C46.4616 16.6168 46.248 16.2969 45.9786 16.0275C45.7091 15.7581 45.3892 15.5445 45.0372 15.3989C44.6851 15.2533 44.3077 15.1786 43.9267 15.1791ZM55.2066 31C55.2066 27.6578 55.2369 24.3459 55.0492 21.0098C54.8615 17.1348 53.9775 13.6957 51.1439 10.8621C48.3043 8.02245 44.8713 7.14453 40.9963 6.95683C37.6541 6.76913 34.3422 6.79941 31.006 6.79941C27.6638 6.79941 24.3519 6.76913 21.0158 6.95683C17.1408 7.14453 13.7017 8.02851 10.8681 10.8621C8.0285 13.7018 7.15057 17.1348 6.96287 21.0098C6.77518 24.3519 6.80545 27.6639 6.80545 31C6.80545 34.3361 6.77518 37.6541 6.96287 40.9902C7.15057 44.8652 8.03455 48.3043 10.8681 51.1379C13.7078 53.9775 17.1408 54.8555 21.0158 55.0432C24.358 55.2309 27.6699 55.2006 31.006 55.2006C34.3482 55.2006 37.6601 55.2309 40.9963 55.0432C44.8713 54.8555 48.3103 53.9715 51.1439 51.1379C53.9836 48.2982 54.8615 44.8652 55.0492 40.9902C55.243 37.6541 55.2066 34.3422 55.2066 31ZM49.8785 45.2769C49.4365 46.3789 48.9037 47.2023 48.05 48.05C47.1963 48.9037 46.3789 49.4365 45.2769 49.8785C42.0922 51.1439 34.5299 50.8594 31 50.8594C27.4701 50.8594 19.9017 51.1439 16.717 49.8846C15.615 49.4426 14.7916 48.9098 13.9439 48.056C13.0902 47.2023 12.5574 46.385 12.1154 45.283C10.856 42.0922 11.1406 34.5299 11.1406 31C11.1406 27.4701 10.856 19.9018 12.1154 16.717C12.5574 15.615 13.0902 14.7916 13.9439 13.9439C14.7976 13.0963 15.615 12.5574 16.717 12.1154C19.9017 10.856 27.4701 11.1406 31 11.1406C34.5299 11.1406 42.0982 10.856 45.283 12.1154C46.3849 12.5574 47.2084 13.0902 48.056 13.9439C48.9097 14.7977 49.4426 15.615 49.8846 16.717C51.1439 19.9018 50.8594 27.4701 50.8594 31C50.8594 34.5299 51.1439 42.0922 49.8785 45.2769Z" fill="white"/>
</svg>
