<svg xmlns="http://www.w3.org/2000/svg" viewBox="0 0 1790 1080"><defs><style>.cls-1{fill:#efdb09;}.cls-2{fill:#a12f7a;}.cls-3{fill:#f2680a;}.cls-4{fill:#add135;}.cls-5{fill:#ee495e;}.cls-6{fill:#4fc5d2;}</style></defs><g id="OBJECTS"><path class="cls-1" d="M1120.32,828.9c23.67-57.26-10.59-71.45,58.4-34.62,4.33,3.67,51.51,26.73,40,31a429.57,429.57,0,0,1-96.11,6.34C1121.07,831.53,1119.86,830.14,1120.32,828.9Z"/><path class="cls-2" d="M1079.58,901.27c11.16-14.6,22.4-30.21,30-47,5.29-4.16,31,29.17,36.7,34.38,2.52,4.61,38.67,42.78,26.83,42.84a448.51,448.51,0,0,1-92.39-26.95C1079.3,903.94,1078.68,902.25,1079.58,901.27Z"/><path class="cls-3" d="M1016.14,955c57-30.28,37.12-61.15,67.08,11.06,1.11,5.67,21.92,53.25,10.61,49.34a435.57,435.57,0,0,1-77.66-56.8C1015.05,957.59,1015,955.72,1016.14,955Z"/><path class="cls-4" d="M938.45,984.09a241,241,0,0,0,53.19-16.34c6.77-.06,5,42.34,6,49.61-1.06,5.21,2.41,58.22-6.88,50.27a471.11,471.11,0,0,1-41.94-59.16C947.15,1003.5,933.52,987,938.45,984.09Z"/><path class="cls-5" d="M855.29,984.64A227.22,227.22,0,0,0,911,987.39c1.28-.06,2.35,1.5,2,3-2.32,9.64-26.81,99.8-37,90.46a435.72,435.72,0,0,1-23-93.42C852.82,985.9,854,984.45,855.29,984.64Z"/><path class="cls-6" d="M777.09,957c53.7,31.75,64.5,8.61,38.57,44.83-4.14,4.81-50.21,66.52-52.23,52.78a472.44,472.44,0,0,1,5.93-72.33C771.26,977.51,771.45,956.06,777.09,957Z"/><path class="cls-1" d="M713,904.06a304.83,304.83,0,0,0,29.75,29.52L754,941.92c1,.76.84,2.64-.38,3.57a436.54,436.54,0,0,1-82.94,48.83c-9.78,1.45,4.61-21.38,5.17-25.88a467.44,467.44,0,0,1,33.61-63.7C710.25,903.46,712.09,903.08,713,904.06Z"/><path class="cls-2" d="M671,832.45c18.58,59.07,54.08,47.95-22.51,64.07-5.71,0-56.6,12.6-50.55,2a430.26,430.26,0,0,1,69.55-66.63C668.71,830.91,670.53,831.2,671,832.45Z"/><path class="cls-3" d="M655.76,750.8c.69,18.64,2.27,37.32,7.1,55.3-.79,6.56-43-2.38-50.19-2.75-5.09-2-56.75-7.74-48.08-15.58a456.57,456.57,0,0,1,88-38.75C654,748.57,655.68,749.47,655.76,750.8Z"/><path class="cls-4" d="M669.68,668.91c-23.67,57.25,10.59,71.44-58.4,34.61-4.33-3.66-51.51-26.73-40-31a429.57,429.57,0,0,1,96.11-6.33C668.93,666.27,670.14,667.66,669.68,668.91Z"/><path class="cls-5" d="M710.42,596.53c-11.16,14.6-22.4,30.22-30,47-5.29,4.16-31-29.17-36.7-34.38-2.52-4.6-38.67-42.78-26.83-42.84a448.53,448.53,0,0,1,92.39,27C710.7,593.86,711.32,595.55,710.42,596.53Z"/><path class="cls-6" d="M773.86,542.77c-57,30.29-37.12,61.15-67.08-11-1.11-5.68-21.92-53.25-10.61-49.35a435.21,435.21,0,0,1,77.66,56.8C775,540.22,775,542.08,773.86,542.77Z"/><path class="cls-1" d="M851.55,513.72a240,240,0,0,0-53.19,16.34c-6.77.05-5-42.35-6-49.62,1.06-5.21-2.41-58.22,6.88-50.26a469.66,469.66,0,0,1,41.94,59.16C842.85,494.31,856.48,510.79,851.55,513.72Z"/><path class="cls-2" d="M934.71,513.16A227.22,227.22,0,0,0,879,510.41c-1.28.06-2.35-1.5-2-3,2.32-9.63,26.81-99.8,37-90.46a435.72,435.72,0,0,1,23,93.42C937.18,511.9,936,513.36,934.71,513.16Z"/><path class="cls-3" d="M1012.91,540.79c-53.7-31.74-64.5-8.61-38.57-44.82,4.14-4.81,50.21-66.53,52.23-52.79a472.57,472.57,0,0,1-5.93,72.34C1018.74,520.3,1018.55,541.74,1012.91,540.79Z"/><path class="cls-4" d="M1077,593.74a304.83,304.83,0,0,0-29.75-29.52L1036,555.89c-1-.77-.84-2.65.38-3.58a436.54,436.54,0,0,1,82.94-48.83c9.78-1.45-4.61,21.38-5.17,25.88a468.15,468.15,0,0,1-33.61,63.71C1079.75,594.34,1077.91,594.72,1077,593.74Z"/><path class="cls-5" d="M1119,665.36c-18.58-59.08-54.08-48,22.51-64.08,5.71,0,56.59-12.6,50.55-1.95A430.76,430.76,0,0,1,1122.53,666C1121.29,666.89,1119.47,666.6,1119,665.36Z"/><path class="cls-6" d="M1134.24,747c-.69-18.65-2.27-37.32-7.1-55.31.78-6.55,43,2.38,50.19,2.75,5.09,2,56.75,7.74,48.08,15.59a457.14,457.14,0,0,1-88,38.74C1136,749.23,1134.32,748.34,1134.24,747Z"/></g></svg>