<svg width="41" height="40" viewBox="0 0 41 40" fill="none" xmlns="http://www.w3.org/2000/svg">
<path d="M5.5 17.4455C5.5 15.9025 6.21236 14.446 7.4303 13.4987L17.4303 5.72092C19.2359 4.3166 21.7642 4.3166 23.5697 5.72092L33.5697 13.4987C34.7876 14.446 35.5 15.9025 35.5 17.4455V33.3334C35.5 34.2174 35.1488 35.0653 34.5237 35.6904C33.8986 36.3155 33.0507 36.6667 32.1667 36.6667H8.83333C7.94928 36.6667 7.10143 36.3155 6.47631 35.6904C5.85119 35.0653 5.5 34.2174 5.5 33.3334V17.4455Z" fill="#454545"/>
<path d="M15.5 37V26C15.5 24.8954 16.3954 24 17.5 24H23.5C24.6046 24 25.5 24.8954 25.5 26V37" fill="white"/>
<rect x="26.5" y="2" width="6" height="18" rx="2" fill="#454545"/>
</svg>
