<svg width="31" height="32" viewBox="0 0 31 32" fill="none" xmlns="http://www.w3.org/2000/svg">
<path d="M0.5 9.32984H7.1383V31.032H0.5V9.32984ZM25.9681 10.6703C27.2872 11.3937 28.3723 12.4894 29.2234 13.9575C30.0745 15.4256 30.5 16.9256 30.5 18.4575V31.032H23.7979V18.4575C23.7979 18.1171 23.6702 17.7341 23.4149 17.3086C23.1596 16.883 22.9255 16.6064 22.7128 16.4788C22.3723 16.266 21.9043 16.1596 21.3085 16.1596C20.7128 16.1596 20.2447 16.2447 19.9043 16.4149L17.1596 17.7554V31.032H10.4574V9.32984H17.1596V10.3511C18.4787 9.75537 19.9681 9.47878 21.6277 9.52133C23.2872 9.56388 24.734 9.94686 25.9681 10.6703ZM3.81915 0.96814C4.75532 0.96814 5.54255 1.28729 6.18085 1.92559C6.81915 2.56388 7.1383 3.35112 7.1383 4.28729C7.1383 5.22346 6.81915 6.02133 6.18085 6.68091C5.54255 7.34048 4.75532 7.67027 3.81915 7.67027C2.88298 7.67027 2.09574 7.34048 1.45745 6.68091C0.819149 6.02133 0.5 5.22346 0.5 4.28729C0.5 3.35112 0.819149 2.56388 1.45745 1.92559C2.09574 1.28729 2.88298 0.96814 3.81915 0.96814Z" fill="#454545"/>
</svg>
