<svg width="31" height="32" viewBox="0 0 31 32" fill="none" xmlns="http://www.w3.org/2000/svg">
<path d="M27.0263 13.7264H24.4368C24.6474 14.4843 24.7526 15.2422 24.7526 16.0001C24.7526 17.2632 24.5105 18.4632 24.0263 19.6001C23.5421 20.7369 22.8789 21.7264 22.0368 22.5685C21.1947 23.4106 20.2053 24.0738 19.0684 24.558C17.9316 25.0422 16.7316 25.2843 15.4684 25.2843C14.2053 25.2843 13.0158 25.0422 11.9 24.558C10.7842 24.0738 9.80526 23.4106 8.96316 22.5685C8.12105 21.7264 7.45789 20.7369 6.97368 19.6001C6.48947 18.4632 6.24737 17.2632 6.24737 16.0001C6.24737 15.2422 6.35263 14.4843 6.56316 13.7264H3.91053V26.4211C3.91053 26.758 4.02632 27.0317 4.25789 27.2422C4.48947 27.4527 4.77368 27.558 5.11053 27.558H25.8895C26.2263 27.558 26.5 27.4527 26.7105 27.2422C26.9211 27.0317 27.0263 26.758 27.0263 26.4211V13.7264ZM27.0263 5.64219C27.0263 5.30535 26.9211 5.02114 26.7105 4.78956C26.5 4.55798 26.2263 4.44219 25.8895 4.44219H22.4158C22.0789 4.44219 21.8053 4.55798 21.5947 4.78956C21.3842 5.02114 21.2789 5.30535 21.2789 5.64219V9.05272C21.2789 9.38956 21.3842 9.67377 21.5947 9.90535C21.8053 10.1369 22.0789 10.2527 22.4158 10.2527H25.8895C26.2263 10.2527 26.5 10.1369 26.7105 9.90535C26.9211 9.67377 27.0263 9.38956 27.0263 9.05272V5.64219ZM15.4684 10.2527C13.8684 10.2527 12.5105 10.8106 11.3947 11.9264C10.2789 13.0422 9.72105 14.4001 9.72105 16.0001C9.72105 16.8001 9.86842 17.558 10.1632 18.2738C10.4579 18.9896 10.8684 19.6106 11.3947 20.1369C11.9211 20.6632 12.5316 21.0738 13.2263 21.3685C13.9211 21.6632 14.6684 21.8106 15.4684 21.8106C16.2684 21.8106 17.0263 21.6632 17.7421 21.3685C18.4579 21.0738 19.0789 20.6632 19.6053 20.1369C20.1316 19.6106 20.5421 18.9896 20.8368 18.2738C21.1316 17.558 21.2789 16.8001 21.2789 16.0001C21.2789 15.2001 21.1316 14.4527 20.8368 13.758C20.5421 13.0632 20.1316 12.4527 19.6053 11.9264C19.0789 11.4001 18.4579 10.9896 17.7421 10.6948C17.0263 10.4001 16.2684 10.2527 15.4684 10.2527ZM3.91053 31.0317C2.94211 31.0317 2.13158 30.6948 1.47895 30.0211C0.826316 29.3475 0.5 28.5264 0.5 27.558V4.44219C0.5 3.47377 0.826316 2.65272 1.47895 1.97903C2.13158 1.30535 2.94211 0.968506 3.91053 0.968506H27.0263C27.9947 0.968506 28.8158 1.30535 29.4895 1.97903C30.1632 2.65272 30.5 3.47377 30.5 4.44219V27.558C30.5 28.5264 30.1632 29.3475 29.4895 30.0211C28.8158 30.6948 27.9947 31.0317 27.0263 31.0317H3.91053Z" fill="#454545"/>
</svg>
