<svg width="31" height="26" viewBox="0 0 31 26" fill="none" xmlns="http://www.w3.org/2000/svg">
<path d="M21.2972 13.6239C21.7825 13.6239 22.2071 13.8319 22.5711 14.2479C22.935 14.6638 23.1863 15.1144 23.325 15.5997C23.5676 16.3276 23.6456 17.0728 23.5589 17.8354C23.4723 18.5979 23.1516 19.2912 22.5971 19.9151C22.2158 20.3311 21.7825 20.539 21.2972 20.539C20.7773 20.539 20.3354 20.3311 19.9714 19.9151C19.6075 19.4992 19.3388 19.0486 19.1655 18.5633C18.9922 17.8354 18.9489 17.0902 19.0355 16.3276C19.1222 15.565 19.4255 14.8718 19.9454 14.2479C20.3614 13.8319 20.812 13.6239 21.2972 13.6239ZM9.75477 13.6239C10.24 13.6239 10.6646 13.8319 11.0286 14.2479C11.3925 14.6638 11.6612 15.1144 11.8345 15.5997C12.0425 16.3276 12.1031 17.0728 12.0165 17.8354C11.9298 18.5979 11.6092 19.2912 11.0546 19.9151C10.6733 20.3311 10.24 20.539 9.75477 20.539C9.23484 20.539 8.79289 20.3311 8.42894 19.9151C8.06499 19.4992 7.79636 19.0486 7.62305 18.5633C7.44974 17.8354 7.40641 17.0902 7.49307 16.3276C7.57972 15.565 7.88302 14.8718 8.40295 14.2479C8.81889 13.8319 9.2695 13.6239 9.75477 13.6239ZM28.0563 7.28079C29.6854 9.15254 30.5 11.5442 30.5 14.4558C30.5 16.9515 30.136 18.9446 29.4081 20.435C28.9229 21.3363 28.2816 22.1248 27.4844 22.8007C26.6872 23.4766 25.838 23.9879 24.9367 24.3345C24.4861 24.5078 24.0095 24.6725 23.5069 24.8285C23.0043 24.9844 22.4584 25.1144 21.8692 25.2184C21.2799 25.3224 20.734 25.4004 20.2314 25.4524C19.7288 25.5044 19.2522 25.5477 18.8016 25.5824C18.351 25.617 17.8743 25.643 17.3717 25.6603C16.8692 25.6777 16.3406 25.6863 15.786 25.6863H14.4341L13.2383 25.6343L11.9905 25.5564L10.5867 25.4264C9.65078 25.3224 8.73224 25.1317 7.83102 24.8544C6.58319 24.5078 5.37868 23.9879 4.2175 23.2947C3.05633 22.6014 2.19844 21.6482 1.64385 20.435C0.881282 18.9446 0.5 16.9515 0.5 14.4558C0.5 11.6135 1.31456 9.22187 2.94367 7.28079C2.63172 6.31025 2.47574 5.30506 2.47574 4.26519C2.47574 2.87871 2.78769 1.56155 3.41161 0.313721C4.72877 0.313721 5.85529 0.556355 6.79116 1.04162C7.31109 1.28426 7.84835 1.58755 8.40295 1.9515C8.95754 2.31545 9.56413 2.74006 10.2227 3.22533C11.9905 2.80939 13.8449 2.60142 15.786 2.60142C17.5191 2.60142 19.2002 2.79206 20.8293 3.17334C22.0425 2.2028 23.169 1.4749 24.2088 0.989631C25.1447 0.539024 26.2886 0.313721 27.6404 0.313721C28.2296 1.59622 28.5243 2.91337 28.5243 4.26519C28.5243 5.30506 28.3683 6.31025 28.0563 7.28079ZM24.4168 21.7349C25.0061 21.2496 25.4913 20.617 25.8726 19.8371C26.2539 19.0572 26.4445 18.1473 26.4445 17.1075C26.4445 15.6517 26.0286 14.4212 25.1967 13.416C24.4341 12.4108 23.325 11.9082 21.8692 11.9082C21.5919 11.9082 21.1672 11.9342 20.5953 11.9862C20.0234 12.0382 19.2695 12.1335 18.3336 12.2721C17.9177 12.3415 17.4671 12.3934 16.9818 12.4281C16.4965 12.4628 16.0113 12.4801 15.526 12.4801C15.0061 12.4801 14.5035 12.4628 14.0182 12.4281C13.5329 12.3934 13.0823 12.3415 12.6664 12.2721C11.7652 12.1335 11.0286 12.0382 10.4567 11.9862C9.88475 11.9342 9.46014 11.9082 9.18284 11.9082C7.72704 11.9082 6.60052 12.4108 5.80329 13.416C4.9714 14.4212 4.55546 15.6517 4.55546 17.1075C4.55546 18.1473 4.7461 19.0572 5.12738 19.8371C5.50867 20.617 5.99393 21.2496 6.58319 21.7349C7.20711 22.1855 7.93501 22.5321 8.7669 22.7747C9.66811 23.052 10.5173 23.234 11.3146 23.3207C12.1118 23.4073 12.9957 23.4506 13.9662 23.4506H17.0338C18.039 23.4506 18.9315 23.4073 19.7114 23.3207C20.4913 23.234 21.3319 23.052 22.2331 22.7747C23.065 22.5321 23.7929 22.1855 24.4168 21.7349Z" fill="#454545"/>
</svg>
