<svg width="86" height="84" viewBox="0 0 86 84" fill="none" xmlns="http://www.w3.org/2000/svg">
<path d="M44.6333 56.9344C44.5312 56.9351 44.4303 56.9564 44.3363 56.997C44.2423 57.0376 44.1571 57.0967 44.0855 57.171C44.014 57.2452 43.9575 57.3331 43.9193 57.4297C43.881 57.5263 43.8619 57.6296 43.8628 57.7337C43.8628 58.0326 43.7292 59.0056 42.2542 59.0056C41.4746 59.0056 41.2056 58.6825 41.0702 58.4453C40.958 58.2317 40.8954 57.9946 40.8872 57.7524C40.8901 57.5429 40.8117 57.3406 40.6691 57.1898C40.5265 57.039 40.3312 56.9519 40.1259 56.9475H40.1094C39.9059 56.9474 39.7106 57.0287 39.5652 57.174C39.4198 57.3192 39.3359 57.5168 39.3316 57.7244C39.3315 58.4858 39.6124 59.2193 40.1186 59.7788C40.6438 60.3241 41.3612 60.6024 42.2542 60.6024C43.2534 60.6024 44.0495 60.3036 44.6168 59.7172C45.1189 59.1815 45.4056 58.473 45.4202 57.7319C45.4192 57.5197 45.3358 57.3166 45.1883 57.1671C45.0408 57.0176 44.8412 56.9339 44.6333 56.9344ZM61.8631 43.4595C62.7141 43.1719 63.6511 42.352 63.8926 40.1874C64.3593 35.9909 60.4339 34.1793 58.6587 32.5582C56.8836 30.9371 61.369 25.7862 54.5466 20.6372C47.7242 15.4881 38.5648 24.0699 34.6431 25.8815C30.7213 27.6931 27.914 21.1134 23.0552 28.4569C19.1463 34.3661 24.1093 39.8494 26.1974 41.7562C26.1553 41.7391 26.1109 41.7284 26.0657 41.7245C25.0774 41.6236 23.5036 41.2202 23.2456 40.6749C23.1866 40.5481 23.0807 40.4504 22.9511 40.4033C22.8216 40.3562 22.679 40.3635 22.5547 40.4237C22.4305 40.4839 22.3347 40.592 22.2886 40.7242C22.2424 40.8564 22.2496 41.0019 22.3086 41.1287C22.6746 41.9337 23.833 42.3576 24.7608 42.5761C23.9549 42.7069 23.2049 43.0779 22.605 43.6425C21.6699 44.5764 21.3423 45.9509 21.6333 47.7382C21.8364 48.9821 22.4074 49.9047 23.3334 50.4762C23.5505 50.6099 23.7805 50.7207 24.0197 50.8067L23.3133 51.1728L23.1925 53.2048L24.8615 54.3253L26.6494 53.4121L26.7666 51.3745L26.3347 51.085C26.6934 51.0591 27.0503 51.0111 27.4034 50.9412C27.4986 51.4025 27.6029 51.8619 27.7145 52.3232C27.8188 53.569 27.623 55.3021 26.0108 56.2172C23.952 57.3845 24.9365 63.2544 30.498 59.7228C31.1551 60.9111 31.9495 62.0147 32.8643 63.0098C35.258 65.5778 38.2556 66.8795 41.7711 66.8795C46.3187 66.8795 49.9697 65.2808 52.6232 62.1301C53.5369 61.0289 54.3081 59.8125 54.9181 58.5107C59.8245 61.6539 61.4001 56.3162 60.1191 55.2554C58.6239 54.019 57.6522 52.1271 57.1343 50.8833C57.7508 51.0287 58.381 51.1045 59.0137 51.1093C59.889 51.1365 60.755 50.9202 61.5191 50.4836C62.4451 49.9121 63.0161 48.9895 63.2192 47.7457C63.49 46.0835 63.1643 44.7575 62.2511 43.8237C62.13 43.6934 62.0004 43.5718 61.8631 43.4595ZM25.6521 52.7397L24.9365 53.1133L24.2667 52.6632L24.3143 51.847L25.0298 51.4735L25.6996 51.9198L25.6521 52.7397ZM24.1368 49.1184C23.6116 48.7916 23.295 48.2556 23.1687 47.4805C22.9674 46.2385 23.1412 45.3327 23.6884 44.7855C24.382 44.0945 25.6283 44.0067 26.45 44.0572C26.5781 45.6895 26.783 47.5085 27.1088 49.3873C26.2578 49.5498 24.9823 49.6395 24.1368 49.1184ZM27.5279 30.7802C27.5285 30.7081 27.5435 30.6369 27.572 30.5709C27.6005 30.5049 27.6418 30.4456 27.6936 30.3965C27.7453 30.3474 27.8063 30.3095 27.8728 30.2853C27.9394 30.261 28.01 30.2509 28.0806 30.2555C28.1511 30.26 28.2199 30.2792 28.2829 30.3119C28.3459 30.3445 28.4017 30.39 28.4469 30.4454C28.4922 30.5008 28.5258 30.565 28.5459 30.6341C28.566 30.7033 28.572 30.7759 28.5637 30.8475C28.4813 32.1399 30.1265 33.3912 30.8549 33.8226L30.9006 33.7834C33.7976 31.2565 37.4558 29.9641 41.7747 29.9305C41.8226 29.8011 41.9186 29.6964 42.0419 29.6391C42.1682 29.5775 44.97 28.1749 45.347 24.3537C45.3538 24.2846 45.374 24.2175 45.4062 24.1563C45.4385 24.095 45.4823 24.0409 45.535 23.9969C45.5878 23.953 45.6485 23.92 45.7138 23.9C45.779 23.88 45.8474 23.8733 45.9152 23.8803C45.983 23.8873 46.0487 23.9078 46.1087 23.9408C46.1687 23.9737 46.2218 24.0184 46.2649 24.0722C46.3079 24.126 46.3402 24.188 46.3598 24.2546C46.3794 24.3212 46.386 24.391 46.3791 24.4602C46.2369 26.1595 45.5559 27.7652 44.4393 29.034L44.4924 29.0041C45.4348 28.4438 46.434 27.5773 46.6793 26.2718C46.7113 26.14 46.7917 26.0258 46.9037 25.9527C47.0158 25.8796 47.1511 25.8531 47.2817 25.8787C47.4124 25.9043 47.5284 25.9801 47.6059 26.0904C47.6835 26.2007 47.7167 26.3371 47.6986 26.4716C47.3472 28.3393 45.8978 29.471 44.679 30.1116C44.862 30.1359 45.045 30.1602 45.228 30.1919C45.8082 30.8942 46.9208 32.5022 46.7561 33.591C46.7195 33.8282 46.6115 34.1812 46.0808 34.4912C45.6618 34.7359 44.8986 35.0851 44.4795 34.663C44.3786 34.5573 44.3045 34.4281 44.2637 34.2865C44.2228 34.1449 44.2165 33.9952 44.2453 33.8506C44.3835 33.7052 44.462 33.5113 44.4648 33.3088C44.4675 33.1062 44.3942 32.9102 44.2599 32.761C44.1256 32.6118 43.9405 32.5206 43.7425 32.5062C43.5445 32.4917 43.3486 32.5551 43.1949 32.6833C42.5159 33.2884 42.4848 34.5752 43.1253 35.4848C43.3368 35.7874 43.6172 36.0329 43.9424 36.2001C44.2676 36.3674 44.6278 36.4513 44.992 36.4447C45.6504 36.4226 46.2916 36.2242 46.8513 35.8695C47.2307 35.6674 47.5585 35.3775 47.8085 35.0231C48.0586 34.6687 48.224 34.2595 48.2915 33.8282C48.4489 32.7711 48.0207 31.6505 47.5101 30.7466C48.9473 31.2007 50.3058 31.8819 51.5362 32.7655C52.1987 32.6591 53.8951 32.3061 54.7205 31.4059C54.767 31.3551 54.8228 31.3142 54.8848 31.2854C54.9468 31.2567 55.0138 31.2407 55.0818 31.2384C55.1499 31.236 55.2177 31.2474 55.2815 31.2718C55.3452 31.2962 55.4037 31.3332 55.4534 31.3807C55.5031 31.4281 55.5432 31.4851 55.5714 31.5484C55.5996 31.6117 55.6153 31.68 55.6175 31.7494C55.6198 31.8189 55.6087 31.8881 55.5848 31.9532C55.5609 32.0183 55.5246 32.0779 55.4781 32.1287C54.7296 32.9448 53.52 33.3893 52.6049 33.6228C52.6598 33.6713 52.7166 33.7161 52.7715 33.7666C53.9638 34.8272 54.9454 36.1118 55.6629 37.5504C55.7782 38.4076 56.5084 44.3261 55.6062 50.4724V43.9451C55.6052 43.1405 55.2916 42.3691 54.7341 41.8002C54.1766 41.2313 53.4208 40.9112 52.6324 40.9102H45.336C44.5473 40.9107 43.791 41.2305 43.2331 41.7995C42.6752 42.3685 42.3613 43.1402 42.3604 43.9451V44.2028C42.2247 44.1755 42.0868 44.1617 41.9486 44.1617C41.588 44.162 41.2323 44.247 40.9091 44.4101C40.2363 43.1146 39.1725 42.0748 37.8753 41.4445C36.578 40.8142 35.1164 40.6271 33.7069 40.9108C32.2973 41.1946 31.0148 41.934 30.0492 43.0198C29.0836 44.1055 28.4864 45.4797 28.3459 46.9389C27.9417 43.8235 27.774 40.6809 27.8445 37.5392C28.4428 36.4476 29.1916 35.4495 30.068 34.5752C29.2627 34.0355 27.4126 32.6049 27.5279 30.7784V30.7802ZM54.0488 43.947V51.4006C54.0484 51.7844 53.8988 52.1522 53.6329 52.4236C53.367 52.6949 53.0066 52.8476 52.6306 52.848H45.336C44.9599 52.848 44.5991 52.6956 44.3331 52.4241C44.0672 52.1527 43.9177 51.7845 43.9177 51.4006V43.9451C43.9182 43.5614 44.0678 43.1935 44.3337 42.9222C44.5995 42.6508 44.96 42.4982 45.336 42.4977H52.6397C53.0141 42.5006 53.3722 42.6544 53.6361 42.9254C53.9 43.1965 54.0484 43.563 54.0488 43.9451V43.947ZM40.1259 47.6112C40.1262 48.9258 39.6425 50.1925 38.7706 51.1601C37.8987 52.1277 36.7023 52.7255 35.4187 52.8351C34.1351 52.9446 32.858 52.5578 31.8407 51.7514C30.8235 50.945 30.1403 49.778 29.9267 48.4816C29.7132 47.1852 29.9848 45.8543 30.6878 44.7528C31.3907 43.6513 32.4737 42.8596 33.7218 42.5347C34.97 42.2099 36.2921 42.3756 37.4262 42.9991C38.5602 43.6225 39.4232 44.6581 39.844 45.9005C39.8453 45.9144 39.8497 45.9278 39.8569 45.9397C40.0359 46.4774 40.1268 47.0415 40.1259 47.6094V47.6112ZM57.4381 55.8829C57.4962 55.8979 57.5474 55.9329 57.5831 55.982C57.6189 56.0312 57.6368 56.0914 57.634 56.1525C57.6312 56.2135 57.6078 56.2718 57.5678 56.3173C57.5277 56.3628 57.4735 56.3928 57.4143 56.4021H57.385C55.5184 56.1855 54.9694 55.1247 54.8596 54.1255C54.1586 56.7066 53.0826 59.1513 51.452 61.0899C49.1022 63.8726 45.8484 65.292 41.7747 65.292C38.7021 65.292 36.0851 64.1565 33.9971 61.9172C32.1268 59.9133 30.8201 57.2015 29.9069 54.3123C29.7605 55.4478 29.3176 56.6935 28.1098 57.0353C28.0873 57.0422 28.0638 57.0453 28.0403 57.0446C27.9765 57.0464 27.9144 57.024 27.8659 56.9818C27.8173 56.9396 27.7858 56.8806 27.7774 56.8161C27.769 56.7516 27.7843 56.6862 27.8203 56.6325C27.8563 56.5788 27.9106 56.5407 27.9726 56.5254C29.508 56.0902 29.4897 53.5708 29.4366 52.6557C29.2536 51.931 29.0706 51.1989 28.9297 50.4724C29.6298 52.0199 30.8719 53.244 32.4117 53.9041C33.9514 54.5643 35.6775 54.6127 37.2505 54.0398C38.8234 53.467 40.1295 52.3143 40.9119 50.8085C41.6942 49.3026 41.8963 47.5525 41.4783 45.9024C41.6167 45.8063 41.7794 45.7532 41.9468 45.7492C42.0996 45.7478 42.2472 45.8067 42.3585 45.9136V51.3988C42.359 52.2043 42.6729 52.9767 43.2313 53.5462C43.7896 54.1156 44.5466 54.4355 45.336 54.4355H52.6397C53.1352 54.4333 53.6222 54.3044 54.0563 54.0607C54.4904 53.817 54.8578 53.4663 55.1249 53.0404C55.1011 53.145 55.0755 53.2477 55.0499 53.3523C55.1029 53.8584 55.4708 55.6551 57.4381 55.8811V55.8829ZM61.6893 47.4786C61.563 48.2537 61.2464 48.786 60.7212 49.1165C59.7293 49.7329 58.139 49.5013 57.3466 49.294C57.5393 47.5272 57.6328 45.7507 57.6266 43.9731C58.6715 43.9264 60.3094 44.0572 61.1512 44.9293C61.7003 45.4971 61.8759 46.3319 61.6893 47.4786ZM51.807 46.9688C50.9605 47.4334 50.0102 47.6658 49.0492 47.643H49.0364C47.737 47.6224 46.9098 47.2414 46.5146 46.9987C46.3706 46.8997 46.1958 46.8586 46.0239 46.8832C45.852 46.9079 45.6952 46.9967 45.5836 47.1323C45.472 47.268 45.4136 47.4411 45.4195 47.6181C45.4255 47.7952 45.4955 47.9637 45.616 48.0912L45.6325 48.1099C46.1211 48.6459 46.8769 48.9914 47.8889 49.1427L47.5229 49.9943C47.4823 50.0901 47.4607 50.1931 47.4591 50.2974C47.4576 50.4017 47.4762 50.5053 47.514 50.6023C47.5517 50.6992 47.6078 50.7877 47.679 50.8625C47.7503 50.9373 47.8353 50.9971 47.9292 51.0383C48.0261 51.0815 48.1308 51.1038 48.2366 51.1037C48.3886 51.1038 48.5373 51.0587 48.6644 50.9737C48.7915 50.8888 48.8915 50.7678 48.9522 50.6256L49.3511 49.6918L50.4272 50.8609C50.5684 51.0144 50.7636 51.1045 50.9699 51.1111C51.1762 51.1178 51.3766 51.0405 51.527 50.8964C51.6775 50.7522 51.7657 50.553 51.7722 50.3425C51.7787 50.132 51.703 49.9275 51.5618 49.7739L50.892 49.0437C51.5604 48.9005 52.1712 48.5556 52.6452 48.0539C52.7354 47.956 52.7986 47.8355 52.8282 47.7046C52.9526 47.1219 52.3121 46.6905 51.807 46.9688ZM37.6462 46.9688C36.799 47.4319 35.8492 47.6648 34.8883 47.6449H34.8755C33.5761 47.6243 32.749 47.2433 32.3537 47.0005C32.2097 46.9015 32.035 46.8604 31.8631 46.8851C31.6912 46.9098 31.5343 46.9985 31.4227 47.1342C31.3111 47.2699 31.2527 47.4429 31.2587 47.62C31.2647 47.797 31.3346 47.9656 31.4551 48.0931L31.4716 48.1118C31.9584 48.6478 32.716 48.9933 33.728 49.1464L33.362 49.9962C33.3215 50.092 33.2998 50.1949 33.2983 50.2993C33.2967 50.4036 33.3154 50.5072 33.3531 50.6041C33.3908 50.7011 33.4469 50.7895 33.5182 50.8643C33.5894 50.9392 33.6744 50.9989 33.7683 51.0402C33.8653 51.0834 33.9699 51.1056 34.0758 51.1056C34.2277 51.1057 34.3764 51.0605 34.5035 50.9756C34.6306 50.8906 34.7307 50.7696 34.7913 50.6274L35.1902 49.6936L36.2663 50.8628C36.3362 50.9388 36.4202 51 36.5133 51.043C36.6064 51.0859 36.7069 51.1097 36.809 51.113C36.9112 51.1163 37.0129 51.099 37.1085 51.0622C37.2041 51.0253 37.2917 50.9696 37.3662 50.8983C37.4407 50.8269 37.5007 50.7412 37.5427 50.6462C37.5848 50.5512 37.6081 50.4486 37.6113 50.3444C37.6146 50.2402 37.5977 50.1363 37.5616 50.0387C37.5255 49.9412 37.4709 49.8518 37.4009 49.7758L36.7348 49.0362C37.4032 48.893 38.014 48.5482 38.488 48.0464C38.5782 47.9486 38.6414 47.8281 38.671 47.6971C38.7918 47.1219 38.1513 46.6905 37.6498 46.9669L37.6462 46.9688ZM10.8251 42.1653L8.05071 39.3339L5.27454 42.1653L8.05071 44.9984L10.8251 42.1653ZM17.8854 75.0933C17.8416 74.97 17.7799 74.8542 17.7024 74.7496C17.614 74.6307 17.5032 74.5311 17.3766 74.4564C17.2166 74.3627 17.0439 74.2935 16.8642 74.251C16.6241 74.1951 16.3784 74.1687 16.1322 74.1725C16.0462 74.1725 15.9492 74.1725 15.8247 74.1856C15.701 74.1954 15.5784 74.2173 15.4587 74.251C15.3227 74.2876 15.1917 74.3416 15.0689 74.4116C14.9348 74.4868 14.8167 74.5884 14.7212 74.7104C14.6104 74.8546 14.5255 75.0178 14.4705 75.1923C14.4011 75.4201 14.3683 75.6579 14.3735 75.8964V76.9217C14.3659 77.1831 14.4159 77.4428 14.5199 77.6818C14.609 77.8794 14.7433 78.0524 14.9115 78.1861C15.0811 78.3172 15.2746 78.4124 15.4807 78.4662C15.7017 78.5257 15.9292 78.5565 16.1578 78.5577C16.3527 78.5571 16.5473 78.5409 16.7398 78.5092C16.9376 78.4796 17.1311 78.4257 17.3162 78.3485C17.4825 78.2797 17.6328 78.176 17.7573 78.0441C17.8774 77.917 17.9432 77.7464 17.9403 77.5697C17.9436 77.4929 17.9279 77.4165 17.8945 77.3475C17.8645 77.2934 17.8217 77.2478 17.7701 77.2149C17.7142 77.1802 17.6519 77.158 17.5871 77.1495C17.5189 77.1366 17.4496 77.1303 17.3803 77.1309C17.2624 77.1276 17.1448 77.1414 17.0307 77.1719C16.9593 77.1938 16.8924 77.2286 16.8331 77.2747C16.7884 77.3123 16.7501 77.357 16.7196 77.4073C16.691 77.4536 16.6586 77.4973 16.6226 77.538C16.5819 77.5828 16.5319 77.6179 16.4762 77.6407C16.392 77.6725 16.3024 77.6865 16.2127 77.6818C16.1248 77.6854 16.0376 77.6647 15.9602 77.622C15.8933 77.5838 15.8367 77.5293 15.7955 77.4633C15.7536 77.3998 15.7238 77.3288 15.7076 77.2541C15.6905 77.1826 15.6819 77.1092 15.682 77.0356V76.6154H17.3876C17.5083 76.6212 17.6288 76.6002 17.7408 76.5538C17.8134 76.5218 17.8765 76.471 17.9238 76.4062C17.962 76.3511 17.9853 76.2867 17.9915 76.2195C17.9915 76.1578 17.9915 76.1018 17.9915 76.0551V75.7843C17.9915 75.6797 17.9915 75.5658 17.975 75.4444C17.9592 75.3241 17.9291 75.2062 17.8854 75.0933ZM15.6637 75.958V75.6517C15.6639 75.5948 15.6682 75.538 15.6765 75.4818C15.6837 75.4153 15.7056 75.3515 15.7406 75.295C15.7782 75.235 15.8306 75.1861 15.8924 75.153C15.9787 75.1116 16.0736 75.0923 16.1688 75.097C16.2795 75.0914 16.39 75.1105 16.4927 75.153C16.5656 75.1874 16.625 75.246 16.6611 75.3193C16.6991 75.4039 16.7208 75.4952 16.7251 75.5882C16.7251 75.6947 16.7361 75.8179 16.7361 75.9617L15.6637 75.958ZM15.0671 25.3081C15.1644 25.1742 15.2548 25.0352 15.3379 24.8916L15.4075 24.7684C15.4875 24.625 15.5596 24.4773 15.6234 24.3257C15.7986 23.914 15.8793 23.4668 15.8595 23.0184C15.8448 22.7527 15.7828 22.492 15.6765 22.2489C15.5515 21.9629 15.3794 21.7007 15.1677 21.4739C14.8921 21.1791 14.5743 20.9285 14.2253 20.7306C13.852 20.5056 13.4462 20.3423 13.0229 20.2468C12.6452 20.16 12.2541 20.153 11.8737 20.2263C11.5015 20.3032 11.1504 20.4626 10.8452 20.6932C10.5057 20.9546 10.2234 21.2854 10.0162 21.6644C9.79553 22.0382 9.65344 22.4548 9.59893 22.8877C9.55217 23.274 9.59222 23.6662 9.71605 24.0344C9.84836 24.4092 10.0517 24.7538 10.3145 25.0485C10.608 25.3763 10.9509 25.6543 11.3301 25.8721C11.6708 26.0824 12.0412 26.238 12.4282 26.3334C12.7274 26.408 13.037 26.4289 13.3432 26.3951C13.5987 26.3661 13.8468 26.2895 14.0752 26.1691C14.4673 25.9637 14.8074 25.6683 15.0689 25.3062L15.0671 25.3081ZM13.334 23.6272C13.27 23.7412 13.2005 23.7916 13.1291 23.7804C13.0709 23.7737 13.0144 23.7559 12.9625 23.7281L12.2305 23.2948C12.181 23.2627 12.137 23.2223 12.1006 23.1753C12.053 23.1211 12.0585 23.0408 12.1171 22.9381C12.1756 22.8354 12.2507 22.7719 12.322 22.7831C12.3805 22.7912 12.4374 22.8088 12.4904 22.8354L13.2224 23.2705C13.2716 23.3025 13.3154 23.3422 13.3523 23.3882C13.3981 23.448 13.3926 23.532 13.334 23.631V23.6272ZM13.1273 27.8462C12.9692 27.6871 12.7829 27.5604 12.5782 27.4727C12.323 27.3582 12.0622 27.2572 11.7968 27.1701L9.67396 26.466C9.45637 26.3924 9.23526 26.3301 9.01148 26.2793C8.8007 26.2306 8.58288 26.2223 8.36914 26.255C8.1563 26.2861 7.95643 26.378 7.79267 26.5202C7.59896 26.707 7.45962 26.9449 7.39007 27.2075C7.27607 27.5096 7.24816 27.8386 7.30954 28.1562C7.36426 28.3933 7.47696 28.6124 7.63712 28.7931C7.79223 28.9599 7.97904 29.0927 8.18613 29.1834C8.36106 29.2651 8.54004 29.3374 8.72234 29.4001L9.12495 29.5327C9.19083 29.5551 9.21279 29.6036 9.189 29.6783C9.16521 29.753 9.11946 29.7792 9.05358 29.7568L8.6528 29.6242C8.47239 29.5654 8.28915 29.5162 8.10378 29.4766C7.88637 29.4318 7.66238 29.4318 7.44497 29.4766C7.20959 29.5279 6.99022 29.6376 6.80628 29.796C6.57392 30.0165 6.40711 30.2994 6.32498 30.6121C6.22862 30.8679 6.20453 31.1462 6.25544 31.4152C6.30067 31.6185 6.39865 31.8055 6.5391 31.9568C6.69316 32.1139 6.87432 32.2405 7.07347 32.3304C7.28392 32.4237 7.49804 32.5171 7.71581 32.5806L9.83317 33.2754C10.098 33.3654 10.3674 33.4408 10.6402 33.5014C10.8599 33.5534 11.0873 33.5617 11.31 33.5256C11.5133 33.4913 11.7009 33.3927 11.8462 33.2436C12.025 33.0405 12.1548 32.7974 12.225 32.5339C12.2995 32.3656 12.3363 32.1825 12.3327 31.9979C12.3291 31.8133 12.2852 31.6318 12.2042 31.4667C12.1233 31.3016 12.0072 31.157 11.8645 31.0434C11.7219 30.9298 11.5562 30.8501 11.3796 30.8101L11.1142 30.7205C11.0179 30.8526 10.8804 30.9474 10.7244 30.9894C10.5549 31.037 10.376 31.037 10.2065 30.9894L10.2742 30.7765C10.3577 30.8075 10.447 30.8184 10.5352 30.8083C10.6235 30.7983 10.7083 30.7676 10.783 30.7186C10.9182 30.6146 11.0166 30.4684 11.063 30.3021C11.1158 30.1428 11.1158 29.9702 11.063 29.8109C11.0296 29.7276 10.9782 29.653 10.9126 29.5929C10.847 29.5327 10.7689 29.4885 10.6841 29.4636L10.7519 29.2507C10.9158 29.3138 11.0604 29.4201 11.1709 29.5588C11.271 29.6837 11.3288 29.8384 11.3356 29.9996L11.5864 30.0836C11.9191 30.2141 12.2889 30.2047 12.6148 30.0575C12.7752 29.9674 12.9156 29.8444 13.0271 29.6962C13.1386 29.548 13.2188 29.3779 13.2627 29.1965C13.3563 28.9415 13.3914 28.6681 13.3652 28.3971C13.3431 28.1929 13.2601 28.0006 13.1273 27.8462ZM41.1452 8.26419C41.2427 8.42113 41.3782 8.54978 41.5387 8.63771C42.0153 8.84373 42.5514 8.85443 43.0356 8.6676C43.2009 8.58809 43.3429 8.46574 43.4474 8.31275C43.5362 8.17475 43.5943 8.01856 43.6176 7.85518C43.6404 7.70869 43.6539 7.56083 43.6579 7.41255L43.6707 6.72153L43.506 6.7234V6.47314L44.5418 6.49555C44.6221 6.49661 44.7023 6.48592 44.7797 6.4638C44.8634 6.44135 44.9418 6.40198 45.0103 6.34801C45.0889 6.28422 45.1517 6.20229 45.1933 6.10895C45.2469 5.98422 45.2737 5.84922 45.272 5.71302C45.279 5.57786 45.2571 5.44276 45.2079 5.31708C45.1704 5.22377 45.1121 5.14065 45.0377 5.07429C44.9711 5.01837 44.8947 4.97591 44.8126 4.94916C44.7356 4.92417 44.6555 4.91034 44.5747 4.90807L43.0997 4.87819V4.61859L44.8382 4.65408C44.9356 4.64961 45.032 4.63331 45.1256 4.60552C45.2239 4.57736 45.3151 4.52765 45.3927 4.45984C45.4806 4.37695 45.5499 4.27565 45.5959 4.16289C45.6638 4.00435 45.6999 3.83352 45.702 3.6605C45.7121 3.49257 45.6891 3.32428 45.6343 3.16558C45.5918 3.05264 45.5263 2.95016 45.4422 2.8649C45.3674 2.79431 45.2779 2.74195 45.1805 2.71175C45.0879 2.68399 44.9929 2.66584 44.8968 2.65759L42.0419 2.59783C41.8569 2.58302 41.6718 2.62601 41.5112 2.72109C41.3891 2.79902 41.2874 2.90605 41.2147 3.03298C41.1505 3.14883 41.1065 3.27524 41.0848 3.40651C41.0676 3.50403 41.0566 3.6026 41.0519 3.70159L40.9805 7.35839C40.9779 7.50684 40.9846 7.65531 41.0006 7.80289C41.0166 7.96529 41.0659 8.12245 41.1452 8.26419ZM11.5552 74.3873C11.5065 74.3237 11.4438 74.2725 11.3722 74.2379C11.2905 74.2004 11.202 74.181 11.1124 74.181C11.0228 74.181 10.9342 74.2004 10.8525 74.2379C10.7826 74.2728 10.7204 74.3217 10.6695 74.3817C10.6169 74.4433 10.5726 74.5117 10.5377 74.5853C10.5028 74.662 10.4734 74.7413 10.4499 74.8225L9.97043 76.537H9.90088L9.44703 75.3025C9.39305 75.121 9.29482 74.9565 9.16155 74.8243C9.05889 74.7369 8.92926 74.6893 8.79554 74.6899C8.65702 74.6905 8.52258 74.7378 8.41306 74.8243C8.2712 74.9493 8.17134 75.1165 8.12757 75.3025L7.73228 76.537H7.66457L7.11556 74.8225C7.09017 74.7412 7.05897 74.6619 7.02223 74.5853C6.98676 74.5117 6.94183 74.4432 6.88863 74.3817C6.83951 74.3236 6.78064 74.2749 6.71478 74.2379C6.64894 74.2 6.57441 74.1807 6.49883 74.1819C6.40038 74.1789 6.30244 74.1974 6.21152 74.236C6.14018 74.2676 6.07739 74.3163 6.02851 74.378C5.98012 74.4387 5.94516 74.5095 5.92603 74.5853C5.90395 74.6649 5.89286 74.7472 5.89309 74.83C5.89325 74.9108 5.90434 74.9912 5.92603 75.069C5.94539 75.1455 5.9686 75.2209 5.99557 75.295L6.9655 77.8798C7.01443 78.0172 7.07569 78.1498 7.1485 78.2757C7.19286 78.3523 7.24981 78.4205 7.31686 78.4774C7.36604 78.5158 7.42397 78.5409 7.48523 78.5503C7.54591 78.5582 7.60705 78.5619 7.66823 78.5615C7.72271 78.5616 7.77714 78.5579 7.83111 78.5503C7.88732 78.5406 7.93986 78.5154 7.983 78.4774C8.04563 78.4196 8.09822 78.3514 8.13855 78.2757C8.20636 78.1485 8.26448 78.0161 8.31241 77.8798L8.77541 76.3035H8.84312L9.28416 77.8798C9.33235 78.0175 9.39365 78.1501 9.46716 78.2757C9.51267 78.352 9.57017 78.4202 9.63736 78.4774C9.68601 78.5156 9.74328 78.5406 9.80389 78.5503C9.86459 78.5581 9.92572 78.5618 9.9869 78.5615C10.0414 78.5616 10.0958 78.5579 10.1498 78.5503C10.2064 78.5402 10.2594 78.5151 10.3035 78.4774C10.3667 78.4197 10.42 78.3515 10.4609 78.2757C10.5313 78.1485 10.5924 78.0161 10.6439 77.8798L11.5955 75.2969C11.6211 75.2203 11.6449 75.1456 11.6669 75.0709C11.6882 74.9963 11.6987 74.9189 11.698 74.8412C11.6984 74.7599 11.6886 74.6789 11.6687 74.6002C11.6462 74.5218 11.6075 74.4492 11.5552 74.3873ZM46.6445 8.79833C46.7838 8.92313 46.9565 9.00249 47.1404 9.02618L49.439 9.45013C49.5342 9.4686 49.6316 9.473 49.7281 9.4632C49.8293 9.45341 49.9269 9.4202 50.0136 9.36609C50.1129 9.29882 50.1966 9.21022 50.2588 9.10649C50.344 8.9604 50.4 8.79854 50.4235 8.63024C50.4592 8.46442 50.4623 8.29304 50.4327 8.12598C50.4104 8.00647 50.3622 7.89354 50.2918 7.79542C50.2289 7.71264 50.1489 7.64504 50.0575 7.59745C49.9716 7.55177 49.8807 7.51667 49.7867 7.49286L48.6118 7.28369L48.6557 7.02782L49.1571 7.11934L49.6018 4.61486C49.6269 4.4685 49.6428 4.32066 49.6494 4.17223C49.6574 4.00693 49.63 3.84184 49.5689 3.68852C49.4985 3.51798 49.3848 3.3697 49.2395 3.25896C48.8041 2.97901 48.2794 2.88196 47.7755 2.98816C47.6056 3.04021 47.4534 3.13985 47.3362 3.27577C47.2347 3.40111 47.1616 3.54779 47.1221 3.70533C47.0819 3.86594 47.0508 4.00975 47.027 4.13861L46.3865 7.7562C46.3718 7.8539 46.3632 7.95246 46.3608 8.05128C46.3576 8.18314 46.3768 8.31458 46.4176 8.43975C46.4646 8.5758 46.5423 8.69864 46.6445 8.79833ZM62.4176 14.7915C62.3285 14.9299 62.271 15.0869 62.2493 15.251C62.2263 15.4343 62.2516 15.6206 62.3225 15.7907C62.4296 16.0279 62.5917 16.2349 62.7946 16.3939C62.9843 16.5757 63.214 16.7083 63.4644 16.7805C63.6406 16.8287 63.8262 16.8287 64.0024 16.7805C64.1573 16.7309 64.2997 16.6474 64.4197 16.5359C64.5272 16.4358 64.6292 16.3298 64.7253 16.2184L66.9305 13.5496C67.0249 13.4365 67.1111 13.3167 67.1885 13.191C67.2769 13.0522 67.3344 12.8954 67.3569 12.7315C67.3789 12.5482 67.3537 12.3622 67.2837 12.1918C67.1759 11.955 67.014 11.7482 66.8116 11.5886C66.6231 11.4089 66.3953 11.2776 66.1473 11.2057C65.9702 11.1606 65.7847 11.1638 65.6092 11.215C65.4541 11.2641 65.3116 11.3477 65.192 11.4597C65.0836 11.5594 64.9815 11.6661 64.8864 11.7791L62.6757 14.4329C62.5822 14.5467 62.496 14.6665 62.4176 14.7915ZM56.8397 11.0918C56.774 11.2434 56.7415 11.4079 56.7445 11.5736C56.7508 11.7582 56.8044 11.9379 56.9 12.0947C57.0417 12.3122 57.2333 12.4911 57.4582 12.6157C57.6734 12.7645 57.9209 12.8575 58.1792 12.8866C58.3607 12.904 58.5435 12.8711 58.7081 12.7913C58.8538 12.7187 58.9819 12.6141 59.0833 12.485C59.1748 12.3658 59.2591 12.2411 59.3358 12.1115L59.3578 12.0741L59.4182 11.2505L59.6451 11.2655L59.5115 12.9034C59.5062 13.0097 59.5062 13.1163 59.5115 13.2227C59.5182 13.3415 59.5372 13.4592 59.5682 13.5738C59.6017 13.6943 59.6529 13.8089 59.7201 13.9137C59.7942 14.0292 59.8939 14.1251 60.0111 14.1939C60.1169 14.2589 60.2316 14.3074 60.3515 14.3377C60.5021 14.3776 60.657 14.3983 60.8127 14.3993C61.082 14.4249 61.3532 14.3786 61.5996 14.2649C61.7704 14.177 61.9151 14.0442 62.0187 13.8801C62.1023 13.7417 62.1595 13.5883 62.187 13.4282C62.2111 13.2869 62.2239 13.1439 62.2255 13.0005L62.1724 12.1993L62.3463 12.1825L62.392 12.6998C62.5753 12.6099 62.7433 12.4908 62.8898 12.3468C63.0669 12.173 63.2196 11.975 63.3436 11.7585C63.778 11.0339 63.8829 10.3709 63.6584 9.76949C63.4339 9.16812 62.9386 8.62651 62.1724 8.14466C61.8271 7.92755 61.4647 7.74014 61.089 7.58437C60.7673 7.44494 60.4211 7.37377 60.0715 7.3752C59.7387 7.38475 59.4147 7.48677 59.1345 7.67029C58.7875 7.91105 58.5 8.2307 58.2945 8.6041L57.0483 10.6977C56.9708 10.8245 56.9012 10.9561 56.8397 11.0918ZM60.5382 10.1281C60.5485 10.1017 60.5608 10.0761 60.5748 10.0515L60.7084 9.82926C60.739 9.78119 60.7789 9.7399 60.8255 9.70786C60.8804 9.66864 60.9627 9.67611 61.0744 9.73214C61.1208 9.75826 61.1603 9.79541 61.1897 9.84046C61.2094 9.87195 61.2213 9.90784 61.2244 9.94505C61.2265 9.97768 61.2208 10.0103 61.208 10.0403C61.1985 10.0674 61.1868 10.0936 61.1732 10.1187L61.0396 10.341C61.0086 10.3889 60.9681 10.4296 60.9207 10.4605C60.8676 10.4997 60.7871 10.4941 60.6809 10.4418C60.6319 10.4149 60.5899 10.3765 60.5583 10.3298C60.5388 10.2975 60.5269 10.2611 60.5235 10.2233C60.5221 10.1909 60.5271 10.1585 60.5382 10.1281ZM24.1203 9.01684L25.7545 12.0816C25.825 12.2109 25.9033 12.3357 25.9888 12.4551C26.0858 12.5897 26.2108 12.7006 26.3548 12.7801C26.5149 12.8677 26.6948 12.9108 26.8764 12.9052C27.127 12.8872 27.3697 12.8084 27.5846 12.6755C27.8193 12.5605 28.0233 12.3895 28.1794 12.1769C28.2842 12.0247 28.3474 11.8468 28.3624 11.6614C28.3735 11.496 28.3485 11.3302 28.2892 11.1758C28.2363 11.0377 28.1751 10.9029 28.1062 10.7724L26.4866 7.70764C26.4161 7.57833 26.3379 7.45358 26.2523 7.33411C26.1553 7.19908 26.0303 7.0875 25.8863 7.00728C25.7257 6.92115 25.5461 6.8787 25.3647 6.88402C25.1094 6.89969 24.8618 6.97922 24.6437 7.1156C24.409 7.23056 24.205 7.40162 24.0489 7.61426C23.9439 7.76629 23.8807 7.94429 23.8659 8.12972C23.8548 8.29511 23.8798 8.46096 23.9391 8.6153C23.9911 8.75296 24.0516 8.88708 24.1203 9.01684ZM34.4674 4.80349L35.1006 8.23057C35.1292 8.37595 35.1664 8.5194 35.2122 8.66013C35.2613 8.81725 35.3438 8.96137 35.4538 9.08221C35.5801 9.21551 35.7385 9.31274 35.9131 9.36422C36.1613 9.42702 36.4207 9.42702 36.6689 9.36422C36.9266 9.3283 37.172 9.22965 37.3845 9.0766C37.5306 8.9647 37.6449 8.81516 37.7157 8.64332C37.7758 8.48981 37.8014 8.32453 37.7907 8.1596C37.7836 8.01113 37.7671 7.86328 37.7413 7.71698L37.1008 4.29549C37.0729 4.15014 37.0362 4.00668 36.991 3.86594C36.9405 3.70807 36.8568 3.56338 36.7458 3.44199C36.6194 3.30998 36.4619 3.21349 36.2883 3.16185C36.0401 3.09897 35.7806 3.09897 35.5325 3.16185C35.2747 3.1984 35.0292 3.29768 34.8169 3.45133C34.6704 3.56285 34.556 3.7125 34.4857 3.88462C34.4259 4.03824 34.3997 4.20331 34.4088 4.36833C34.4201 4.51441 34.4397 4.65971 34.4674 4.80349ZM27.8042 7.06704L28.9022 10.1916C28.9548 10.3408 29.0159 10.4867 29.0852 10.6286C29.1614 10.7846 29.2686 10.9226 29.4 11.0339C29.5456 11.1527 29.7191 11.2306 29.9033 11.2599C30.155 11.2911 30.4104 11.2551 30.6444 11.1553C30.9829 11.057 31.2821 10.8516 31.4991 10.5688C31.5749 10.4717 31.6259 10.3568 31.6473 10.2345C31.6687 10.1122 31.6599 9.98641 31.6217 9.86848C31.5924 9.79156 31.5517 9.71973 31.5009 9.65557L30.6792 8.87864L30.8347 8.70868L31.6766 9.52483C31.8481 9.68892 32.0316 9.83939 32.2256 9.97493C32.3614 10.0697 32.51 10.1439 32.6666 10.1953C32.7929 10.2338 32.9256 10.2452 33.0564 10.2289C33.1907 10.2097 33.3226 10.1759 33.4499 10.1281C33.6949 10.054 33.9168 9.91626 34.0941 9.7284C34.2165 9.58582 34.2993 9.41233 34.3338 9.22601C34.3626 9.05436 34.3582 8.87863 34.321 8.70868C34.2874 8.5565 34.2458 8.40626 34.1965 8.25859L33.0985 5.13406C33.0458 4.9849 32.9847 4.83898 32.9155 4.69703C32.8391 4.5423 32.7319 4.40554 32.6007 4.29549C32.4556 4.17777 32.2827 4.10112 32.0993 4.07325C31.8503 4.04732 31.5988 4.08453 31.3673 4.18157C31.0299 4.28126 30.7308 4.48475 30.5108 4.76427C30.4352 4.86082 30.3843 4.975 30.3626 5.09658C30.3409 5.21815 30.349 5.34333 30.3864 5.46089C30.4156 5.53781 30.4564 5.60963 30.5072 5.6738L31.2282 6.40217L31.0598 6.55905L30.1686 5.66446C30.0324 5.5243 29.8821 5.39911 29.7202 5.29094C29.5998 5.2113 29.4676 5.15202 29.3286 5.11538C29.2087 5.0868 29.0846 5.0811 28.9626 5.09857C28.8294 5.12208 28.6984 5.15706 28.571 5.20316C28.3194 5.27429 28.0908 5.4122 27.9085 5.60283C27.787 5.74418 27.7038 5.91541 27.6669 6.09962C27.6373 6.26995 27.6416 6.44464 27.6798 6.61321C27.7113 6.76716 27.7528 6.91877 27.8042 7.06704ZM51.646 9.62942C51.7879 9.81791 51.9513 9.98844 52.1328 10.1374C52.2952 10.2684 52.4706 10.3817 52.6562 10.4755C52.8023 10.5491 52.9519 10.6152 53.1045 10.6734L53.2381 10.722C53.3905 10.7765 53.5457 10.8227 53.703 10.8602C54.1341 10.9616 54.5822 10.9616 55.0133 10.8602C55.2659 10.7988 55.5057 10.6919 55.7215 10.5446C55.9751 10.3669 56.1978 10.1473 56.3803 9.89462C56.6154 9.56767 56.8005 9.20622 56.9293 8.82261C57.0802 8.40806 57.1666 7.972 57.1855 7.53021C57.2032 7.13489 57.1409 6.74009 57.0025 6.37042C56.8631 6.01052 56.6482 5.68608 56.373 5.4198C56.0626 5.12504 55.6964 4.89815 55.2969 4.75306H55.2878C54.8882 4.59743 54.4614 4.52811 54.0342 4.54949C53.6532 4.57096 53.2821 4.68083 52.949 4.87072C52.6097 5.06785 52.3128 5.33272 52.076 5.64952C51.8118 6.00224 51.6043 6.39562 51.4612 6.81492C51.3136 7.19223 51.2229 7.5902 51.1921 7.99525C51.1742 8.3102 51.2088 8.62598 51.2946 8.92906C51.3692 9.18231 51.4883 9.41961 51.646 9.62942ZM53.8018 8.08303L54.0909 7.26314C54.113 7.20787 54.1439 7.15674 54.1824 7.11187C54.2264 7.05584 54.3032 7.0465 54.4148 7.08759C54.5265 7.12868 54.5979 7.19217 54.5979 7.26501C54.6028 7.32814 54.5953 7.39163 54.5759 7.45177L54.2867 8.27166C54.2655 8.3269 54.2351 8.37805 54.1971 8.42294C54.1513 8.47897 54.0745 8.4883 53.9647 8.44722C53.8549 8.40613 53.7817 8.34263 53.7817 8.26045C53.7775 8.20055 53.7843 8.14037 53.8018 8.08303ZM73.1856 74.5181C73.065 74.3996 72.9199 74.3103 72.761 74.2566C72.6088 74.2046 72.4494 74.1775 72.2889 74.1763C72.1636 74.1746 72.0393 74.1981 71.9229 74.2454C71.7284 74.3241 71.5663 74.4685 71.4635 74.6544C71.4175 74.7355 71.3812 74.8221 71.3556 74.9121C71.3547 74.839 71.3492 74.766 71.3391 74.6936C71.3271 74.6084 71.2985 74.5265 71.2549 74.4527C71.2047 74.3744 71.1362 74.3102 71.0554 74.2659C70.9428 74.2057 70.8164 74.1773 70.6894 74.1838C70.562 74.1774 70.4353 74.2071 70.3234 74.2697C70.2391 74.3239 70.1718 74.4017 70.1294 74.4938C70.0838 74.5922 70.0577 74.6988 70.0526 74.8075C70.0526 74.9271 70.0379 75.0485 70.0379 75.1811V77.5716C70.0379 77.6964 70.0446 77.8211 70.0581 77.9451C70.0684 78.0561 70.0982 78.1643 70.1459 78.2645C70.1907 78.3566 70.259 78.4346 70.3435 78.4905C70.4492 78.5517 70.5699 78.5808 70.6912 78.5745C70.8144 78.5808 70.9367 78.5517 71.0444 78.4905C71.13 78.4348 71.1995 78.3568 71.2458 78.2645C71.2954 78.1646 71.327 78.0564 71.3391 77.9451C71.3525 77.8211 71.3593 77.6964 71.3592 77.5716V76.7405C71.3592 76.5257 71.3592 76.3278 71.3812 76.1429C71.3915 75.979 71.4197 75.8167 71.4654 75.6592C71.4964 75.5391 71.554 75.4279 71.6337 75.3342C71.6699 75.2949 71.7139 75.264 71.7629 75.2437C71.8119 75.2233 71.8646 75.2141 71.9174 75.2165C71.9889 75.2128 72.0599 75.2317 72.1205 75.2707C72.1708 75.3076 72.2101 75.358 72.234 75.4164C72.2628 75.4818 72.2796 75.5521 72.2834 75.6237C72.2907 75.7021 72.2944 75.7824 72.2944 75.8646V77.5716C72.2943 77.6964 72.3011 77.8211 72.3145 77.9451C72.3249 78.0561 72.3546 78.1643 72.4023 78.2645C72.4472 78.3566 72.5154 78.4346 72.6 78.4905C72.7057 78.5517 72.8263 78.5808 72.9477 78.5745C73.0708 78.5808 73.1932 78.5517 73.3009 78.4905C73.3865 78.4348 73.456 78.3568 73.5022 78.2645C73.5519 78.1648 73.583 78.0565 73.5937 77.9451C73.6087 77.8212 73.616 77.6965 73.6157 77.5716V75.7507C73.6229 75.5 73.5831 75.2503 73.4985 75.0148C73.431 74.8279 73.3242 74.6584 73.1856 74.5181ZM70.5906 24.6526C70.659 24.6099 70.7207 24.5571 70.7736 24.4957L71.3867 23.5395L71.5697 23.6665L70.9145 24.6563C70.7851 24.8545 70.6707 25.0624 70.5723 25.2782C70.503 25.431 70.4561 25.5933 70.4332 25.7601C70.4164 25.8934 70.427 26.0289 70.4643 26.1579C70.5067 26.2875 70.5612 26.4125 70.6272 26.5314C70.7408 26.7653 70.9116 26.9654 71.1231 27.1122C71.2805 27.2118 71.4614 27.266 71.6465 27.2691C71.818 27.2696 71.9878 27.2353 72.1461 27.1683C72.2879 27.1104 72.426 27.0437 72.5597 26.9684L75.3945 25.3473C75.5306 25.27 75.6615 25.1832 75.7861 25.0877C75.9241 24.9858 76.0395 24.8554 76.1246 24.7049C76.2159 24.5399 76.2608 24.3525 76.2546 24.1632C76.2403 23.9048 76.1623 23.6543 76.0277 23.4349C75.8754 23.1122 75.6285 22.8459 75.3213 22.6729C75.2147 22.6144 75.0955 22.5837 74.9745 22.5837C74.8534 22.5837 74.7343 22.6144 74.6277 22.6729C74.559 22.7151 74.4973 22.7681 74.4447 22.8298L73.8627 23.6777L73.6797 23.5339L74.3953 22.488C74.508 22.3276 74.6037 22.1554 74.6807 21.9744C74.7384 21.8399 74.7743 21.6967 74.7869 21.5504C74.7946 21.424 74.7784 21.2972 74.7393 21.1769C74.6953 21.0474 74.6395 20.9224 74.5728 20.8034C74.4597 20.5697 74.2895 20.3696 74.0787 20.2226C73.922 20.1225 73.7419 20.067 73.5571 20.062C73.3876 20.0608 73.2195 20.0945 73.063 20.1609C72.9243 20.2175 72.7892 20.283 72.6585 20.357L69.822 21.9781C69.6861 22.0559 69.5552 22.1426 69.4304 22.2377C69.2938 22.3374 69.1786 22.4645 69.0918 22.6113C69.0019 22.7775 68.9558 22.9648 68.9582 23.1547C68.9705 23.4138 69.048 23.6654 69.1833 23.885C69.3339 24.209 69.582 24.4753 69.8915 24.6451C69.9985 24.7048 70.1182 24.7367 70.2401 24.738C70.3621 24.7393 70.4824 24.71 70.5906 24.6526ZM70.1587 20.5438L70.3984 20.3402C70.6107 20.1535 70.8175 19.9667 71.0152 19.7575C71.2037 19.5658 71.374 19.3563 71.5239 19.1319C71.664 18.9219 71.7749 18.6931 71.8533 18.4521C71.9308 18.2115 71.9583 17.957 71.9338 17.705C71.9041 17.4052 71.821 17.1134 71.6886 16.844C71.5154 16.4937 71.2983 16.1678 71.0426 15.8747L70.9218 15.7328C70.678 15.4329 70.3968 15.1667 70.0855 14.9409C69.8472 14.7693 69.5807 14.6428 69.2986 14.5674C69.0547 14.5032 68.8002 14.4923 68.5519 14.5357C68.3071 14.5809 68.0694 14.6601 67.8455 14.771C67.6056 14.8885 67.3776 15.0299 67.1648 15.1931C66.9397 15.3611 66.7219 15.5404 66.5096 15.7272L66.2754 15.9382L65.4024 16.7245C65.2951 16.8215 65.1942 16.9257 65.1005 17.0364C64.9911 17.1592 64.9099 17.3053 64.8626 17.4641C64.8146 17.6438 64.8146 17.8334 64.8626 18.0132C64.935 18.2683 65.0661 18.502 65.245 18.6949C65.4021 18.9009 65.6063 19.0645 65.8398 19.1711C66.0073 19.2429 66.1904 19.268 66.3705 19.2439C66.5307 19.2193 66.6837 19.1594 66.8189 19.0684C66.9408 18.9877 67.0576 18.8991 67.1684 18.8032L67.3148 18.6743C67.2561 18.5194 67.2465 18.3495 67.2874 18.1887C67.3332 18.0114 67.427 17.8509 67.5582 17.7256L67.7028 17.8955C67.6344 17.9512 67.5787 18.0216 67.5398 18.1016C67.501 18.1816 67.4797 18.2694 67.4777 18.3587C67.4846 18.508 67.5403 18.6507 67.6358 18.764C67.7313 18.8774 67.8611 18.9549 68.0047 18.9843C68.0916 18.9954 68.1798 18.987 68.2632 18.96C68.3466 18.9329 68.4232 18.8877 68.4879 18.8275L68.6306 18.9974C68.49 19.1112 68.3205 19.1818 68.142 19.201C67.9801 19.2197 67.8166 19.185 67.6753 19.102L67.5289 19.2309C67.4199 19.3292 67.3167 19.434 67.2197 19.5446C67.1115 19.6673 67.0309 19.8126 66.9836 19.9704C66.9365 20.149 66.9365 20.3372 66.9836 20.5158C67.0506 20.7668 67.1762 20.9975 67.3496 21.1881C67.5095 21.3971 67.7159 21.5642 67.9517 21.6756C68.1197 21.7477 68.3034 21.7735 68.4842 21.7503C68.645 21.726 68.7987 21.6661 68.9344 21.5747C69.056 21.4936 69.1728 21.405 69.2839 21.3095L70.1587 20.5438ZM68.9326 17.9291C68.8722 17.9515 68.7972 17.9291 68.713 17.8395C68.6288 17.7498 68.6032 17.6527 68.6379 17.593C68.6633 17.5386 68.698 17.4892 68.7404 17.4473L69.2144 17.0327C69.2581 16.9966 69.3076 16.9688 69.3608 16.9505C69.4212 16.9281 69.4944 16.9505 69.5804 17.042C69.6664 17.1335 69.6902 17.2288 69.6554 17.2885C69.6306 17.3432 69.5951 17.3922 69.5511 17.4323L69.079 17.8488C69.0357 17.8849 68.986 17.9122 68.9326 17.9291ZM66.592 74.6675C66.4895 74.5466 66.3653 74.4471 66.2259 74.3743C66.1006 74.3078 65.9687 74.2552 65.8325 74.2174C65.7129 74.1834 65.5903 74.1615 65.4665 74.152C65.353 74.1427 65.2615 74.1389 65.1975 74.1389C65.1334 74.1389 65.0401 74.1389 64.9248 74.152C64.798 74.1615 64.6723 74.1834 64.5496 74.2174C64.4081 74.2554 64.2708 74.308 64.1397 74.3743C63.9973 74.4472 63.8694 74.5466 63.7627 74.6675C63.642 74.8045 63.5476 74.9635 63.4845 75.1362C63.4082 75.3555 63.3722 75.5872 63.3784 75.8198V76.9049C63.3722 77.1375 63.4082 77.3692 63.4845 77.5884C63.5476 77.7606 63.642 77.919 63.7627 78.0553C63.8685 78.1772 63.9965 78.2768 64.1397 78.3485C64.2704 78.4162 64.4078 78.4694 64.5496 78.5073C64.6725 78.5404 64.7981 78.5622 64.9248 78.5727C65.0401 78.582 65.1316 78.5857 65.1975 78.5857C65.2633 78.5857 65.353 78.5857 65.4665 78.5727C65.5902 78.5622 65.7127 78.5404 65.8325 78.5073C65.9691 78.4696 66.101 78.4163 66.2259 78.3485C66.366 78.2769 66.4905 78.1772 66.592 78.0553C66.7073 77.9176 66.7966 77.7593 66.8555 77.5884C66.9296 77.3687 66.9643 77.1372 66.958 76.9049V75.8254C66.9643 75.5931 66.9296 75.3616 66.8555 75.1418C66.7964 74.971 66.7071 74.8128 66.592 74.6749V74.6675ZM65.6769 77.2112C65.673 77.2895 65.6524 77.3659 65.6165 77.4353C65.5816 77.4977 65.5327 77.5508 65.4738 77.5903C65.3902 77.6401 65.2941 77.6635 65.1975 77.6575C65.0962 77.6638 64.9953 77.6404 64.9065 77.5903C64.8461 77.5509 64.7953 77.4979 64.7583 77.4353C64.7205 77.3668 64.7003 77.2897 64.6997 77.2112V75.6386C64.7009 75.5548 64.7209 75.4724 64.7583 75.3977C64.7959 75.333 64.8464 75.277 64.9065 75.2334C64.9928 75.1764 65.0949 75.1496 65.1975 75.1568C65.2954 75.1498 65.3928 75.1768 65.4738 75.2334C65.5324 75.2771 65.581 75.3331 65.6165 75.3977C65.652 75.4732 65.6725 75.5551 65.6769 75.6386V77.2112ZM79.6676 42.1578L76.8914 39.3265L74.1171 42.1578L76.8914 44.991L79.6676 42.1578ZM79.75 76.7704C79.6741 76.6297 79.575 76.5033 79.4572 76.3969C79.3349 76.288 79.201 76.1934 79.0582 76.1149C78.9118 76.0346 78.7691 75.9599 78.6282 75.8889C78.5366 75.8459 78.4451 75.8011 78.3646 75.7582C78.2873 75.7186 78.2127 75.6737 78.1414 75.6237C78.0834 75.5852 78.0321 75.5373 77.9895 75.4818C77.954 75.436 77.9347 75.3794 77.9346 75.3211C77.9318 75.2664 77.9425 75.2118 77.9657 75.1624C77.9862 75.1229 78.0157 75.0889 78.0517 75.0634C78.0885 75.0387 78.1294 75.021 78.1725 75.0111C78.2182 75.0012 78.2648 74.9962 78.3115 74.9962C78.4175 74.9932 78.5217 75.0239 78.6098 75.0839C78.6497 75.1127 78.6823 75.1508 78.7049 75.1949C78.7275 75.2391 78.7394 75.2881 78.7398 75.3379C78.7407 75.3823 78.752 75.4259 78.7727 75.4649C78.7951 75.5101 78.8262 75.5501 78.8642 75.5826C78.9071 75.6202 78.956 75.6499 79.0088 75.6704C79.0668 75.6947 79.1291 75.7068 79.1918 75.7059C79.2691 75.7027 79.3461 75.6946 79.4224 75.6816C79.4924 75.6699 79.5599 75.6459 79.6219 75.6106C79.6791 75.5786 79.7276 75.5323 79.7628 75.4762C79.8015 75.411 79.8206 75.3356 79.8177 75.2595C79.8177 75.2072 79.8177 75.1418 79.8067 75.0727C79.7875 74.8951 79.7203 74.7263 79.6127 74.5853C79.543 74.4961 79.4573 74.4213 79.3602 74.3649C79.2347 74.2914 79.0989 74.2379 78.9576 74.2062C78.7643 74.1616 78.5664 74.1409 78.3683 74.1445H78.2987C78.0678 74.1471 77.8376 74.1702 77.6106 74.2136C77.4284 74.2465 77.2543 74.3157 77.0982 74.4172C76.9601 74.5095 76.8493 74.6387 76.778 74.7907C76.6997 74.9704 76.6622 75.1657 76.6682 75.3622C76.6656 75.5068 76.6996 75.6496 76.767 75.7768C76.8339 75.8996 76.9212 76.0095 77.025 76.1018C77.134 76.2012 77.2523 76.2895 77.3782 76.3651C77.5082 76.4436 77.6381 76.5183 77.7662 76.5892L78.07 76.7611C78.1619 76.8137 78.25 76.873 78.3335 76.9385C78.4044 76.9948 78.4662 77.0623 78.5165 77.1383C78.5624 77.2057 78.5866 77.286 78.5861 77.368C78.5873 77.4125 78.5785 77.4567 78.5604 77.4971C78.5424 77.5376 78.5154 77.5733 78.4817 77.6015C78.4044 77.6639 78.3076 77.6957 78.2091 77.6911C78.1534 77.691 78.0978 77.6873 78.0425 77.6799C77.9882 77.6739 77.9352 77.6594 77.8851 77.637C77.841 77.6174 77.8016 77.5881 77.7699 77.5511C77.739 77.5111 77.7216 77.4619 77.7204 77.411C77.7231 77.3417 77.7115 77.2727 77.6863 77.2083C77.661 77.1439 77.6228 77.0857 77.574 77.0375C77.4747 76.9562 77.3499 76.9144 77.2227 76.9198C77.0667 76.9073 76.9113 76.9509 76.7835 77.0431C76.7325 77.0919 76.693 77.1519 76.6679 77.2185C76.6429 77.2851 76.6329 77.3567 76.6389 77.4278C76.64 77.5081 76.6486 77.5882 76.6645 77.6669C76.6838 77.7571 76.7146 77.8444 76.756 77.9265C76.8039 78.0196 76.8656 78.1047 76.939 78.1786C77.0235 78.2655 77.1212 78.338 77.2282 78.3934C77.3617 78.4611 77.5032 78.5113 77.6491 78.5428C77.8378 78.5844 78.0306 78.6038 78.2237 78.6007C78.3424 78.6005 78.461 78.5924 78.5787 78.5764C78.7027 78.5598 78.8251 78.5329 78.9447 78.4961C79.0657 78.4578 79.1822 78.4065 79.2924 78.3429C79.4013 78.2789 79.4991 78.1969 79.5816 78.1002C79.6681 77.9969 79.7357 77.8786 79.7811 77.7509C79.8341 77.6026 79.8596 77.4455 79.8561 77.2877C79.8647 77.1117 79.8294 76.9363 79.7536 76.7779L79.75 76.7704ZM74.6515 31.9475C74.691 31.8512 74.7103 31.7475 74.7082 31.6431C74.7047 31.5441 74.6906 31.4457 74.6661 31.3499L74.1061 29.669L74.3477 29.5868L74.8217 31.0118C74.849 31.0891 74.8859 31.1625 74.9315 31.2303C74.9794 31.3046 75.0417 31.3682 75.1145 31.4171C75.1981 31.4699 75.2928 31.5019 75.3908 31.5105C75.5227 31.52 75.6551 31.5003 75.7788 31.4526C75.9061 31.4155 76.0245 31.3519 76.1265 31.2658C76.2005 31.1973 76.2581 31.1123 76.2948 31.0174C76.3238 30.9342 76.3368 30.8461 76.3333 30.7578C76.3303 30.6759 76.3162 30.5948 76.2912 30.5169L75.9654 29.5084L76.1979 29.4281L76.6133 30.6756C76.6444 30.7693 76.6823 30.8604 76.7267 30.9483C76.7722 31.0392 76.842 31.1149 76.928 31.1668C77.0343 31.226 77.1529 31.258 77.2739 31.2602C77.4565 31.261 77.6376 31.2275 77.8083 31.1612C77.9657 31.1131 78.112 31.0331 78.2383 30.9259C78.3276 30.847 78.3994 30.7496 78.4488 30.6402C78.4884 30.5446 78.5072 30.4413 78.5037 30.3376C78.5013 30.2385 78.4871 30.14 78.4616 30.0444L77.5466 27.2766C77.4965 27.0948 77.3946 26.9322 77.2538 26.8097C77.1414 26.7159 77.0082 26.6518 76.8658 26.6229C76.7387 26.6005 76.6087 26.6005 76.4815 26.6229C76.3855 26.6399 76.2907 26.6636 76.1979 26.6939L72.6348 27.9265C72.544 27.9615 72.4554 28.0021 72.3694 28.0479C72.2553 28.1082 72.1525 28.1885 72.0656 28.2851C71.9687 28.3942 71.899 28.5255 71.8625 28.668C71.8216 28.8551 71.8375 29.0506 71.9082 29.2282L72.8232 31.9961C72.8596 32.0874 72.9056 32.1745 72.9605 32.2557C73.0177 32.3412 73.0935 32.4122 73.1819 32.463C73.2865 32.5199 73.4021 32.5524 73.5205 32.5582C73.6853 32.5642 73.8496 32.5362 74.0036 32.476C74.1624 32.4271 74.3103 32.3472 74.4392 32.2407C74.5299 32.1641 74.6035 32.0686 74.6551 31.9606L74.6515 31.9475ZM59.5097 72.4301C59.3357 72.4191 59.164 72.4751 59.0284 72.5869C58.9181 72.7313 58.8582 72.9091 58.8582 73.0921C58.8582 73.2752 58.9181 73.453 59.0284 73.5973C59.1673 73.7027 59.3357 73.7596 59.5088 73.7596C59.6818 73.7596 59.8503 73.7027 59.9892 73.5973C60.0507 73.5305 60.0977 73.4513 60.1274 73.3647C60.157 73.2782 60.1685 73.1863 60.1612 73.0949C60.1694 73.0035 60.1594 72.9114 60.1317 72.8241C60.104 72.7368 60.0593 72.6561 60.0001 72.5869C59.8628 72.4716 59.6869 72.4153 59.5097 72.4301ZM24.1514 74.5293C24.0308 74.4108 23.8857 74.3215 23.7269 74.2678C23.5745 74.2163 23.4152 74.1899 23.2547 74.1894C23.1297 74.1869 23.0054 74.2091 22.8887 74.2547C22.7899 74.2956 22.6989 74.3537 22.6197 74.4265C22.5462 74.494 22.4844 74.5735 22.4367 74.6619C22.3922 74.7458 22.356 74.834 22.3287 74.9252V73.4311C22.3286 73.3063 22.3219 73.1816 22.3086 73.0576C22.2984 72.9468 22.2693 72.8387 22.2226 72.7382C22.1786 72.6459 22.1093 72.5687 22.0231 72.516C21.9152 72.4533 21.792 72.4235 21.6681 72.4301C21.5476 72.4239 21.428 72.4537 21.324 72.516C21.2403 72.5701 21.1731 72.6471 21.13 72.7382C21.0825 72.8384 21.0533 72.9467 21.044 73.0576C21.0307 73.1816 21.024 73.3063 21.0239 73.4311V77.5735C21.0239 77.6949 21.0239 77.8163 21.0367 77.9339C21.0438 78.0436 21.0698 78.151 21.1136 78.2514C21.1569 78.3434 21.2239 78.4215 21.3075 78.4774C21.4191 78.5406 21.5462 78.5698 21.6736 78.5615C21.8004 78.5684 21.9267 78.5407 22.0396 78.4811C22.1219 78.4348 22.1902 78.3663 22.2372 78.2832C22.2802 78.2089 22.307 78.1261 22.3159 78.0404C22.3259 77.9692 22.3314 77.8975 22.3324 77.8256C22.3601 77.9155 22.3962 78.0024 22.4403 78.0852C22.488 78.1735 22.5499 78.2531 22.6233 78.3205C22.7024 78.394 22.7934 78.4528 22.8924 78.4942C23.0087 78.5415 23.1332 78.5643 23.2584 78.5615C23.4188 78.561 23.5782 78.5345 23.7305 78.483C23.8899 78.4295 24.0351 78.3394 24.1551 78.2197C24.2893 78.0845 24.3935 77.9214 24.4607 77.7416C24.5457 77.5088 24.5861 77.2615 24.5797 77.0132V75.7432C24.5863 75.493 24.5459 75.2439 24.4607 75.0092C24.3929 74.8283 24.2874 74.6645 24.1514 74.5293ZM23.2547 76.8955C23.2547 76.974 23.2547 77.0506 23.2547 77.1271C23.2508 77.1979 23.2347 77.2675 23.2071 77.3326C23.1842 77.3915 23.1447 77.4422 23.0937 77.4782C23.0324 77.519 22.9599 77.5386 22.8869 77.5343C22.7904 77.5384 22.695 77.5116 22.6142 77.4577C22.5381 77.3965 22.4809 77.3141 22.4495 77.2205C22.4046 77.0909 22.3763 76.956 22.3653 76.819C22.3488 76.6565 22.3397 76.4622 22.3379 76.2381C22.3387 76.1331 22.3466 76.0283 22.3616 75.9244C22.3754 75.8099 22.4031 75.6976 22.444 75.5901C22.4814 75.4901 22.5387 75.3992 22.6124 75.323C22.6483 75.2865 22.6912 75.2581 22.7385 75.2394C22.7857 75.2208 22.8363 75.2124 22.8869 75.2147C22.9597 75.2098 23.0322 75.2287 23.0937 75.2688C23.1438 75.3043 23.1832 75.3535 23.2071 75.4108C23.2349 75.4738 23.2511 75.5416 23.2547 75.6106C23.2547 75.6853 23.2547 75.76 23.2547 75.8347V76.8955ZM31.0672 76.8955C31.0165 76.8399 30.9539 76.797 30.8842 76.7704C30.7712 76.7312 30.6521 76.7135 30.5328 76.7181C30.4029 76.7156 30.2732 76.7294 30.1467 76.7592C30.068 76.7785 29.9944 76.8148 29.9307 76.8657C29.8873 76.8997 29.8553 76.9467 29.8392 77.0001C29.8262 77.0418 29.8194 77.0853 29.8191 77.129C29.8196 77.2014 29.8154 77.2738 29.8063 77.3456C29.8001 77.4123 29.7781 77.4764 29.7422 77.5324C29.7015 77.587 29.6462 77.6285 29.583 77.6519C29.4877 77.685 29.3871 77.6995 29.2865 77.6949C29.1974 77.6995 29.1092 77.6739 29.0358 77.622C28.9771 77.5742 28.9296 77.5136 28.8967 77.4446C28.8664 77.3778 28.846 77.3066 28.8363 77.2336C28.8363 77.1626 28.8235 77.1028 28.8235 77.0468V75.6909C28.8247 75.6378 28.8289 75.5848 28.8363 75.5322C28.8457 75.4733 28.8663 75.4169 28.8967 75.366C28.9315 75.3111 28.9794 75.2661 29.0358 75.2352C29.1138 75.1966 29.2 75.1786 29.2865 75.1829C29.3866 75.1786 29.4866 75.1938 29.5812 75.2278C29.6432 75.2524 29.6971 75.2945 29.7367 75.3492C29.7726 75.3994 29.7942 75.4589 29.7989 75.521C29.8063 75.5886 29.81 75.6565 29.8099 75.7245C29.8072 75.7677 29.8131 75.811 29.8272 75.8518C29.8414 75.8925 29.8635 75.9299 29.8923 75.9617C29.9472 76.0189 30.0151 76.0612 30.0899 76.085C30.1668 76.1112 30.2469 76.1263 30.3278 76.1298C30.4083 76.1298 30.4761 76.1298 30.531 76.1298C30.6511 76.1358 30.7711 76.1148 30.8823 76.0682C30.9551 76.0365 31.0183 75.9856 31.0653 75.9206C31.1034 75.8656 31.1262 75.8011 31.1312 75.7339C31.1312 75.6722 31.1312 75.6162 31.1312 75.5695C31.1302 75.4709 31.1192 75.3726 31.0983 75.2763C31.0765 75.1669 31.0395 75.0613 30.9885 74.9626C30.934 74.8513 30.8624 74.7498 30.7762 74.6619C30.6769 74.5595 30.562 74.4743 30.4358 74.4097C30.2804 74.3303 30.1155 74.2719 29.9453 74.236C29.7259 74.1882 29.5018 74.1656 29.2774 74.1688C29.1914 74.1688 29.0944 74.1688 28.9718 74.1819C28.845 74.1927 28.7194 74.2152 28.5966 74.2491C28.4601 74.2854 28.3286 74.3387 28.205 74.4079C28.0714 74.4839 27.9538 74.586 27.8591 74.7085C27.7469 74.8521 27.6613 75.0154 27.6066 75.1904C27.5377 75.4183 27.5055 75.6561 27.5114 75.8945V76.918C27.5037 77.1755 27.5551 77.4313 27.6615 77.665C27.7542 77.8619 27.8901 78.0345 28.0586 78.1693C28.2256 78.3032 28.4173 78.4017 28.6222 78.4587C28.8354 78.5202 29.0559 78.551 29.2774 78.5503C29.415 78.5505 29.5526 78.5418 29.6891 78.5241C29.8322 78.5069 29.9736 78.4776 30.1119 78.4363C30.2488 78.3965 30.3809 78.3407 30.5053 78.2701C30.6265 78.2013 30.7364 78.1138 30.8311 78.0105C30.9275 77.9008 31.0037 77.7743 31.0562 77.637C31.1144 77.4795 31.143 77.3122 31.1404 77.1439C31.1404 77.1159 31.1404 77.0748 31.1312 77.0244C31.1208 76.9733 31.0967 76.9261 31.0617 76.8881L31.0672 76.8955ZM20.0814 16.8478C19.981 16.7307 19.8735 16.6203 19.7593 16.5172L17.3144 14.3265C17.198 14.2228 17.0758 14.1261 16.9484 14.037C16.8061 13.9384 16.6453 13.871 16.4762 13.839C16.2918 13.8058 16.102 13.8246 15.9272 13.8932C15.6941 13.9944 15.4892 14.1529 15.3306 14.3545C15.0829 14.6086 14.9186 14.9349 14.8603 15.2883C14.8403 15.4102 14.8502 15.5352 14.8891 15.6523C14.9281 15.7693 14.9949 15.8746 15.0836 15.9588C15.1455 16.012 15.2153 16.0549 15.2904 16.0858L16.2676 16.3641L16.1926 16.5844L14.9957 16.2483C14.8097 16.1923 14.6182 16.1573 14.4248 16.1437C14.2814 16.1334 14.1373 16.1472 13.9984 16.1848C13.8769 16.2184 13.7631 16.2762 13.6635 16.3547C13.5574 16.4405 13.4594 16.5362 13.3706 16.6405C13.1939 16.8279 13.0678 17.0589 13.0046 17.3109C12.9623 17.4965 12.9711 17.6905 13.0303 17.8712C13.0847 18.0303 13.1692 18.1769 13.2791 18.3027C13.3796 18.4202 13.4879 18.5307 13.6031 18.6332L16.0425 20.8239C16.1581 20.9286 16.2804 21.0253 16.4085 21.1134C16.5485 21.2126 16.7076 21.2801 16.8752 21.3114C17.0593 21.3441 17.2487 21.3267 17.4242 21.261C17.659 21.1619 17.8655 21.0039 18.0244 20.8015C18.272 20.5478 18.4353 20.2212 18.4911 19.8677C18.5103 19.745 18.4997 19.6193 18.4601 19.5017C18.4206 19.3841 18.3533 19.2783 18.2642 19.1935C18.2021 19.1405 18.1323 19.0977 18.0574 19.0665L16.9703 18.7957L17.0234 18.5697L18.1599 18.8629C18.3863 18.9225 18.617 18.9637 18.8498 18.9862C19.0136 19.0024 19.1789 18.9936 19.3402 18.9601C19.4724 18.9328 19.5973 18.8767 19.7063 18.7957C19.8148 18.7129 19.9142 18.6184 20.0027 18.5137C20.1796 18.3271 20.3057 18.0966 20.3687 17.8451C20.4089 17.6591 20.3988 17.4654 20.3395 17.2848C20.2812 17.1239 20.1936 16.9756 20.0814 16.8478ZM36.819 74.3425C36.7764 74.2883 36.7191 74.248 36.6543 74.2267C36.5659 74.1996 36.4739 74.187 36.3816 74.1894C36.2854 74.1903 36.191 74.216 36.1071 74.2641C36.0093 74.3187 35.9219 74.3908 35.8491 74.477C35.7624 74.5788 35.6892 74.6919 35.6313 74.8131C35.5623 74.9549 35.509 75.1039 35.4721 75.2576H35.4025C35.4025 75.1381 35.4025 75.0148 35.4025 74.8841C35.3985 74.7663 35.3769 74.6498 35.3385 74.5386C35.3041 74.4394 35.244 74.3516 35.1646 74.2846C35.0669 74.2131 34.948 74.1782 34.8279 74.1856C34.7091 74.1795 34.5911 74.208 34.4875 74.2678C34.4078 74.3211 34.3444 74.3962 34.3045 74.4844C34.2583 74.5812 34.2291 74.6855 34.2185 74.7926C34.2058 74.9111 34.1997 75.0302 34.2002 75.1493V77.5996C34.1998 77.7169 34.2059 77.8342 34.2185 77.9507C34.2294 78.0566 34.2585 78.1597 34.3045 78.2552C34.3461 78.3423 34.4092 78.417 34.4875 78.4718C34.5911 78.5316 34.7091 78.5601 34.8279 78.554C34.9484 78.5599 35.0682 78.5315 35.1738 78.4718C35.257 78.4184 35.3252 78.3437 35.3714 78.2552C35.4189 78.1601 35.4486 78.0569 35.4593 77.9507C35.4725 77.8342 35.4792 77.717 35.4794 77.5996V76.3483C35.4763 76.2313 35.4923 76.1145 35.527 76.0028C35.5526 75.9155 35.5949 75.8343 35.6514 75.7638C35.6988 75.7046 35.7557 75.654 35.8198 75.6143C35.8777 75.5803 35.9391 75.5528 36.0028 75.5322C36.0574 75.5139 36.1139 75.502 36.1712 75.4967H36.2938C36.4647 75.5074 36.6331 75.4506 36.7641 75.3379C36.8239 75.271 36.8694 75.1921 36.8978 75.1063C36.9261 75.0204 36.9367 74.9295 36.9288 74.8393C36.93 74.7411 36.9226 74.643 36.9068 74.5461C36.8945 74.4712 36.8629 74.4009 36.8153 74.3425H36.819ZM21.6992 16.59C21.9483 16.5408 22.1809 16.427 22.3745 16.2595C22.6667 16.061 22.8892 15.7724 23.0095 15.4359C23.052 15.3195 23.0659 15.1943 23.05 15.0712C23.034 14.9481 22.9887 14.8309 22.918 14.7299C22.8658 14.6651 22.8041 14.609 22.735 14.5637L21.7285 14.08L21.8254 13.8689L22.8795 14.3919C23.0896 14.4954 23.3075 14.5816 23.531 14.6496C23.6889 14.6982 23.8529 14.7228 24.0178 14.7224C24.1493 14.7203 24.2789 14.6904 24.3985 14.6346C24.5204 14.5733 24.6362 14.5001 24.7444 14.4161C24.9555 14.2691 25.1252 14.0682 25.2366 13.8334C25.3116 13.6605 25.3388 13.47 25.3153 13.2825C25.2912 13.1091 25.234 12.9422 25.147 12.7913C25.0709 12.6565 24.9866 12.5268 24.8944 12.4028L22.9198 9.76576C22.8248 9.64034 22.7227 9.52061 22.6142 9.40717C22.4942 9.28343 22.3511 9.18562 22.1933 9.11956C22.0184 9.05147 21.8287 9.03276 21.6443 9.0654C21.396 9.11672 21.1644 9.23105 20.9708 9.39784C20.679 9.59739 20.4552 9.88455 20.3303 10.2196C20.2872 10.3351 20.2728 10.4597 20.2884 10.5822C20.3041 10.7048 20.3493 10.8215 20.42 10.9218C20.4716 10.9871 20.5335 11.0432 20.603 11.088L21.5052 11.5568L21.3936 11.766L20.2772 11.1908C20.1062 11.0986 19.9258 11.026 19.7392 10.9741C19.6005 10.9351 19.4565 10.9193 19.3128 10.9274C19.1856 10.9371 19.0614 10.9713 18.9468 11.0283C18.8308 11.0894 18.7205 11.1613 18.6174 11.243C18.4066 11.3902 18.2364 11.5902 18.1233 11.8239C18.049 11.9963 18.0212 12.1859 18.0427 12.373C18.0639 12.5448 18.12 12.7101 18.2074 12.8585C18.2831 12.9942 18.3675 13.1246 18.46 13.2489L20.4328 15.8841C20.5245 16.0123 20.6248 16.134 20.7329 16.2483C20.8509 16.3736 20.9938 16.4716 21.152 16.5359C21.3265 16.6031 21.5153 16.6218 21.6992 16.59ZM60.0459 74.4863C60.0013 74.3946 59.933 74.3171 59.8482 74.2622C59.7407 74.2057 59.6215 74.1762 59.5005 74.1762C59.3796 74.1762 59.2604 74.2057 59.1528 74.2622C59.0694 74.318 59.0018 74.3953 58.957 74.4863C58.9096 74.584 58.8798 74.6897 58.8692 74.7982C58.856 74.9173 58.8493 75.037 58.849 75.1568V77.5735C58.8493 77.6945 58.856 77.8155 58.8692 77.9358C58.8796 78.045 58.9093 78.1513 58.957 78.2496C59.0014 78.3404 59.069 78.4172 59.1528 78.4718C59.2611 78.5259 59.38 78.554 59.5005 78.554C59.6211 78.554 59.74 78.5259 59.8482 78.4718C59.9327 78.4174 60.001 78.3406 60.0459 78.2496C60.0936 78.1513 60.1233 78.045 60.1337 77.9358C60.1469 77.8155 60.1536 77.6945 60.1539 77.5735V75.1605C60.1536 75.0407 60.1469 74.921 60.1337 74.8019C60.1231 74.6934 60.0933 74.5878 60.0459 74.49V74.4863ZM43.107 75.0895C43.0632 74.9663 43.0016 74.8504 42.924 74.7459C42.8353 74.6273 42.7246 74.5277 42.5983 74.4527C42.4383 74.3589 42.2656 74.2897 42.0858 74.2473C41.8458 74.1914 41.6 74.1651 41.3538 74.1688C41.2678 74.1688 41.1708 74.1688 41.0464 74.1819C40.9195 74.1911 40.7939 74.213 40.6712 74.2473C40.5352 74.2839 40.4042 74.3378 40.2814 74.4079C40.147 74.4826 40.0288 74.5842 39.9337 74.7067C39.8229 74.8509 39.738 75.014 39.683 75.1885C39.6136 75.4163 39.5808 75.6541 39.586 75.8926V76.918C39.5784 77.1793 39.6284 77.4391 39.7324 77.6781C39.8215 77.8757 39.9558 78.0486 40.124 78.1823C40.2936 78.3134 40.4871 78.4087 40.6932 78.4625C40.9142 78.522 41.1417 78.5527 41.3703 78.554C41.5652 78.5533 41.7598 78.5371 41.9523 78.5054C42.1501 78.4759 42.3436 78.422 42.5287 78.3448C42.695 78.276 42.8453 78.1723 42.9698 78.0404C43.0899 77.9132 43.1558 77.7426 43.1528 77.566C43.1561 77.4892 43.1404 77.4127 43.107 77.3438C43.077 77.2897 43.0342 77.2441 42.9826 77.2112C42.9266 77.1768 42.8643 77.1545 42.7996 77.1458C42.7306 77.1346 42.6607 77.1302 42.5909 77.1327C42.4731 77.1293 42.3554 77.1432 42.2414 77.1738C42.17 77.1957 42.1031 77.2305 42.0438 77.2765C41.9991 77.3141 41.9608 77.3589 41.9303 77.4091C41.9017 77.4555 41.8692 77.4992 41.8333 77.5399C41.7922 77.5843 41.7423 77.6193 41.6869 77.6426C41.6027 77.6744 41.513 77.6883 41.4234 77.6837C41.3354 77.6874 41.2482 77.6668 41.1708 77.6239C41.1039 77.5857 41.0474 77.5311 41.0061 77.4652C40.9643 77.4016 40.9345 77.3307 40.9183 77.256C40.9012 77.1845 40.8926 77.1111 40.8927 77.0375V76.6173H42.5909C42.7117 76.6231 42.8322 76.602 42.9441 76.5556C43.0168 76.5237 43.0799 76.4728 43.1271 76.4081C43.1652 76.353 43.188 76.2885 43.193 76.2213C43.1993 76.1668 43.2024 76.1119 43.2022 76.057V75.7862C43.2022 75.6816 43.2022 75.5677 43.1857 75.4463C43.1726 75.326 43.1462 75.2075 43.107 75.0933V75.0895ZM40.8853 75.9543V75.648C40.8855 75.5911 40.8898 75.5343 40.8982 75.478C40.9054 75.4116 40.9273 75.3477 40.9622 75.2913C40.9994 75.2308 41.0519 75.1818 41.1141 75.1493C41.2003 75.1078 41.2952 75.0886 41.3904 75.0933C41.5011 75.0876 41.6117 75.1067 41.7144 75.1493C41.7868 75.1838 41.8455 75.2424 41.8809 75.3155C41.9204 75.3997 41.9428 75.4912 41.9468 75.5845C41.9468 75.6909 41.9559 75.8142 41.9559 75.958L40.8853 75.9543ZM55.0352 75.2315C55.1099 75.2312 55.1844 75.2262 55.2585 75.2165C55.3287 75.2069 55.3965 75.1834 55.458 75.1474C55.5195 75.111 55.5686 75.0563 55.5989 74.9906C55.6388 74.9017 55.657 74.8043 55.652 74.7067C55.6575 74.606 55.6393 74.5055 55.5989 74.4135C55.5681 74.3476 55.5191 74.2925 55.458 74.2547C55.3965 74.2197 55.3286 74.1981 55.2585 74.1912C55.1835 74.1912 55.1103 74.18 55.0352 74.18H54.6839V73.4106C54.6838 73.2907 54.677 73.171 54.6637 73.052C54.6539 72.9429 54.6248 72.8366 54.5777 72.7382C54.5347 72.6471 54.4675 72.5701 54.3837 72.516C54.2797 72.4537 54.1601 72.4239 54.0397 72.4301C53.9181 72.4237 53.7973 72.4535 53.692 72.516C53.6082 72.5706 53.5405 72.6474 53.4962 72.7382C53.4487 72.8367 53.4183 72.9429 53.4065 73.052C53.3938 73.1711 53.3877 73.2908 53.3882 73.4106V74.18H53.1503C53.0763 74.18 53.0024 74.1837 52.9289 74.1912C52.8599 74.1981 52.7932 74.2197 52.733 74.2547C52.6733 74.2936 52.6252 74.3485 52.594 74.4135C52.5544 74.5058 52.5363 74.6061 52.5409 74.7067C52.5368 74.8042 52.5549 74.9014 52.594 74.9906C52.6245 75.0554 52.6728 75.1099 52.733 75.1474C52.7932 75.1834 52.8598 75.2069 52.9289 75.2165C53.0023 75.2262 53.0762 75.2312 53.1503 75.2315H53.3882V76.6752C53.3882 76.8544 53.3919 77.0244 53.3992 77.185C53.405 77.3374 53.4222 77.4891 53.4504 77.6389C53.4749 77.7686 53.5167 77.8943 53.5749 78.0124C53.6298 78.1235 53.7072 78.2215 53.8018 78.3C53.9099 78.3873 54.0345 78.4509 54.1678 78.4868C54.3378 78.5334 54.5134 78.5554 54.6894 78.5521C54.8124 78.5525 54.9351 78.5393 55.0554 78.5129C55.1646 78.4902 55.2692 78.4485 55.3646 78.3896C55.4506 78.338 55.5233 78.2663 55.5769 78.1805C55.6316 78.0896 55.6589 77.9844 55.6556 77.8779C55.658 77.7834 55.6469 77.689 55.6227 77.5978C55.6032 77.5323 55.5665 77.4735 55.5165 77.4278C55.4635 77.384 55.4006 77.3545 55.3335 77.3419C55.2467 77.325 55.1584 77.3169 55.07 77.3176C54.993 77.3237 54.9162 77.3047 54.8504 77.2635C54.8007 77.2286 54.7609 77.1809 54.7351 77.1253C54.7088 77.0664 54.6933 77.0031 54.6894 76.9385C54.6894 76.8731 54.6894 76.8115 54.6894 76.7517V75.2203L55.0352 75.2315ZM49.5451 74.4844C49.501 74.3929 49.4333 74.3155 49.3493 74.2603C49.2456 74.1989 49.1268 74.1691 49.0071 74.1744C48.9279 74.1747 48.849 74.186 48.7728 74.208C48.6942 74.2303 48.6216 74.2705 48.5605 74.3257C48.4938 74.3902 48.4414 74.4685 48.4068 74.5554C48.3631 74.6715 48.3426 74.7953 48.3464 74.9196C48.3192 74.828 48.2824 74.7397 48.2366 74.6563C48.1889 74.5679 48.1271 74.4884 48.0536 74.4209C47.9755 74.3476 47.885 74.2894 47.7864 74.2491C47.6697 74.2036 47.5454 74.1814 47.4204 74.1838C47.26 74.1842 47.1006 74.2107 46.9483 74.2622C46.7891 74.3152 46.6438 74.4046 46.5237 74.5237C46.3889 74.6581 46.2841 74.8205 46.2163 74.9999C46.1317 75.2347 46.0919 75.4838 46.0991 75.7339V77.0039C46.0922 77.2521 46.132 77.4993 46.2163 77.7322C46.2841 77.9122 46.3889 78.0752 46.5237 78.2103C46.6437 78.3301 46.7889 78.4202 46.9483 78.4737C47.1006 78.5251 47.26 78.5516 47.4204 78.5521C47.5456 78.5548 47.67 78.5319 47.7864 78.4849C47.9775 78.4044 48.1361 78.2602 48.2366 78.0759C48.2821 77.9935 48.3189 77.9065 48.3464 77.8163C48.3475 77.8881 48.3524 77.9598 48.3611 78.0311C48.3717 78.1164 48.3984 78.1989 48.4398 78.2738C48.4852 78.3571 48.5507 78.4272 48.6301 78.4774C48.7432 78.5361 48.8693 78.5638 48.9961 78.5577C49.1234 78.5659 49.2504 78.5367 49.3621 78.4737C49.446 78.4186 49.5127 78.3402 49.5543 78.2477C49.5997 78.1479 49.6258 78.0401 49.6311 77.9302C49.6311 77.8125 49.6439 77.6911 49.6439 77.5697V75.1792C49.6444 75.0544 49.6383 74.9297 49.6256 74.8057C49.6167 74.6965 49.5895 74.5898 49.5451 74.49V74.4844ZM48.319 76.8134C48.308 76.9504 48.2797 77.0853 48.2348 77.2149C48.2034 77.3085 48.1462 77.3909 48.0701 77.4521C47.9891 77.5058 47.8939 77.5325 47.7974 77.5287C47.7238 77.5329 47.6508 77.5133 47.5888 77.4726C47.5382 77.436 47.4989 77.3855 47.4753 77.327C47.4486 77.2616 47.4325 77.1922 47.4277 77.1215C47.4277 77.045 47.4277 76.9684 47.4277 76.8899V75.8291C47.4277 75.7544 47.4277 75.6797 47.4277 75.605C47.4321 75.5361 47.4482 75.4684 47.4753 75.4052C47.4999 75.3483 47.5391 75.2993 47.5888 75.2632C47.651 75.2232 47.724 75.2043 47.7974 75.2091C47.848 75.2068 47.8986 75.2152 47.9458 75.2338C47.9931 75.2525 48.036 75.2809 48.0719 75.3174C48.145 75.3937 48.2017 75.4846 48.2385 75.5845C48.2791 75.6922 48.3073 75.8044 48.3226 75.9188C48.3377 76.0227 48.3456 76.1275 48.3464 76.2325C48.3391 76.4622 48.33 76.6565 48.3153 76.819L48.319 76.8134Z" fill="#F3F2EE"/>
</svg>
