<svg width="86" height="84" viewBox="0 0 86 84" fill="none" xmlns="http://www.w3.org/2000/svg">
<path d="M44.6333 56.9344C44.5313 56.9351 44.4304 56.9564 44.3364 56.997C44.2424 57.0376 44.1572 57.0967 44.0856 57.171C44.014 57.2452 43.9575 57.3331 43.9193 57.4297C43.8811 57.5263 43.8619 57.6296 43.8629 57.7337C43.8629 58.0326 43.7293 59.0056 42.2543 59.0056C41.4747 59.0056 41.2057 58.6825 41.0702 58.4453C40.9581 58.2317 40.8955 57.9946 40.8872 57.7524C40.8902 57.5429 40.8118 57.3406 40.6692 57.1898C40.5265 57.039 40.3313 56.9519 40.1259 56.9475H40.1095C39.906 56.9474 39.7106 57.0287 39.5652 57.174C39.4198 57.3192 39.336 57.5168 39.3317 57.7244C39.3315 58.4858 39.6125 59.2193 40.1186 59.7788C40.6438 60.3241 41.3612 60.6024 42.2543 60.6024C43.2535 60.6024 44.0495 60.3036 44.6169 59.7172C45.1189 59.1815 45.4056 58.473 45.4202 57.7319C45.4193 57.5197 45.3359 57.3166 45.1884 57.1671C45.0408 57.0176 44.8412 56.9339 44.6333 56.9344ZM61.8632 43.4595C62.7142 43.1719 63.6511 42.352 63.8927 40.1874C64.3594 35.9909 60.4339 34.1793 58.6588 32.5582C56.8836 30.9371 61.3691 25.7862 54.5467 20.6372C47.7243 15.4881 38.5649 24.0699 34.6431 25.8815C30.7213 27.6931 27.9141 21.1134 23.0553 28.4569C19.1463 34.3661 24.1094 39.8494 26.1975 41.7562C26.1553 41.7391 26.1109 41.7284 26.0657 41.7245C25.0775 41.6236 23.5037 41.2202 23.2456 40.6749C23.1866 40.5481 23.0807 40.4504 22.9512 40.4033C22.8216 40.3562 22.679 40.3635 22.5548 40.4237C22.4305 40.4839 22.3348 40.592 22.2886 40.7242C22.2425 40.8564 22.2497 41.0019 22.3086 41.1287C22.6746 41.9337 23.8331 42.3576 24.7609 42.5761C23.955 42.7069 23.2049 43.0779 22.6051 43.6425C21.67 44.5764 21.3424 45.9509 21.6334 47.7382C21.8365 48.9821 22.4075 49.9047 23.3335 50.4762C23.5506 50.6099 23.7805 50.7207 24.0197 50.8067L23.3133 51.1728L23.1925 53.2048L24.8615 54.3253L26.6495 53.4121L26.7666 51.3745L26.3347 51.085C26.6935 51.0591 27.0504 51.0111 27.4035 50.9412C27.4986 51.4025 27.603 51.8619 27.7146 52.3232C27.8189 53.569 27.6231 55.3021 26.0108 56.2172C23.952 57.3845 24.9366 63.2544 30.4981 59.7228C31.1551 60.9111 31.9495 62.0147 32.8643 63.0098C35.258 65.5778 38.2556 66.8795 41.7711 66.8795C46.3188 66.8795 49.9697 65.2808 52.6233 62.1301C53.5369 61.0289 54.3082 59.8125 54.9182 58.5107C59.8245 61.6539 61.4002 56.3162 60.1192 55.2554C58.624 54.019 57.6523 52.1271 57.1344 50.8833C57.7508 51.0287 58.3811 51.1045 59.0138 51.1093C59.8891 51.1365 60.7551 50.9202 61.5191 50.4836C62.4451 49.9121 63.0161 48.9895 63.2192 47.7457C63.4901 46.0835 63.1643 44.7575 62.2512 43.8237C62.1301 43.6934 62.0005 43.5718 61.8632 43.4595ZM25.6521 52.7397L24.9366 53.1133L24.2668 52.6632L24.3144 51.847L25.0299 51.4735L25.6997 51.9198L25.6521 52.7397ZM24.1369 49.1184C23.6116 48.7916 23.295 48.2556 23.1688 47.4805C22.9675 46.2385 23.1413 45.3327 23.6885 44.7855C24.3821 44.0945 25.6283 44.0067 26.45 44.0572C26.5781 45.6895 26.7831 47.5085 27.1088 49.3873C26.2579 49.5498 24.9823 49.6395 24.1369 49.1184ZM27.5279 30.7802C27.5285 30.7081 27.5435 30.6369 27.572 30.5709C27.6005 30.5049 27.6419 30.4456 27.6936 30.3965C27.7453 30.3474 27.8063 30.3095 27.8729 30.2853C27.9394 30.261 28.0101 30.2509 28.0806 30.2555C28.1511 30.26 28.22 30.2792 28.283 30.3119C28.346 30.3445 28.4018 30.39 28.447 30.4454C28.4922 30.5008 28.5259 30.565 28.546 30.6341C28.566 30.7033 28.5721 30.7759 28.5637 30.8475C28.4814 32.1399 30.1266 33.3912 30.8549 33.8226L30.9007 33.7834C33.7976 31.2565 37.4559 29.9641 41.7748 29.9305C41.8226 29.8011 41.9187 29.6964 42.042 29.6391C42.1683 29.5775 44.9701 28.1749 45.347 24.3537C45.3539 24.2846 45.374 24.2175 45.4063 24.1563C45.4386 24.095 45.4823 24.0409 45.5351 23.9969C45.5878 23.953 45.6486 23.92 45.7138 23.9C45.779 23.88 45.8475 23.8733 45.9153 23.8803C45.983 23.8873 46.0488 23.9078 46.1088 23.9408C46.1688 23.9737 46.2218 24.0184 46.2649 24.0722C46.308 24.126 46.3403 24.188 46.3599 24.2546C46.3795 24.3212 46.386 24.391 46.3792 24.4602C46.237 26.1595 45.556 27.7652 44.4393 29.034L44.4924 29.0041C45.4349 28.4438 46.4341 27.5773 46.6793 26.2718C46.7114 26.14 46.7917 26.0258 46.9038 25.9527C47.0159 25.8796 47.1511 25.8531 47.2818 25.8787C47.4124 25.9043 47.5285 25.9801 47.606 26.0904C47.6836 26.2007 47.7167 26.3371 47.6987 26.4716C47.3473 28.3393 45.8979 29.471 44.6791 30.1116C44.8621 30.1359 45.0451 30.1602 45.2281 30.1919C45.8082 30.8942 46.9209 32.5022 46.7562 33.591C46.7196 33.8282 46.6116 34.1812 46.0809 34.4912C45.6618 34.7359 44.8987 35.0851 44.4796 34.663C44.3787 34.5573 44.3046 34.4281 44.2637 34.2865C44.2229 34.1449 44.2166 33.9952 44.2454 33.8506C44.3836 33.7052 44.4621 33.5113 44.4648 33.3088C44.4675 33.1062 44.3943 32.9102 44.26 32.761C44.1257 32.6118 43.9406 32.5206 43.7426 32.5062C43.5446 32.4917 43.3486 32.5551 43.1949 32.6833C42.516 33.2884 42.4849 34.5752 43.1254 35.4848C43.3368 35.7874 43.6172 36.0329 43.9425 36.2001C44.2677 36.3674 44.6279 36.4513 44.992 36.4447C45.6505 36.4226 46.2917 36.2242 46.8513 35.8695C47.2307 35.6674 47.5585 35.3775 47.8086 35.0231C48.0587 34.6687 48.2241 34.2595 48.2916 33.8282C48.449 32.7711 48.0207 31.6505 47.5102 30.7466C48.9474 31.2007 50.3059 31.8819 51.5363 32.7655C52.1987 32.6591 53.8952 32.3061 54.7205 31.4059C54.767 31.3551 54.8229 31.3142 54.8849 31.2854C54.9469 31.2567 55.0138 31.2407 55.0819 31.2384C55.1499 31.236 55.2178 31.2474 55.2815 31.2718C55.3453 31.2962 55.4037 31.3332 55.4535 31.3807C55.5032 31.4281 55.5433 31.4851 55.5715 31.5484C55.5996 31.6117 55.6153 31.68 55.6176 31.7494C55.6199 31.8189 55.6088 31.8881 55.5848 31.9532C55.5609 32.0183 55.5247 32.0779 55.4782 32.1287C54.7297 32.9448 53.52 33.3893 52.605 33.6228C52.6599 33.6713 52.7166 33.7161 52.7715 33.7666C53.9639 34.8272 54.9455 36.1118 55.663 37.5504C55.7783 38.4076 56.5085 44.3261 55.6063 50.4724V43.9451C55.6053 43.1405 55.2917 42.3691 54.7342 41.8002C54.1767 41.2313 53.4209 40.9112 52.6324 40.9102H45.3361C44.5473 40.9107 43.791 41.2305 43.2331 41.7995C42.6753 42.3685 42.3614 43.1402 42.3604 43.9451V44.2028C42.2248 44.1755 42.0869 44.1617 41.9487 44.1617C41.5881 44.162 41.2324 44.247 40.9092 44.4101C40.2363 43.1146 39.1725 42.0748 37.8753 41.4445C36.5781 40.8142 35.1165 40.6271 33.7069 40.9108C32.2974 41.1946 31.0148 41.934 30.0492 43.0198C29.0837 44.1055 28.4864 45.4797 28.3459 46.9389C27.9417 43.8235 27.7741 40.6809 27.8445 37.5392C28.4428 36.4476 29.1916 35.4495 30.068 34.5752C29.2628 34.0355 27.4126 32.6049 27.5279 30.7784V30.7802ZM54.0489 43.947V51.4006C54.0484 51.7844 53.8988 52.1522 53.633 52.4236C53.3671 52.6949 53.0066 52.8476 52.6306 52.848H45.3361C44.9599 52.848 44.5992 52.6956 44.3332 52.4241C44.0672 52.1527 43.9178 51.7845 43.9178 51.4006V43.9451C43.9183 43.5614 44.0678 43.1935 44.3337 42.9222C44.5996 42.6508 44.9601 42.4982 45.3361 42.4977H52.6398C53.0142 42.5006 53.3723 42.6544 53.6362 42.9254C53.9001 43.1965 54.0484 43.563 54.0489 43.9451V43.947ZM40.1259 47.6112C40.1263 48.9258 39.6426 50.1925 38.7707 51.1601C37.8987 52.1277 36.7024 52.7255 35.4187 52.8351C34.1351 52.9446 32.8581 52.5578 31.8408 51.7514C30.8235 50.945 30.1404 49.778 29.9268 48.4816C29.7132 47.1852 29.9849 45.8543 30.6878 44.7528C31.3908 43.6513 32.4737 42.8596 33.7219 42.5347C34.97 42.2099 36.2922 42.3756 37.4262 42.9991C38.5602 43.6225 39.4232 44.6581 39.8441 45.9005C39.8453 45.9144 39.8497 45.9278 39.8569 45.9397C40.036 46.4774 40.1269 47.0415 40.1259 47.6094V47.6112ZM57.4381 55.8829C57.4963 55.8979 57.5475 55.9329 57.5832 55.982C57.6189 56.0312 57.6369 56.0914 57.6341 56.1525C57.6313 56.2135 57.6079 56.2718 57.5678 56.3173C57.5278 56.3628 57.4736 56.3928 57.4143 56.4021H57.3851C55.5184 56.1855 54.9694 55.1247 54.8596 54.1255C54.1587 56.7066 53.0826 59.1513 51.4521 61.0899C49.1023 63.8726 45.8485 65.292 41.7748 65.292C38.7022 65.292 36.0852 64.1565 33.9971 61.9172C32.1268 59.9133 30.8202 57.2015 29.907 54.3123C29.7606 55.4478 29.3177 56.6935 28.1099 57.0353C28.0873 57.0422 28.0639 57.0453 28.0403 57.0446C27.9766 57.0464 27.9145 57.024 27.8659 56.9818C27.8174 56.9396 27.7859 56.8806 27.7775 56.8161C27.7691 56.7516 27.7843 56.6862 27.8204 56.6325C27.8564 56.5788 27.9106 56.5407 27.9726 56.5254C29.508 56.0902 29.4897 53.5708 29.4367 52.6557C29.2536 51.931 29.0706 51.1989 28.9297 50.4724C29.6299 52.0199 30.8719 53.244 32.4117 53.9041C33.9515 54.5643 35.6776 54.6127 37.2505 54.0398C38.8235 53.467 40.1296 52.3143 40.9119 50.8085C41.6943 49.3026 41.8963 47.5525 41.4783 45.9024C41.6168 45.8063 41.7795 45.7532 41.9468 45.7492C42.0997 45.7478 42.2472 45.8067 42.3586 45.9136V51.3988C42.3591 52.2043 42.673 52.9767 43.2313 53.5462C43.7896 54.1156 44.5467 54.4355 45.3361 54.4355H52.6398C53.1352 54.4333 53.6222 54.3044 54.0563 54.0607C54.4904 53.817 54.8578 53.4663 55.125 53.0404C55.1012 53.145 55.0756 53.2477 55.0499 53.3523C55.103 53.8584 55.4708 55.6551 57.4381 55.8811V55.8829ZM61.6893 47.4786C61.5631 48.2537 61.2465 48.786 60.7212 49.1165C59.7294 49.7329 58.139 49.5013 57.3466 49.294C57.5393 47.5272 57.6328 45.7507 57.6266 43.9731C58.6716 43.9264 60.3095 44.0572 61.1513 44.9293C61.7003 45.4971 61.876 46.3319 61.6893 47.4786ZM51.8071 46.9688C50.9605 47.4334 50.0102 47.6658 49.0492 47.643H49.0364C47.7371 47.6224 46.9099 47.2414 46.5146 46.9987C46.3707 46.8997 46.1959 46.8586 46.024 46.8832C45.8521 46.9079 45.6953 46.9967 45.5837 47.1323C45.4721 47.268 45.4136 47.4411 45.4196 47.6181C45.4256 47.7952 45.4956 47.9637 45.6161 48.0912L45.6325 48.1099C46.1212 48.6459 46.877 48.9914 47.889 49.1427L47.523 49.9943C47.4824 50.0901 47.4607 50.1931 47.4592 50.2974C47.4577 50.4017 47.4763 50.5053 47.514 50.6023C47.5518 50.6992 47.6078 50.7877 47.6791 50.8625C47.7503 50.9373 47.8353 50.9971 47.9292 51.0383C48.0262 51.0815 48.1309 51.1038 48.2367 51.1037C48.3886 51.1038 48.5373 51.0587 48.6644 50.9737C48.7916 50.8888 48.8916 50.7678 48.9522 50.6256L49.3512 49.6918L50.4272 50.8609C50.5685 51.0144 50.7637 51.1045 50.97 51.1111C51.1762 51.1178 51.3766 51.0405 51.5271 50.8964C51.6776 50.7522 51.7658 50.553 51.7723 50.3425C51.7788 50.132 51.7031 49.9275 51.5619 49.7739L50.8921 49.0437C51.5605 48.9005 52.1713 48.5556 52.6453 48.0539C52.7355 47.956 52.7987 47.8355 52.8283 47.7046C52.9527 47.1219 52.3122 46.6905 51.8071 46.9688ZM37.6462 46.9688C36.799 47.4319 35.8493 47.6648 34.8884 47.6449H34.8755C33.5762 47.6243 32.749 47.2433 32.3537 47.0005C32.2098 46.9015 32.035 46.8604 31.8631 46.8851C31.6912 46.9098 31.5344 46.9985 31.4228 47.1342C31.3112 47.2699 31.2527 47.4429 31.2587 47.62C31.2647 47.797 31.3347 47.9656 31.4552 48.0931L31.4717 48.1118C31.9585 48.6478 32.7161 48.9933 33.7281 49.1464L33.3621 49.9962C33.3215 50.092 33.2999 50.1949 33.2983 50.2993C33.2968 50.4036 33.3154 50.5072 33.3531 50.6041C33.3909 50.7011 33.447 50.7895 33.5182 50.8643C33.5895 50.9392 33.6745 50.9989 33.7684 51.0402C33.8653 51.0834 33.97 51.1056 34.0758 51.1056C34.2278 51.1057 34.3764 51.0605 34.5036 50.9756C34.6307 50.8906 34.7307 50.7696 34.7914 50.6274L35.1903 49.6936L36.2664 50.8628C36.3363 50.9388 36.4202 51 36.5134 51.043C36.6065 51.0859 36.707 51.1097 36.8091 51.113C36.9112 51.1163 37.013 51.099 37.1086 51.0622C37.2042 51.0253 37.2917 50.9696 37.3662 50.8983C37.4407 50.8269 37.5007 50.7412 37.5428 50.6462C37.5849 50.5512 37.6082 50.4486 37.6114 50.3444C37.6146 50.2402 37.5977 50.1363 37.5616 50.0387C37.5255 49.9412 37.4709 49.8518 37.401 49.7758L36.7349 49.0362C37.4033 48.893 38.0141 48.5482 38.488 48.0464C38.5783 47.9486 38.6414 47.8281 38.6711 47.6971C38.7918 47.1219 38.1513 46.6905 37.6499 46.9669L37.6462 46.9688ZM10.8251 42.1653L8.05077 39.3339L5.2746 42.1653L8.05077 44.9984L10.8251 42.1653ZM17.8854 75.0933C17.8417 74.97 17.78 74.8542 17.7024 74.7496C17.6141 74.6307 17.5033 74.5311 17.3767 74.4564C17.2167 74.3627 17.044 74.2935 16.8643 74.251C16.6242 74.1951 16.3784 74.1687 16.1322 74.1725C16.0462 74.1725 15.9492 74.1725 15.8248 74.1856C15.701 74.1954 15.5785 74.2173 15.4588 74.251C15.3228 74.2876 15.1918 74.3416 15.069 74.4116C14.9349 74.4868 14.8167 74.5884 14.7213 74.7104C14.6104 74.8546 14.5255 75.0178 14.4706 75.1923C14.4011 75.4201 14.3684 75.6579 14.3736 75.8964V76.9217C14.3659 77.1831 14.416 77.4428 14.52 77.6818C14.6091 77.8794 14.7434 78.0524 14.9116 78.1861C15.0812 78.3172 15.2746 78.4124 15.4807 78.4662C15.7018 78.5257 15.9293 78.5565 16.1579 78.5577C16.3528 78.5571 16.5474 78.5409 16.7398 78.5092C16.9376 78.4796 17.1312 78.4257 17.3163 78.3485C17.4826 78.2797 17.6328 78.176 17.7573 78.0441C17.8775 77.917 17.9433 77.7464 17.9403 77.5697C17.9437 77.4929 17.928 77.4165 17.8946 77.3475C17.8645 77.2934 17.8218 77.2478 17.7701 77.2149C17.7143 77.1802 17.652 77.158 17.5871 77.1495C17.5189 77.1366 17.4497 77.1303 17.3803 77.1309C17.2625 77.1276 17.1448 77.1414 17.0308 77.1719C16.9594 77.1938 16.8924 77.2286 16.8331 77.2747C16.7885 77.3123 16.7502 77.357 16.7197 77.4073C16.6911 77.4536 16.6586 77.4973 16.6227 77.538C16.5819 77.5828 16.5319 77.6179 16.4763 77.6407C16.3921 77.6725 16.3024 77.6865 16.2128 77.6818C16.1249 77.6854 16.0376 77.6647 15.9602 77.622C15.8933 77.5838 15.8367 77.5293 15.7955 77.4633C15.7537 77.3998 15.7239 77.3288 15.7077 77.2541C15.6906 77.1826 15.682 77.1092 15.6821 77.0356V76.6154H17.3877C17.5084 76.6212 17.6289 76.6002 17.7408 76.5538C17.8135 76.5218 17.8766 76.471 17.9239 76.4062C17.962 76.3511 17.9854 76.2867 17.9916 76.2195C17.9916 76.1578 17.9916 76.1018 17.9916 76.0551V75.7843C17.9916 75.6797 17.9916 75.5658 17.9751 75.4444C17.9593 75.3241 17.9292 75.2062 17.8854 75.0933ZM15.6638 75.958V75.6517C15.6639 75.5948 15.6682 75.538 15.6766 75.4818C15.6838 75.4153 15.7057 75.3515 15.7406 75.295C15.7783 75.235 15.8306 75.1861 15.8925 75.153C15.9787 75.1116 16.0736 75.0923 16.1688 75.097C16.2795 75.0914 16.3901 75.1105 16.4928 75.153C16.5657 75.1874 16.625 75.246 16.6611 75.3193C16.6991 75.4039 16.7209 75.4952 16.7252 75.5882C16.7252 75.6947 16.7362 75.8179 16.7362 75.9617L15.6638 75.958ZM15.0672 25.3081C15.1645 25.1742 15.2549 25.0352 15.338 24.8916L15.4075 24.7684C15.4876 24.625 15.5597 24.4773 15.6235 24.3257C15.7987 23.914 15.8794 23.4668 15.8596 23.0184C15.8448 22.7527 15.7828 22.492 15.6766 22.2489C15.5515 21.9629 15.3794 21.7007 15.1678 21.4739C14.8921 21.1791 14.5744 20.9285 14.2253 20.7306C13.8521 20.5056 13.4463 20.3423 13.023 20.2468C12.6453 20.16 12.2542 20.153 11.8737 20.2263C11.5015 20.3032 11.1504 20.4626 10.8452 20.6932C10.5058 20.9546 10.2234 21.2854 10.0162 21.6644C9.79559 22.0382 9.6535 22.4548 9.59899 22.8877C9.55223 23.274 9.59228 23.6662 9.71611 24.0344C9.84842 24.4092 10.0518 24.7538 10.3145 25.0485C10.6081 25.3763 10.951 25.6543 11.3302 25.8721C11.6709 26.0824 12.0412 26.238 12.4282 26.3334C12.7274 26.408 13.0371 26.4289 13.3433 26.3951C13.5988 26.3661 13.8469 26.2895 14.0753 26.1691C14.4674 25.9637 14.8075 25.6683 15.069 25.3062L15.0672 25.3081ZM13.3341 23.6272C13.2701 23.7412 13.2005 23.7916 13.1291 23.7804C13.0709 23.7737 13.0145 23.7559 12.9626 23.7281L12.2306 23.2948C12.181 23.2627 12.1371 23.2223 12.1007 23.1753C12.0531 23.1211 12.0586 23.0408 12.1171 22.9381C12.1757 22.8354 12.2507 22.7719 12.3221 22.7831C12.3806 22.7912 12.4375 22.8088 12.4905 22.8354L13.2225 23.2705C13.2716 23.3025 13.3155 23.3422 13.3524 23.3882C13.3982 23.448 13.3927 23.532 13.3341 23.631V23.6272ZM13.1273 27.8462C12.9693 27.6871 12.7829 27.5604 12.5783 27.4727C12.3231 27.3582 12.0623 27.2572 11.7969 27.1701L9.67402 26.466C9.45643 26.3924 9.23532 26.3301 9.01154 26.2793C8.80076 26.2306 8.58294 26.2223 8.3692 26.255C8.15636 26.2861 7.95649 26.378 7.79274 26.5202C7.59902 26.707 7.45968 26.9449 7.39013 27.2075C7.27613 27.5096 7.24822 27.8386 7.3096 28.1562C7.36432 28.3933 7.47702 28.6124 7.63718 28.7931C7.79229 28.9599 7.9791 29.0927 8.1862 29.1834C8.36112 29.2651 8.5401 29.3374 8.7224 29.4001L9.12501 29.5327C9.19089 29.5551 9.21285 29.6036 9.18906 29.6783C9.16527 29.753 9.11952 29.7792 9.05364 29.7568L8.65286 29.6242C8.47246 29.5654 8.28921 29.5162 8.10384 29.4766C7.88643 29.4318 7.66244 29.4318 7.44503 29.4766C7.20965 29.5279 6.99028 29.6376 6.80634 29.796C6.57398 30.0165 6.40718 30.2994 6.32504 30.6121C6.22868 30.8679 6.20459 31.1462 6.2555 31.4152C6.30073 31.6185 6.39871 31.8055 6.53916 31.9568C6.69322 32.1139 6.87438 32.2405 7.07353 32.3304C7.28398 32.4237 7.4981 32.5171 7.71587 32.5806L9.83323 33.2754C10.0981 33.3654 10.3675 33.4408 10.6403 33.5014C10.8599 33.5534 11.0874 33.5617 11.3101 33.5256C11.5134 33.4913 11.7009 33.3927 11.8463 33.2436C12.0251 33.0405 12.1548 32.7974 12.2251 32.5339C12.2996 32.3656 12.3364 32.1825 12.3328 31.9979C12.3292 31.8133 12.2853 31.6318 12.2043 31.4667C12.1233 31.3016 12.0073 31.157 11.8646 31.0434C11.7219 30.9298 11.5563 30.8501 11.3796 30.8101L11.1143 30.7205C11.018 30.8526 10.8805 30.9474 10.7245 30.9894C10.555 31.037 10.376 31.037 10.2066 30.9894L10.2743 30.7765C10.3577 30.8075 10.447 30.8184 10.5353 30.8083C10.6235 30.7983 10.7083 30.7676 10.783 30.7186C10.9183 30.6146 11.0166 30.4684 11.063 30.3021C11.1159 30.1428 11.1159 29.9702 11.063 29.8109C11.0297 29.7276 10.9783 29.653 10.9127 29.5929C10.8471 29.5327 10.769 29.4885 10.6842 29.4636L10.7519 29.2507C10.9158 29.3138 11.0604 29.4201 11.171 29.5588C11.2711 29.6837 11.3289 29.8384 11.3357 29.9996L11.5864 30.0836C11.9191 30.2141 12.289 30.2047 12.6149 30.0575C12.7753 29.9674 12.9157 29.8444 13.0272 29.6962C13.1387 29.548 13.2189 29.3779 13.2627 29.1965C13.3564 28.9415 13.3914 28.6681 13.3652 28.3971C13.3432 28.1929 13.2601 28.0006 13.1273 27.8462ZM41.1453 8.26419C41.2428 8.42113 41.3783 8.54978 41.5387 8.63771C42.0154 8.84373 42.5515 8.85443 43.0357 8.6676C43.201 8.58809 43.343 8.46574 43.4475 8.31275C43.5363 8.17475 43.5944 8.01856 43.6177 7.85518C43.6405 7.70869 43.6539 7.56083 43.6579 7.41255L43.6707 6.72153L43.506 6.7234V6.47314L44.5418 6.49555C44.6222 6.49661 44.7023 6.48592 44.7797 6.4638C44.8634 6.44135 44.9418 6.40198 45.0103 6.34801C45.089 6.28422 45.1517 6.20229 45.1933 6.10895C45.2469 5.98422 45.2738 5.84922 45.272 5.71302C45.279 5.57786 45.2572 5.44276 45.208 5.31708C45.1705 5.22377 45.1122 5.14065 45.0378 5.07429C44.9712 5.01837 44.8948 4.97591 44.8127 4.94916C44.7356 4.92417 44.6556 4.91034 44.5748 4.90807L43.0998 4.87819V4.61859L44.8383 4.65408C44.9356 4.64961 45.0321 4.63331 45.1256 4.60552C45.224 4.57736 45.3152 4.52765 45.3928 4.45984C45.4807 4.37695 45.55 4.27565 45.5959 4.16289C45.6639 4.00435 45.7 3.83352 45.7021 3.6605C45.7121 3.49257 45.6891 3.32428 45.6344 3.16558C45.5918 3.05264 45.5263 2.95016 45.4422 2.8649C45.3674 2.79431 45.278 2.74195 45.1805 2.71175C45.088 2.68399 44.993 2.66584 44.8969 2.65759L42.042 2.59783C41.8569 2.58302 41.6718 2.62601 41.5113 2.72109C41.3892 2.79902 41.2874 2.90605 41.2148 3.03298C41.1505 3.14883 41.1066 3.27524 41.0849 3.40651C41.0676 3.50403 41.0566 3.6026 41.0519 3.70159L40.9806 7.35839C40.978 7.50684 40.9847 7.65531 41.0007 7.80289C41.0167 7.96529 41.066 8.12245 41.1453 8.26419ZM11.5553 74.3873C11.5065 74.3237 11.4439 74.2725 11.3723 74.2379C11.2906 74.2004 11.202 74.181 11.1124 74.181C11.0228 74.181 10.9343 74.2004 10.8526 74.2379C10.7827 74.2728 10.7204 74.3217 10.6696 74.3817C10.617 74.4433 10.5726 74.5117 10.5378 74.5853C10.5028 74.662 10.4735 74.7413 10.45 74.8225L9.97049 76.537H9.90095L9.44709 75.3025C9.39311 75.121 9.29488 74.9565 9.16161 74.8243C9.05895 74.7369 8.92932 74.6893 8.7956 74.6899C8.65708 74.6905 8.52265 74.7378 8.41312 74.8243C8.27126 74.9493 8.1714 75.1165 8.12763 75.3025L7.73234 76.537H7.66463L7.11562 74.8225C7.09023 74.7412 7.05903 74.6619 7.02229 74.5853C6.98682 74.5117 6.9419 74.4432 6.8887 74.3817C6.83957 74.3236 6.7807 74.2749 6.71484 74.2379C6.649 74.2 6.57447 74.1807 6.4989 74.1819C6.40044 74.1789 6.3025 74.1974 6.21158 74.236C6.14024 74.2676 6.07745 74.3163 6.02857 74.378C5.98018 74.4387 5.94522 74.5095 5.92609 74.5853C5.90401 74.6649 5.89292 74.7472 5.89315 74.83C5.89331 74.9108 5.9044 74.9912 5.92609 75.069C5.94545 75.1455 5.96866 75.2209 5.99563 75.295L6.96556 77.8798C7.01449 78.0172 7.07575 78.1498 7.14856 78.2757C7.19292 78.3523 7.24988 78.4205 7.31693 78.4774C7.3661 78.5158 7.42403 78.5409 7.48529 78.5503C7.54597 78.5582 7.60711 78.5619 7.66829 78.5615C7.72277 78.5616 7.7772 78.5579 7.83117 78.5503C7.88738 78.5406 7.93992 78.5154 7.98306 78.4774C8.04569 78.4196 8.09828 78.3514 8.13861 78.2757C8.20642 78.1485 8.26455 78.0161 8.31247 77.8798L8.77547 76.3035H8.84318L9.28422 77.8798C9.33242 78.0175 9.39371 78.1501 9.46723 78.2757C9.51273 78.352 9.57023 78.4202 9.63742 78.4774C9.68607 78.5156 9.74334 78.5406 9.80395 78.5503C9.86465 78.5581 9.92578 78.5618 9.98696 78.5615C10.0414 78.5616 10.0959 78.5579 10.1498 78.5503C10.2065 78.5402 10.2595 78.5151 10.3036 78.4774C10.3668 78.4197 10.42 78.3515 10.4609 78.2757C10.5313 78.1485 10.5925 78.0161 10.6439 77.8798L11.5956 75.2969C11.6212 75.2203 11.645 75.1456 11.6669 75.0709C11.6883 74.9963 11.6988 74.9189 11.698 74.8412C11.6985 74.7599 11.6886 74.6789 11.6688 74.6002C11.6462 74.5218 11.6076 74.4492 11.5553 74.3873ZM46.6445 8.79833C46.7838 8.92313 46.9566 9.00249 47.1405 9.02618L49.439 9.45013C49.5343 9.4686 49.6317 9.473 49.7282 9.4632C49.8293 9.45341 49.927 9.4202 50.0137 9.36609C50.113 9.29882 50.1966 9.21022 50.2589 9.10649C50.3441 8.9604 50.4 8.79854 50.4236 8.63024C50.4592 8.46442 50.4624 8.29304 50.4327 8.12598C50.4104 8.00647 50.3623 7.89354 50.2918 7.79542C50.229 7.71264 50.149 7.64504 50.0576 7.59745C49.9717 7.55177 49.8808 7.51667 49.7867 7.49286L48.6118 7.28369L48.6558 7.02782L49.1572 7.11934L49.6019 4.61486C49.627 4.4685 49.6429 4.32066 49.6495 4.17223C49.6575 4.00693 49.63 3.84184 49.569 3.68852C49.4985 3.51798 49.3848 3.3697 49.2395 3.25896C48.8042 2.97901 48.2795 2.88196 47.7755 2.98816C47.6056 3.04021 47.4535 3.13985 47.3363 3.27577C47.2348 3.40111 47.1617 3.54779 47.1222 3.70533C47.0819 3.86594 47.0508 4.00975 47.027 4.13861L46.3865 7.7562C46.3718 7.8539 46.3633 7.95246 46.3609 8.05128C46.3577 8.18314 46.3769 8.31458 46.4176 8.43975C46.4646 8.5758 46.5424 8.69864 46.6445 8.79833ZM62.4177 14.7915C62.3286 14.9299 62.271 15.0869 62.2493 15.251C62.2264 15.4343 62.2517 15.6206 62.3225 15.7907C62.4297 16.0279 62.5917 16.2349 62.7947 16.3939C62.9844 16.5757 63.2141 16.7083 63.4645 16.7805C63.6407 16.8287 63.8263 16.8287 64.0025 16.7805C64.1574 16.7309 64.2998 16.6474 64.4198 16.5359C64.5272 16.4358 64.6292 16.3298 64.7254 16.2184L66.9306 13.5496C67.0249 13.4365 67.1112 13.3167 67.1886 13.191C67.277 13.0522 67.3344 12.8954 67.357 12.7315C67.379 12.5482 67.3537 12.3622 67.2838 12.1918C67.176 11.955 67.0141 11.7482 66.8116 11.5886C66.6231 11.4089 66.3954 11.2776 66.1473 11.2057C65.9703 11.1606 65.7847 11.1638 65.6093 11.215C65.4542 11.2641 65.3117 11.3477 65.192 11.4597C65.0836 11.5594 64.9815 11.6661 64.8864 11.7791L62.6757 14.4329C62.5822 14.5467 62.496 14.6665 62.4177 14.7915ZM56.8397 11.0918C56.7741 11.2434 56.7416 11.4079 56.7446 11.5736C56.7508 11.7582 56.8045 11.9379 56.9001 12.0947C57.0417 12.3122 57.2333 12.4911 57.4583 12.6157C57.6735 12.7645 57.921 12.8575 58.1793 12.8866C58.3608 12.904 58.5435 12.8711 58.7082 12.7913C58.8539 12.7187 58.982 12.6141 59.0833 12.485C59.1749 12.3658 59.2592 12.2411 59.3359 12.1115L59.3579 12.0741L59.4183 11.2505L59.6452 11.2655L59.5116 12.9034C59.5062 13.0097 59.5062 13.1163 59.5116 13.2227C59.5183 13.3415 59.5373 13.4592 59.5683 13.5738C59.6018 13.6943 59.653 13.8089 59.7202 13.9137C59.7943 14.0292 59.894 14.1251 60.0112 14.1939C60.117 14.2589 60.2317 14.3074 60.3516 14.3377C60.5022 14.3776 60.6571 14.3983 60.8127 14.3993C61.082 14.4249 61.3532 14.3786 61.5997 14.2649C61.7705 14.177 61.9152 14.0442 62.0187 13.8801C62.1024 13.7417 62.1595 13.5883 62.1871 13.4282C62.2111 13.2869 62.224 13.1439 62.2255 13.0005L62.1725 12.1993L62.3463 12.1825L62.3921 12.6998C62.5753 12.6099 62.7434 12.4908 62.8898 12.3468C63.0669 12.173 63.2197 11.975 63.3437 11.7585C63.778 11.0339 63.8829 10.3709 63.6585 9.76949C63.434 9.16812 62.9386 8.62651 62.1725 8.14466C61.8272 7.92755 61.4648 7.74014 61.0891 7.58437C60.7673 7.44494 60.4211 7.37377 60.0716 7.3752C59.7388 7.38475 59.4148 7.48677 59.1346 7.67029C58.7876 7.91105 58.5 8.2307 58.2946 8.6041L57.0483 10.6977C56.9709 10.8245 56.9012 10.9561 56.8397 11.0918ZM60.5382 10.1281C60.5486 10.1017 60.5608 10.0761 60.5748 10.0515L60.7084 9.82926C60.7391 9.78119 60.7789 9.7399 60.8256 9.70786C60.8805 9.66864 60.9628 9.67611 61.0744 9.73214C61.1208 9.75826 61.1604 9.79541 61.1897 9.84046C61.2094 9.87195 61.2213 9.90784 61.2245 9.94505C61.2265 9.97768 61.2209 10.0103 61.208 10.0403C61.1985 10.0674 61.1869 10.0936 61.1733 10.1187L61.0397 10.341C61.0086 10.3889 60.9681 10.4296 60.9207 10.4605C60.8676 10.4997 60.7871 10.4941 60.681 10.4418C60.632 10.4149 60.59 10.3765 60.5584 10.3298C60.5389 10.2975 60.527 10.2611 60.5236 10.2233C60.5222 10.1909 60.5272 10.1585 60.5382 10.1281ZM24.1204 9.01684L25.7546 12.0816C25.8251 12.2109 25.9033 12.3357 25.9889 12.4551C26.0859 12.5897 26.2109 12.7006 26.3549 12.7801C26.515 12.8677 26.6948 12.9108 26.8764 12.9052C27.127 12.8872 27.3698 12.8084 27.5847 12.6755C27.8193 12.5605 28.0234 12.3895 28.1794 12.1769C28.2842 12.0247 28.3474 11.8468 28.3624 11.6614C28.3735 11.496 28.3485 11.3302 28.2892 11.1758C28.2363 11.0377 28.1752 10.9029 28.1062 10.7724L26.4866 7.70764C26.4161 7.57833 26.3379 7.45358 26.2524 7.33411C26.1554 7.19908 26.0304 7.0875 25.8864 7.00728C25.7258 6.92115 25.5462 6.8787 25.3648 6.88402C25.1095 6.89969 24.8619 6.97922 24.6438 7.1156C24.4091 7.23056 24.2051 7.40162 24.049 7.61426C23.9439 7.76629 23.8807 7.94429 23.866 8.12972C23.8549 8.29511 23.8799 8.46096 23.9392 8.6153C23.9911 8.75296 24.0517 8.88708 24.1204 9.01684ZM34.4674 4.80349L35.1006 8.23057C35.1292 8.37595 35.1665 8.5194 35.2123 8.66013C35.2614 8.81725 35.3439 8.96137 35.4538 9.08221C35.5802 9.21551 35.7386 9.31274 35.9132 9.36422C36.1614 9.42702 36.4208 9.42702 36.669 9.36422C36.9266 9.3283 37.1721 9.22965 37.3845 9.0766C37.5306 8.9647 37.6449 8.81516 37.7158 8.64332C37.7758 8.48981 37.8015 8.32453 37.7908 8.1596C37.7837 8.01113 37.7672 7.86328 37.7414 7.71698L37.1009 4.29549C37.073 4.15014 37.0363 4.00668 36.9911 3.86594C36.9406 3.70807 36.8569 3.56338 36.7458 3.44199C36.6195 3.30998 36.4619 3.21349 36.2883 3.16185C36.0402 3.09897 35.7807 3.09897 35.5325 3.16185C35.2747 3.1984 35.0293 3.29768 34.817 3.45133C34.6705 3.56285 34.5561 3.7125 34.4857 3.88462C34.426 4.03824 34.3998 4.20331 34.4089 4.36833C34.4202 4.51441 34.4397 4.65971 34.4674 4.80349ZM27.8043 7.06704L28.9023 10.1916C28.9549 10.3408 29.016 10.4867 29.0853 10.6286C29.1614 10.7846 29.2686 10.9226 29.4001 11.0339C29.5456 11.1527 29.7191 11.2306 29.9033 11.2599C30.1551 11.2911 30.4105 11.2551 30.6445 11.1553C30.983 11.057 31.2822 10.8516 31.4991 10.5688C31.575 10.4717 31.6259 10.3568 31.6474 10.2345C31.6688 10.1122 31.66 9.98641 31.6217 9.86848C31.5925 9.79156 31.5518 9.71973 31.5009 9.65557L30.6793 8.87864L30.8348 8.70868L31.6766 9.52483C31.8481 9.68892 32.0317 9.83939 32.2256 9.97493C32.3615 10.0697 32.51 10.1439 32.6667 10.1953C32.793 10.2338 32.9257 10.2452 33.0565 10.2289C33.1908 10.2097 33.3227 10.1759 33.4499 10.1281C33.6949 10.054 33.9169 9.91626 34.0941 9.7284C34.2166 9.58582 34.2994 9.41233 34.3339 9.22601C34.3626 9.05436 34.3583 8.87863 34.321 8.70868C34.2874 8.5565 34.2459 8.40626 34.1966 8.25859L33.0986 5.13406C33.0459 4.9849 32.9848 4.83898 32.9156 4.69703C32.8391 4.5423 32.7319 4.40554 32.6008 4.29549C32.4557 4.17777 32.2827 4.10112 32.0994 4.07325C31.8503 4.04732 31.5989 4.08453 31.3673 4.18157C31.0299 4.28126 30.7308 4.48475 30.5109 4.76427C30.4353 4.86082 30.3844 4.975 30.3627 5.09658C30.3409 5.21815 30.3491 5.34333 30.3864 5.46089C30.4157 5.53781 30.4564 5.60963 30.5072 5.6738L31.2283 6.40217L31.0599 6.55905L30.1687 5.66446C30.0324 5.5243 29.8821 5.39911 29.7203 5.29094C29.5999 5.2113 29.4676 5.15202 29.3287 5.11538C29.2087 5.0868 29.0846 5.0811 28.9627 5.09857C28.8295 5.12208 28.6985 5.15706 28.571 5.20316C28.3195 5.27429 28.0909 5.4122 27.9086 5.60283C27.7871 5.74418 27.7038 5.91541 27.667 6.09962C27.6374 6.26995 27.6417 6.44464 27.6798 6.61321C27.7113 6.76716 27.7529 6.91877 27.8043 7.06704ZM51.6461 9.62942C51.7879 9.81791 51.9514 9.98844 52.1329 10.1374C52.2953 10.2684 52.4707 10.3817 52.6562 10.4755C52.8023 10.5491 52.952 10.6152 53.1046 10.6734L53.2382 10.722C53.3906 10.7765 53.5458 10.8227 53.703 10.8602C54.1341 10.9616 54.5822 10.9616 55.0133 10.8602C55.2659 10.7988 55.5058 10.6919 55.7216 10.5446C55.9752 10.3669 56.1978 10.1473 56.3804 9.89462C56.6154 9.56767 56.8006 9.20622 56.9294 8.82261C57.0802 8.40806 57.1667 7.972 57.1856 7.53021C57.2033 7.13489 57.141 6.74009 57.0026 6.37042C56.8631 6.01052 56.6483 5.68608 56.3731 5.4198C56.0626 5.12504 55.6964 4.89815 55.297 4.75306H55.2878C54.8883 4.59743 54.4614 4.52811 54.0343 4.54949C53.6533 4.57096 53.2821 4.68083 52.949 4.87072C52.6098 5.06785 52.3129 5.33272 52.0761 5.64952C51.8119 6.00224 51.6043 6.39562 51.4612 6.81492C51.3136 7.19223 51.2229 7.5902 51.1922 7.99525C51.1742 8.3102 51.2089 8.62598 51.2947 8.92906C51.3693 9.18231 51.4883 9.41961 51.6461 9.62942ZM53.8018 8.08303L54.091 7.26314C54.113 7.20787 54.144 7.15674 54.1825 7.11187C54.2264 7.05584 54.3033 7.0465 54.4149 7.08759C54.5265 7.12868 54.5979 7.19217 54.5979 7.26501C54.6028 7.32814 54.5954 7.39163 54.576 7.45177L54.2868 8.27166C54.2655 8.3269 54.2352 8.37805 54.1971 8.42294C54.1514 8.47897 54.0745 8.4883 53.9647 8.44722C53.8549 8.40613 53.7817 8.34263 53.7817 8.26045C53.7775 8.20055 53.7844 8.14037 53.8018 8.08303ZM73.1857 74.5181C73.0651 74.3996 72.92 74.3103 72.7611 74.2566C72.6088 74.2046 72.4495 74.1775 72.2889 74.1763C72.1637 74.1746 72.0393 74.1981 71.9229 74.2454C71.7285 74.3241 71.5664 74.4685 71.4636 74.6544C71.4175 74.7355 71.3813 74.8221 71.3556 74.9121C71.3548 74.839 71.3493 74.766 71.3391 74.6936C71.3271 74.6084 71.2985 74.5265 71.255 74.4527C71.2048 74.3744 71.1362 74.3102 71.0555 74.2659C70.9429 74.2057 70.8165 74.1773 70.6895 74.1838C70.562 74.1774 70.4354 74.2071 70.3235 74.2697C70.2392 74.3239 70.1718 74.4017 70.1295 74.4938C70.0838 74.5922 70.0577 74.6988 70.0526 74.8075C70.0526 74.9271 70.038 75.0485 70.038 75.1811V77.5716C70.0379 77.6964 70.0447 77.8211 70.0581 77.9451C70.0685 78.0561 70.0982 78.1643 70.146 78.2645C70.1908 78.3566 70.2591 78.4346 70.3436 78.4905C70.4493 78.5517 70.5699 78.5808 70.6913 78.5745C70.8144 78.5808 70.9368 78.5517 71.0445 78.4905C71.1301 78.4348 71.1996 78.3568 71.2458 78.2645C71.2954 78.1646 71.327 78.0564 71.3391 77.9451C71.3526 77.8211 71.3593 77.6964 71.3593 77.5716V76.7405C71.3593 76.5257 71.3593 76.3278 71.3812 76.1429C71.3916 75.979 71.4198 75.8167 71.4654 75.6592C71.4964 75.5391 71.554 75.4279 71.6338 75.3342C71.6699 75.2949 71.714 75.264 71.763 75.2437C71.8119 75.2233 71.8646 75.2141 71.9174 75.2165C71.989 75.2128 72.0599 75.2317 72.1206 75.2707C72.1709 75.3076 72.2102 75.358 72.234 75.4164C72.2629 75.4818 72.2796 75.5521 72.2834 75.6237C72.2908 75.7021 72.2944 75.7824 72.2944 75.8646V77.5716C72.2944 77.6964 72.3011 77.8211 72.3146 77.9451C72.3249 78.0561 72.3547 78.1643 72.4024 78.2645C72.4472 78.3566 72.5155 78.4346 72.6 78.4905C72.7058 78.5517 72.8264 78.5808 72.9478 78.5745C73.0709 78.5808 73.1932 78.5517 73.3009 78.4905C73.3866 78.4348 73.456 78.3568 73.5023 78.2645C73.552 78.1648 73.583 78.0565 73.5938 77.9451C73.6088 77.8212 73.6161 77.6965 73.6157 77.5716V75.7507C73.6229 75.5 73.5832 75.2503 73.4986 75.0148C73.4311 74.8279 73.3242 74.6584 73.1857 74.5181ZM70.5907 24.6526C70.659 24.6099 70.7207 24.5571 70.7737 24.4957L71.3867 23.5395L71.5697 23.6665L70.9146 24.6563C70.7852 24.8545 70.6708 25.0624 70.5724 25.2782C70.503 25.431 70.4562 25.5933 70.4333 25.7601C70.4164 25.8934 70.427 26.0289 70.4644 26.1579C70.5067 26.2875 70.5613 26.4125 70.6273 26.5314C70.7408 26.7653 70.9117 26.9654 71.1232 27.1122C71.2806 27.2118 71.4614 27.266 71.6466 27.2691C71.818 27.2696 71.9879 27.2353 72.1462 27.1683C72.288 27.1104 72.4261 27.0437 72.5598 26.9684L75.3945 25.3473C75.5307 25.27 75.6615 25.1832 75.7862 25.0877C75.9242 24.9858 76.0395 24.8554 76.1247 24.7049C76.2159 24.5399 76.2609 24.3525 76.2546 24.1632C76.2404 23.9048 76.1623 23.6543 76.0277 23.4349C75.8754 23.1122 75.6286 22.8459 75.3213 22.6729C75.2147 22.6144 75.0956 22.5837 74.9745 22.5837C74.8535 22.5837 74.7343 22.6144 74.6277 22.6729C74.5591 22.7151 74.4973 22.7681 74.4447 22.8298L73.8628 23.6777L73.6798 23.5339L74.3953 22.488C74.508 22.3276 74.6037 22.1554 74.6808 21.9744C74.7385 21.8399 74.7744 21.6967 74.7869 21.5504C74.7946 21.424 74.7785 21.2972 74.7394 21.1769C74.6953 21.0474 74.6396 20.9224 74.5728 20.8034C74.4598 20.5697 74.2896 20.3696 74.0787 20.2226C73.922 20.1225 73.7419 20.067 73.5572 20.062C73.3876 20.0608 73.2196 20.0945 73.063 20.1609C72.9243 20.2175 72.7892 20.283 72.6586 20.357L69.822 21.9781C69.6861 22.0559 69.5553 22.1426 69.4304 22.2377C69.2938 22.3374 69.1786 22.4645 69.0919 22.6113C69.0019 22.7775 68.9559 22.9648 68.9583 23.1547C68.9705 23.4138 69.0481 23.6654 69.1834 23.885C69.3339 24.209 69.5821 24.4753 69.8916 24.6451C69.9986 24.7048 70.1183 24.7367 70.2402 24.738C70.3621 24.7393 70.4825 24.71 70.5907 24.6526ZM70.1588 20.5438L70.3985 20.3402C70.6108 20.1535 70.8176 19.9667 71.0152 19.7575C71.2038 19.5658 71.3741 19.3563 71.524 19.1319C71.6641 18.9219 71.775 18.6931 71.8534 18.4521C71.9309 18.2115 71.9583 17.957 71.9339 17.705C71.9041 17.4052 71.821 17.1134 71.6887 16.844C71.5155 16.4937 71.2983 16.1678 71.0427 15.8747L70.9219 15.7328C70.678 15.4329 70.3969 15.1667 70.0856 14.9409C69.8473 14.7693 69.5808 14.6428 69.2987 14.5674C69.0547 14.5032 68.8003 14.4923 68.552 14.5357C68.3071 14.5809 68.0695 14.6601 67.8456 14.771C67.6056 14.8885 67.3776 15.0299 67.1648 15.1931C66.9397 15.3611 66.722 15.5404 66.5097 15.7272L66.2754 15.9382L65.4025 16.7245C65.2951 16.8215 65.1942 16.9257 65.1005 17.0364C64.9912 17.1592 64.9099 17.3053 64.8626 17.4641C64.8146 17.6438 64.8146 17.8334 64.8626 18.0132C64.9351 18.2683 65.0662 18.502 65.2451 18.6949C65.4021 18.9009 65.6064 19.0645 65.8399 19.1711C66.0073 19.2429 66.1905 19.268 66.3706 19.2439C66.5307 19.2193 66.6837 19.1594 66.8189 19.0684C66.9409 18.9877 67.0576 18.8991 67.1685 18.8032L67.3149 18.6743C67.2562 18.5194 67.2466 18.3495 67.2874 18.1887C67.3332 18.0114 67.4271 17.8509 67.5583 17.7256L67.7029 17.8955C67.6344 17.9512 67.5788 18.0216 67.5399 18.1016C67.501 18.1816 67.4798 18.2694 67.4778 18.3587C67.4847 18.508 67.5403 18.6507 67.6358 18.764C67.7313 18.8774 67.8612 18.9549 68.0048 18.9843C68.0917 18.9954 68.1798 18.987 68.2632 18.96C68.3466 18.9329 68.4233 18.8877 68.4879 18.8275L68.6307 18.9974C68.49 19.1112 68.3206 19.1818 68.1421 19.201C67.9801 19.2197 67.8166 19.185 67.6754 19.102L67.529 19.2309C67.42 19.3292 67.3167 19.434 67.2197 19.5446C67.1115 19.6673 67.031 19.8126 66.9836 19.9704C66.9366 20.149 66.9366 20.3372 66.9836 20.5158C67.0506 20.7668 67.1762 20.9975 67.3497 21.1881C67.5095 21.3971 67.7159 21.5642 67.9517 21.6756C68.1198 21.7477 68.3034 21.7735 68.4843 21.7503C68.6451 21.726 68.7988 21.6661 68.9345 21.5747C69.0561 21.4936 69.1728 21.405 69.284 21.3095L70.1588 20.5438ZM68.9326 17.9291C68.8722 17.9515 68.7972 17.9291 68.713 17.8395C68.6289 17.7498 68.6032 17.6527 68.638 17.593C68.6634 17.5386 68.6981 17.4892 68.7405 17.4473L69.2145 17.0327C69.2581 16.9966 69.3077 16.9688 69.3609 16.9505C69.4213 16.9281 69.4945 16.9505 69.5805 17.042C69.6665 17.1335 69.6903 17.2288 69.6555 17.2885C69.6307 17.3432 69.5952 17.3922 69.5512 17.4323L69.079 17.8488C69.0357 17.8849 68.986 17.9122 68.9326 17.9291ZM66.592 74.6675C66.4896 74.5466 66.3653 74.4471 66.226 74.3743C66.1007 74.3078 65.9688 74.2552 65.8325 74.2174C65.7129 74.1834 65.5903 74.1615 65.4665 74.152C65.3531 74.1427 65.2616 74.1389 65.1975 74.1389C65.1335 74.1389 65.0401 74.1389 64.9248 74.152C64.798 74.1615 64.6724 74.1834 64.5497 74.2174C64.4082 74.2554 64.2709 74.308 64.1398 74.3743C63.9973 74.4472 63.8695 74.5466 63.7628 74.6675C63.642 74.8045 63.5477 74.9635 63.4846 75.1362C63.4083 75.3555 63.3723 75.5872 63.3785 75.8198V76.9049C63.3723 77.1375 63.4083 77.3692 63.4846 77.5884C63.5477 77.7606 63.6421 77.919 63.7628 78.0553C63.8685 78.1772 63.9966 78.2768 64.1398 78.3485C64.2705 78.4162 64.4079 78.4694 64.5497 78.5073C64.6726 78.5404 64.7981 78.5622 64.9248 78.5727C65.0401 78.582 65.1316 78.5857 65.1975 78.5857C65.2634 78.5857 65.3531 78.5857 65.4665 78.5727C65.5902 78.5622 65.7127 78.5404 65.8325 78.5073C65.9691 78.4696 66.1011 78.4163 66.226 78.3485C66.3661 78.2769 66.4906 78.1772 66.592 78.0553C66.7073 77.9176 66.7967 77.7593 66.8555 77.5884C66.9296 77.3687 66.9644 77.1372 66.958 76.9049V75.8254C66.9644 75.5931 66.9296 75.3616 66.8555 75.1418C66.7965 74.971 66.7072 74.8128 66.592 74.6749V74.6675ZM65.677 77.2112C65.673 77.2895 65.6524 77.3659 65.6166 77.4353C65.5817 77.4977 65.5328 77.5508 65.4739 77.5903C65.3903 77.6401 65.2941 77.6635 65.1975 77.6575C65.0962 77.6638 64.9953 77.6404 64.9065 77.5903C64.8461 77.5509 64.7954 77.4979 64.7583 77.4353C64.7206 77.3668 64.7004 77.2897 64.6997 77.2112V75.6386C64.7009 75.5548 64.721 75.4724 64.7583 75.3977C64.796 75.333 64.8464 75.277 64.9065 75.2334C64.9929 75.1764 65.095 75.1496 65.1975 75.1568C65.2955 75.1498 65.3928 75.1768 65.4739 75.2334C65.5324 75.2771 65.5811 75.3331 65.6166 75.3977C65.6521 75.4732 65.6726 75.5551 65.677 75.6386V77.2112ZM79.6677 42.1578L76.8915 39.3265L74.1171 42.1578L76.8915 44.991L79.6677 42.1578ZM79.75 76.7704C79.6741 76.6297 79.5751 76.5033 79.4572 76.3969C79.3349 76.288 79.2011 76.1934 79.0583 76.1149C78.9119 76.0346 78.7691 75.9599 78.6282 75.8889C78.5367 75.8459 78.4452 75.8011 78.3647 75.7582C78.2873 75.7186 78.2127 75.6737 78.1414 75.6237C78.0835 75.5852 78.0322 75.5373 77.9895 75.4818C77.9541 75.436 77.9347 75.3794 77.9346 75.3211C77.9319 75.2664 77.9426 75.2118 77.9657 75.1624C77.9862 75.1229 78.0157 75.0889 78.0517 75.0634C78.0886 75.0387 78.1295 75.021 78.1725 75.0111C78.2183 75.0012 78.2649 74.9962 78.3116 74.9962C78.4175 74.9932 78.5218 75.0239 78.6099 75.0839C78.6498 75.1127 78.6823 75.1508 78.7049 75.1949C78.7275 75.2391 78.7395 75.2881 78.7398 75.3379C78.7408 75.3823 78.7521 75.4259 78.7728 75.4649C78.7952 75.5101 78.8263 75.5501 78.8643 75.5826C78.9071 75.6202 78.9561 75.6499 79.0089 75.6704C79.0669 75.6947 79.1291 75.7068 79.1919 75.7059C79.2691 75.7027 79.3462 75.6946 79.4224 75.6816C79.4925 75.6699 79.56 75.6459 79.6219 75.6106C79.6792 75.5786 79.7276 75.5323 79.7628 75.4762C79.8016 75.411 79.8207 75.3356 79.8177 75.2595C79.8177 75.2072 79.8177 75.1418 79.8068 75.0727C79.7876 74.8951 79.7204 74.7263 79.6128 74.5853C79.5431 74.4961 79.4574 74.4213 79.3602 74.3649C79.2347 74.2914 79.099 74.2379 78.9576 74.2062C78.7643 74.1616 78.5665 74.1409 78.3683 74.1445H78.2988C78.0679 74.1471 77.8377 74.1702 77.6107 74.2136C77.4285 74.2465 77.2543 74.3157 77.0983 74.4172C76.9601 74.5095 76.8493 74.6387 76.778 74.7907C76.6998 74.9704 76.6623 75.1657 76.6682 75.3622C76.6657 75.5068 76.6997 75.6496 76.7671 75.7768C76.834 75.8996 76.9213 76.0095 77.0251 76.1018C77.134 76.2012 77.2523 76.2895 77.3783 76.3651C77.5082 76.4436 77.6382 76.5183 77.7663 76.5892L78.07 76.7611C78.1619 76.8137 78.25 76.873 78.3336 76.9385C78.4045 76.9948 78.4663 77.0623 78.5166 77.1383C78.5624 77.2057 78.5867 77.286 78.5861 77.368C78.5873 77.4125 78.5786 77.4567 78.5605 77.4971C78.5424 77.5376 78.5155 77.5733 78.4818 77.6015C78.4044 77.6639 78.3076 77.6957 78.2091 77.6911C78.1534 77.691 78.0978 77.6873 78.0426 77.6799C77.9883 77.6739 77.9352 77.6594 77.8852 77.637C77.841 77.6174 77.8017 77.5881 77.7699 77.5511C77.739 77.5111 77.7217 77.4619 77.7205 77.411C77.7232 77.3417 77.7116 77.2727 77.6863 77.2083C77.6611 77.1439 77.6229 77.0857 77.5741 77.0375C77.4747 76.9562 77.3499 76.9144 77.2227 76.9198C77.0667 76.9073 76.9113 76.9509 76.7835 77.0431C76.7325 77.0919 76.693 77.1519 76.668 77.2185C76.6429 77.2851 76.633 77.3567 76.6389 77.4278C76.6401 77.5081 76.6487 77.5882 76.6646 77.6669C76.6839 77.7571 76.7147 77.8444 76.7561 77.9265C76.804 78.0196 76.8657 78.1047 76.9391 78.1786C77.0236 78.2655 77.1212 78.338 77.2282 78.3934C77.3618 78.4611 77.5032 78.5113 77.6491 78.5428C77.8379 78.5844 78.0307 78.6038 78.2238 78.6007C78.3425 78.6005 78.4611 78.5924 78.5788 78.5764C78.7027 78.5598 78.8251 78.5329 78.9448 78.4961C79.0657 78.4578 79.1823 78.4065 79.2925 78.3429C79.4014 78.2789 79.4991 78.1969 79.5817 78.1002C79.6682 77.9969 79.7357 77.8786 79.7811 77.7509C79.8342 77.6026 79.8596 77.4455 79.8562 77.2877C79.8647 77.1117 79.8295 76.9363 79.7537 76.7779L79.75 76.7704ZM74.6515 31.9475C74.6911 31.8512 74.7104 31.7475 74.7083 31.6431C74.7048 31.5441 74.6907 31.4457 74.6662 31.3499L74.1062 29.669L74.3477 29.5868L74.8217 31.0118C74.8491 31.0891 74.886 31.1625 74.9315 31.2303C74.9795 31.3046 75.0417 31.3682 75.1145 31.4171C75.1982 31.4699 75.2928 31.5019 75.3909 31.5105C75.5228 31.52 75.6551 31.5003 75.7788 31.4526C75.9061 31.4155 76.0245 31.3519 76.1265 31.2658C76.2006 31.1973 76.2582 31.1123 76.2949 31.0174C76.3239 30.9342 76.3369 30.8461 76.3333 30.7578C76.3304 30.6759 76.3162 30.5948 76.2912 30.5169L75.9655 29.5084L76.1979 29.4281L76.6133 30.6756C76.6445 30.7693 76.6824 30.8604 76.7268 30.9483C76.7722 31.0392 76.8421 31.1149 76.9281 31.1668C77.0343 31.226 77.153 31.258 77.274 31.2602C77.4566 31.261 77.6377 31.2275 77.8083 31.1612C77.9658 31.1131 78.112 31.0331 78.2384 30.9259C78.3277 30.847 78.3995 30.7496 78.4489 30.6402C78.4885 30.5446 78.5072 30.4413 78.5038 30.3376C78.5013 30.2385 78.4872 30.14 78.4617 30.0444L77.5467 27.2766C77.4966 27.0948 77.3946 26.9322 77.2538 26.8097C77.1415 26.7159 77.0082 26.6518 76.8659 26.6229C76.7387 26.6005 76.6087 26.6005 76.4816 26.6229C76.3855 26.6399 76.2908 26.6636 76.1979 26.6939L72.6348 27.9265C72.5441 27.9615 72.4555 28.0021 72.3695 28.0479C72.2554 28.1082 72.1526 28.1885 72.0657 28.2851C71.9688 28.3942 71.8991 28.5255 71.8625 28.668C71.8216 28.8551 71.8376 29.0506 71.9083 29.2282L72.8233 31.9961C72.8596 32.0874 72.9057 32.1745 72.9606 32.2557C73.0177 32.3412 73.0935 32.4122 73.182 32.463C73.2866 32.5199 73.4022 32.5524 73.5206 32.5582C73.6854 32.5642 73.8497 32.5362 74.0037 32.476C74.1624 32.4271 74.3103 32.3472 74.4392 32.2407C74.53 32.1641 74.6036 32.0686 74.6552 31.9606L74.6515 31.9475ZM59.5098 72.4301C59.3357 72.4191 59.164 72.4751 59.0285 72.5869C58.9182 72.7313 58.8583 72.9091 58.8583 73.0921C58.8583 73.2752 58.9182 73.453 59.0285 73.5973C59.1673 73.7027 59.3358 73.7596 59.5088 73.7596C59.6819 73.7596 59.8503 73.7027 59.9892 73.5973C60.0507 73.5305 60.0978 73.4513 60.1274 73.3647C60.1571 73.2782 60.1686 73.1863 60.1612 73.0949C60.1695 73.0035 60.1595 72.9114 60.1318 72.8241C60.1041 72.7368 60.0593 72.6561 60.0002 72.5869C59.8629 72.4716 59.687 72.4153 59.5098 72.4301ZM24.1515 74.5293C24.0309 74.4108 23.8858 74.3215 23.7269 74.2678C23.5746 74.2163 23.4152 74.1899 23.2548 74.1894C23.1298 74.1869 23.0055 74.2091 22.8888 74.2547C22.79 74.2956 22.6989 74.3537 22.6197 74.4265C22.5463 74.494 22.4844 74.5735 22.4367 74.6619C22.3923 74.7458 22.3561 74.834 22.3288 74.9252V73.4311C22.3287 73.3063 22.322 73.1816 22.3086 73.0576C22.2984 72.9468 22.2693 72.8387 22.2226 72.7382C22.1787 72.6459 22.1094 72.5687 22.0232 72.516C21.9153 72.4533 21.7921 72.4235 21.6681 72.4301C21.5477 72.4239 21.4281 72.4537 21.3241 72.516C21.2403 72.5701 21.1731 72.6471 21.1301 72.7382C21.0825 72.8384 21.0534 72.9467 21.0441 73.0576C21.0308 73.1816 21.024 73.3063 21.0239 73.4311V77.5735C21.0239 77.6949 21.0239 77.8163 21.0368 77.9339C21.0439 78.0436 21.0699 78.151 21.1136 78.2514C21.1569 78.3434 21.224 78.4215 21.3076 78.4774C21.4192 78.5406 21.5462 78.5698 21.6736 78.5615C21.8004 78.5684 21.9268 78.5407 22.0396 78.4811C22.1219 78.4348 22.1903 78.3663 22.2373 78.2832C22.2802 78.2089 22.3071 78.1261 22.316 78.0404C22.326 77.9692 22.3315 77.8975 22.3324 77.8256C22.3601 77.9155 22.3963 78.0024 22.4404 78.0852C22.4881 78.1735 22.5499 78.2531 22.6234 78.3205C22.7024 78.394 22.7935 78.4528 22.8924 78.4942C23.0088 78.5415 23.1332 78.5643 23.2584 78.5615C23.4189 78.561 23.5783 78.5345 23.7306 78.483C23.89 78.4295 24.0352 78.3394 24.1551 78.2197C24.2894 78.0845 24.3936 77.9214 24.4608 77.7416C24.5457 77.5088 24.5861 77.2615 24.5797 77.0132V75.7432C24.5864 75.493 24.546 75.2439 24.4608 75.0092C24.393 74.8283 24.2874 74.6645 24.1515 74.5293ZM23.2548 76.8955C23.2548 76.974 23.2548 77.0506 23.2548 77.1271C23.2509 77.1979 23.2348 77.2675 23.2072 77.3326C23.1843 77.3915 23.1448 77.4422 23.0937 77.4782C23.0324 77.519 22.96 77.5386 22.8869 77.5343C22.7904 77.5384 22.6951 77.5116 22.6143 77.4577C22.5381 77.3965 22.4809 77.3141 22.4496 77.2205C22.4047 77.0909 22.3764 76.956 22.3654 76.819C22.3489 76.6565 22.3397 76.4622 22.3379 76.2381C22.3387 76.1331 22.3467 76.0283 22.3617 75.9244C22.3755 75.8099 22.4032 75.6976 22.4441 75.5901C22.4815 75.4901 22.5388 75.3992 22.6124 75.323C22.6483 75.2865 22.6913 75.2581 22.7385 75.2394C22.7858 75.2208 22.8363 75.2124 22.8869 75.2147C22.9598 75.2098 23.0322 75.2287 23.0937 75.2688C23.1439 75.3043 23.1832 75.3535 23.2072 75.4108C23.235 75.4738 23.2511 75.5416 23.2548 75.6106C23.2548 75.6853 23.2548 75.76 23.2548 75.8347V76.8955ZM31.0672 76.8955C31.0166 76.8399 30.9539 76.797 30.8842 76.7704C30.7712 76.7312 30.6521 76.7135 30.5329 76.7181C30.403 76.7156 30.2733 76.7294 30.1467 76.7592C30.0681 76.7785 29.9945 76.8148 29.9308 76.8657C29.8873 76.8997 29.8553 76.9467 29.8393 77.0001C29.8263 77.0418 29.8195 77.0853 29.8191 77.129C29.8197 77.2014 29.8154 77.2738 29.8063 77.3456C29.8001 77.4123 29.7781 77.4764 29.7423 77.5324C29.7016 77.587 29.6463 77.6285 29.5831 77.6519C29.4877 77.685 29.3872 77.6995 29.2866 77.6949C29.1974 77.6995 29.1093 77.6739 29.0359 77.622C28.9772 77.5742 28.9296 77.5136 28.8968 77.4446C28.8664 77.3778 28.8461 77.3066 28.8364 77.2336C28.8364 77.1626 28.8236 77.1028 28.8236 77.0468V75.6909C28.8247 75.6378 28.829 75.5848 28.8364 75.5322C28.8458 75.4733 28.8663 75.4169 28.8968 75.366C28.9316 75.3111 28.9794 75.2661 29.0359 75.2352C29.1138 75.1966 29.2 75.1786 29.2866 75.1829C29.3867 75.1786 29.4867 75.1938 29.5812 75.2278C29.6433 75.2524 29.6972 75.2945 29.7368 75.3492C29.7727 75.3994 29.7942 75.4589 29.799 75.521C29.8064 75.5886 29.81 75.6565 29.81 75.7245C29.8073 75.7677 29.8131 75.811 29.8273 75.8518C29.8415 75.8925 29.8636 75.9299 29.8923 75.9617C29.9472 76.0189 30.0151 76.0612 30.09 76.085C30.1668 76.1112 30.2469 76.1263 30.3279 76.1298C30.4084 76.1298 30.4761 76.1298 30.531 76.1298C30.6512 76.1358 30.7711 76.1148 30.8824 76.0682C30.9552 76.0365 31.0183 75.9856 31.0654 75.9206C31.1035 75.8656 31.1262 75.8011 31.1313 75.7339C31.1313 75.6722 31.1313 75.6162 31.1313 75.5695C31.1303 75.4709 31.1192 75.3726 31.0983 75.2763C31.0765 75.1669 31.0396 75.0613 30.9885 74.9626C30.9341 74.8513 30.8624 74.7498 30.7762 74.6619C30.677 74.5595 30.562 74.4743 30.4359 74.4097C30.2805 74.3303 30.1156 74.2719 29.9454 74.236C29.7259 74.1882 29.5019 74.1656 29.2774 74.1688C29.1914 74.1688 29.0944 74.1688 28.9718 74.1819C28.845 74.1927 28.7195 74.2152 28.5967 74.2491C28.4602 74.2854 28.3287 74.3387 28.205 74.4079C28.0715 74.4839 27.9539 74.586 27.8592 74.7085C27.7469 74.8521 27.6614 75.0154 27.6066 75.1904C27.5377 75.4183 27.5056 75.6561 27.5114 75.8945V76.918C27.5038 77.1755 27.5552 77.4313 27.6615 77.665C27.7543 77.8619 27.8901 78.0345 28.0586 78.1693C28.2257 78.3032 28.4173 78.4017 28.6223 78.4587C28.8354 78.5202 29.0559 78.551 29.2774 78.5503C29.4151 78.5505 29.5526 78.5418 29.6892 78.5241C29.8323 78.5069 29.9737 78.4776 30.1119 78.4363C30.2489 78.3965 30.3809 78.3407 30.5054 78.2701C30.6265 78.2013 30.7364 78.1138 30.8311 78.0105C30.9275 77.9008 31.0038 77.7743 31.0562 77.637C31.1145 77.4795 31.1431 77.3122 31.1404 77.1439C31.1404 77.1159 31.1404 77.0748 31.1313 77.0244C31.1208 76.9733 31.0968 76.9261 31.0617 76.8881L31.0672 76.8955ZM20.0815 16.8478C19.9811 16.7307 19.8735 16.6203 19.7594 16.5172L17.3144 14.3265C17.1981 14.2228 17.0759 14.1261 16.9484 14.037C16.8062 13.9384 16.6454 13.871 16.4763 13.839C16.2919 13.8058 16.1021 13.8246 15.9273 13.8932C15.6942 13.9944 15.4892 14.1529 15.3307 14.3545C15.083 14.6086 14.9186 14.9349 14.8604 15.2883C14.8403 15.4102 14.8502 15.5352 14.8892 15.6523C14.9282 15.7693 14.995 15.8746 15.0836 15.9588C15.1455 16.012 15.2153 16.0549 15.2904 16.0858L16.2677 16.3641L16.1926 16.5844L14.9958 16.2483C14.8098 16.1923 14.6183 16.1573 14.4248 16.1437C14.2814 16.1334 14.1374 16.1472 13.9984 16.1848C13.8769 16.2184 13.7631 16.2762 13.6635 16.3547C13.5574 16.4405 13.4594 16.5362 13.3707 16.6405C13.194 16.8279 13.0679 17.0589 13.0047 17.3109C12.9623 17.4965 12.9712 17.6905 13.0303 17.8712C13.0847 18.0303 13.1693 18.1769 13.2792 18.3027C13.3797 18.4202 13.4879 18.5307 13.6031 18.6332L16.0426 20.8239C16.1582 20.9286 16.2805 21.0253 16.4086 21.1134C16.5485 21.2126 16.7076 21.2801 16.8752 21.3114C17.0594 21.3441 17.2488 21.3267 17.4243 21.261C17.6591 21.1619 17.8656 21.0039 18.0245 20.8015C18.2721 20.5478 18.4353 20.2212 18.4912 19.8677C18.5104 19.745 18.4998 19.6193 18.4602 19.5017C18.4206 19.3841 18.3533 19.2783 18.2642 19.1935C18.2022 19.1405 18.1324 19.0977 18.0574 19.0665L16.9704 18.7957L17.0235 18.5697L18.1599 18.8629C18.3864 18.9225 18.6171 18.9637 18.8499 18.9862C19.0137 19.0024 19.179 18.9936 19.3403 18.9601C19.4725 18.9328 19.5973 18.8767 19.7063 18.7957C19.8148 18.7129 19.9143 18.6184 20.0028 18.5137C20.1796 18.3271 20.3058 18.0966 20.3688 17.8451C20.4089 17.6591 20.3988 17.4654 20.3395 17.2848C20.2812 17.1239 20.1937 16.9756 20.0815 16.8478ZM36.819 74.3425C36.7764 74.2883 36.7192 74.248 36.6543 74.2267C36.566 74.1996 36.4739 74.187 36.3817 74.1894C36.2855 74.1903 36.191 74.216 36.1072 74.2641C36.0094 74.3187 35.922 74.3908 35.8491 74.477C35.7625 74.5788 35.6892 74.6919 35.6313 74.8131C35.5624 74.9549 35.509 75.1039 35.4721 75.2576H35.4026C35.4026 75.1381 35.4026 75.0148 35.4026 74.8841C35.3986 74.7663 35.377 74.6498 35.3385 74.5386C35.3042 74.4394 35.2441 74.3516 35.1647 74.2846C35.0669 74.2131 34.948 74.1782 34.828 74.1856C34.7092 74.1795 34.5911 74.208 34.4876 74.2678C34.4079 74.3211 34.3445 74.3962 34.3046 74.4844C34.2583 74.5812 34.2292 74.6855 34.2186 74.7926C34.2058 74.9111 34.1997 75.0302 34.2003 75.1493V77.5996C34.1998 77.7169 34.2059 77.8342 34.2186 77.9507C34.2294 78.0566 34.2586 78.1597 34.3046 78.2552C34.3462 78.3423 34.4092 78.417 34.4876 78.4718C34.5911 78.5316 34.7092 78.5601 34.828 78.554C34.9485 78.5599 35.0683 78.5315 35.1738 78.4718C35.2571 78.4184 35.3252 78.3437 35.3715 78.2552C35.4189 78.1601 35.4487 78.0569 35.4593 77.9507C35.4726 77.8342 35.4793 77.717 35.4795 77.5996V76.3483C35.4763 76.2313 35.4924 76.1145 35.527 76.0028C35.5527 75.9155 35.595 75.8343 35.6515 75.7638C35.6989 75.7046 35.7558 75.654 35.8198 75.6143C35.8778 75.5803 35.9391 75.5528 36.0028 75.5322C36.0575 75.5139 36.114 75.502 36.1712 75.4967H36.2938C36.4648 75.5074 36.6332 75.4506 36.7641 75.3379C36.824 75.271 36.8695 75.1921 36.8978 75.1063C36.9262 75.0204 36.9368 74.9295 36.9289 74.8393C36.9301 74.7411 36.9227 74.643 36.9069 74.5461C36.8946 74.4712 36.863 74.4009 36.8154 74.3425H36.819ZM21.6992 16.59C21.9484 16.5408 22.181 16.427 22.3745 16.2595C22.6668 16.061 22.8893 15.7724 23.0095 15.4359C23.0521 15.3195 23.066 15.1943 23.0501 15.0712C23.0341 14.9481 22.9888 14.8309 22.918 14.7299C22.8659 14.6651 22.8041 14.609 22.735 14.5637L21.7285 14.08L21.8255 13.8689L22.8796 14.3919C23.0897 14.4954 23.3075 14.5816 23.5311 14.6496C23.689 14.6982 23.853 14.7228 24.0179 14.7224C24.1494 14.7203 24.279 14.6904 24.3985 14.6346C24.5204 14.5733 24.6363 14.5001 24.7444 14.4161C24.9555 14.2691 25.1253 14.0682 25.2367 13.8334C25.3117 13.6605 25.3389 13.47 25.3154 13.2825C25.2912 13.1091 25.234 12.9422 25.147 12.7913C25.071 12.6565 24.9866 12.5268 24.8945 12.4028L22.9199 9.76576C22.8248 9.64034 22.7228 9.52061 22.6143 9.40717C22.4943 9.28343 22.3511 9.18562 22.1933 9.11956C22.0184 9.05147 21.8288 9.03276 21.6443 9.0654C21.396 9.11672 21.1644 9.23105 20.9709 9.39784C20.6791 9.59739 20.4553 9.88455 20.3304 10.2196C20.2872 10.3351 20.2728 10.4597 20.2885 10.5822C20.3041 10.7048 20.3493 10.8215 20.42 10.9218C20.4717 10.9871 20.5335 11.0432 20.603 11.088L21.5052 11.5568L21.3936 11.766L20.2773 11.1908C20.1063 11.0986 19.9258 11.026 19.7393 10.9741C19.6005 10.9351 19.4565 10.9193 19.3129 10.9274C19.1857 10.9371 19.0615 10.9713 18.9468 11.0283C18.8308 11.0894 18.7205 11.1613 18.6174 11.243C18.4066 11.3902 18.2365 11.5902 18.1233 11.8239C18.049 11.9963 18.0212 12.1859 18.0428 12.373C18.064 12.5448 18.1201 12.7101 18.2075 12.8585C18.2832 12.9942 18.3676 13.1246 18.4601 13.2489L20.4328 15.8841C20.5246 16.0123 20.6249 16.134 20.733 16.2483C20.851 16.3736 20.9938 16.4716 21.152 16.5359C21.3265 16.6031 21.5154 16.6218 21.6992 16.59ZM60.046 74.4863C60.0014 74.3946 59.933 74.3171 59.8483 74.2622C59.7408 74.2057 59.6216 74.1762 59.5006 74.1762C59.3796 74.1762 59.2604 74.2057 59.1529 74.2622C59.0694 74.318 59.0019 74.3953 58.9571 74.4863C58.9096 74.584 58.8799 74.6897 58.8692 74.7982C58.856 74.9173 58.8493 75.037 58.8491 75.1568V77.5735C58.8493 77.6945 58.856 77.8155 58.8692 77.9358C58.8796 78.045 58.9094 78.1513 58.9571 78.2496C59.0014 78.3404 59.0691 78.4172 59.1529 78.4718C59.2611 78.5259 59.3801 78.554 59.5006 78.554C59.6211 78.554 59.7401 78.5259 59.8483 78.4718C59.9328 78.4174 60.0011 78.3406 60.046 78.2496C60.0936 78.1513 60.1234 78.045 60.1338 77.9358C60.147 77.8155 60.1537 77.6945 60.1539 77.5735V75.1605C60.1537 75.0407 60.147 74.921 60.1338 74.8019C60.1231 74.6934 60.0934 74.5878 60.046 74.49V74.4863ZM43.1071 75.0895C43.0633 74.9663 43.0016 74.8504 42.9241 74.7459C42.8354 74.6273 42.7247 74.5277 42.5983 74.4527C42.4383 74.3589 42.2657 74.2897 42.0859 74.2473C41.8458 74.1914 41.6001 74.1651 41.3539 74.1688C41.2679 74.1688 41.1709 74.1688 41.0464 74.1819C40.9196 74.1911 40.7939 74.213 40.6713 74.2473C40.5353 74.2839 40.4043 74.3378 40.2815 74.4079C40.1471 74.4826 40.0288 74.5842 39.9338 74.7067C39.8229 74.8509 39.738 75.014 39.6831 75.1885C39.6136 75.4163 39.5809 75.6541 39.5861 75.8926V76.918C39.5784 77.1793 39.6285 77.4391 39.7325 77.6781C39.8216 77.8757 39.9559 78.0486 40.1241 78.1823C40.2937 78.3134 40.4872 78.4087 40.6932 78.4625C40.9143 78.522 41.1418 78.5527 41.3704 78.554C41.5653 78.5533 41.7599 78.5371 41.9523 78.5054C42.1501 78.4759 42.3437 78.422 42.5288 78.3448C42.6951 78.276 42.8453 78.1723 42.9698 78.0404C43.09 77.9132 43.1558 77.7426 43.1528 77.566C43.1562 77.4892 43.1405 77.4127 43.1071 77.3438C43.0771 77.2897 43.0343 77.2441 42.9826 77.2112C42.9267 77.1768 42.8644 77.1545 42.7996 77.1458C42.7307 77.1346 42.6608 77.1302 42.591 77.1327C42.4732 77.1293 42.3555 77.1432 42.2415 77.1738C42.1701 77.1957 42.1031 77.2305 42.0438 77.2765C41.9992 77.3141 41.9608 77.3589 41.9304 77.4091C41.9017 77.4555 41.8693 77.4992 41.8334 77.5399C41.7922 77.5843 41.7423 77.6193 41.687 77.6426C41.6028 77.6744 41.5131 77.6883 41.4234 77.6837C41.3355 77.6874 41.2482 77.6668 41.1709 77.6239C41.104 77.5857 41.0474 77.5311 41.0062 77.4652C40.9644 77.4016 40.9346 77.3307 40.9183 77.256C40.9012 77.1845 40.8926 77.1111 40.8927 77.0375V76.6173H42.591C42.7117 76.6231 42.8322 76.602 42.9442 76.5556C43.0168 76.5237 43.08 76.4728 43.1272 76.4081C43.1653 76.353 43.188 76.2885 43.1931 76.2213C43.1994 76.1668 43.2024 76.1119 43.2022 76.057V75.7862C43.2022 75.6816 43.2022 75.5677 43.1858 75.4463C43.1727 75.326 43.1463 75.2075 43.1071 75.0933V75.0895ZM40.8854 75.9543V75.648C40.8856 75.5911 40.8899 75.5343 40.8982 75.478C40.9054 75.4116 40.9273 75.3477 40.9623 75.2913C40.9994 75.2308 41.0519 75.1818 41.1142 75.1493C41.2004 75.1078 41.2953 75.0886 41.3905 75.0933C41.5012 75.0876 41.6117 75.1067 41.7144 75.1493C41.7868 75.1838 41.8456 75.2424 41.8809 75.3155C41.9204 75.3997 41.9428 75.4912 41.9468 75.5845C41.9468 75.6909 41.956 75.8142 41.956 75.958L40.8854 75.9543ZM55.0353 75.2315C55.1099 75.2312 55.1845 75.2262 55.2586 75.2165C55.3288 75.2069 55.3965 75.1834 55.458 75.1474C55.5196 75.111 55.5687 75.0563 55.5989 74.9906C55.6388 74.9017 55.6571 74.8043 55.652 74.7067C55.6575 74.606 55.6393 74.5055 55.5989 74.4135C55.5682 74.3476 55.5192 74.2925 55.458 74.2547C55.3965 74.2197 55.3286 74.1981 55.2586 74.1912C55.1835 74.1912 55.1103 74.18 55.0353 74.18H54.6839V73.4106C54.6838 73.2907 54.6771 73.171 54.6638 73.052C54.654 72.9429 54.6248 72.8366 54.5778 72.7382C54.5347 72.6471 54.4675 72.5701 54.3838 72.516C54.2798 72.4537 54.1602 72.4239 54.0397 72.4301C53.9181 72.4237 53.7973 72.4535 53.692 72.516C53.6083 72.5706 53.5406 72.6474 53.4962 72.7382C53.4487 72.8367 53.4184 72.9429 53.4066 73.052C53.3939 73.1711 53.3878 73.2908 53.3883 73.4106V74.18H53.1504C53.0764 74.18 53.0025 74.1837 52.9289 74.1912C52.86 74.1981 52.7933 74.2197 52.7331 74.2547C52.6733 74.2936 52.6252 74.3485 52.594 74.4135C52.5545 74.5058 52.5363 74.6061 52.5409 74.7067C52.5368 74.8042 52.555 74.9014 52.594 74.9906C52.6246 75.0554 52.6729 75.1099 52.7331 75.1474C52.7933 75.1834 52.8598 75.2069 52.9289 75.2165C53.0023 75.2262 53.0763 75.2312 53.1504 75.2315H53.3883V76.6752C53.3883 76.8544 53.3919 77.0244 53.3992 77.185C53.4051 77.3374 53.4222 77.4891 53.4505 77.6389C53.4749 77.7686 53.5168 77.8943 53.5749 78.0124C53.6299 78.1235 53.7072 78.2215 53.8018 78.3C53.9099 78.3873 54.0345 78.4509 54.1679 78.4868C54.3379 78.5334 54.5134 78.5554 54.6894 78.5521C54.8124 78.5525 54.9352 78.5393 55.0554 78.5129C55.1647 78.4902 55.2693 78.4485 55.3647 78.3896C55.4506 78.338 55.5234 78.2663 55.577 78.1805C55.6316 78.0896 55.659 77.9844 55.6557 77.8779C55.6581 77.7834 55.647 77.689 55.6227 77.5978C55.6033 77.5323 55.5666 77.4735 55.5166 77.4278C55.4636 77.384 55.4007 77.3545 55.3336 77.3419C55.2467 77.325 55.1585 77.3169 55.0701 77.3176C54.9931 77.3237 54.9162 77.3047 54.8505 77.2635C54.8008 77.2286 54.761 77.1809 54.7352 77.1253C54.7088 77.0664 54.6933 77.0031 54.6894 76.9385C54.6894 76.8731 54.6894 76.8115 54.6894 76.7517V75.2203L55.0353 75.2315ZM49.5452 74.4844C49.5011 74.3929 49.4334 74.3155 49.3493 74.2603C49.2457 74.1989 49.1269 74.1691 49.0071 74.1744C48.9279 74.1747 48.8491 74.186 48.7729 74.208C48.6943 74.2303 48.6217 74.2705 48.5606 74.3257C48.4939 74.3902 48.4415 74.4685 48.4069 74.5554C48.3632 74.6715 48.3427 74.7953 48.3465 74.9196C48.3193 74.828 48.2825 74.7397 48.2367 74.6563C48.189 74.5679 48.1271 74.4884 48.0537 74.4209C47.9756 74.3476 47.885 74.2894 47.7865 74.2491C47.6697 74.2036 47.5455 74.1814 47.4205 74.1838C47.26 74.1842 47.1007 74.2107 46.9483 74.2622C46.7891 74.3152 46.6439 74.4046 46.5238 74.5237C46.389 74.6581 46.2842 74.8205 46.2163 74.9999C46.1318 75.2347 46.092 75.4838 46.0992 75.7339V77.0039C46.0923 77.2521 46.132 77.4993 46.2163 77.7322C46.2841 77.9122 46.389 78.0752 46.5238 78.2103C46.6437 78.3301 46.789 78.4202 46.9483 78.4737C47.1007 78.5251 47.26 78.5516 47.4205 78.5521C47.5457 78.5548 47.6701 78.5319 47.7865 78.4849C47.9775 78.4044 48.1362 78.2602 48.2367 78.0759C48.2821 77.9935 48.3189 77.9065 48.3465 77.8163C48.3476 77.8881 48.3525 77.9598 48.3611 78.0311C48.3717 78.1164 48.3984 78.1989 48.4398 78.2738C48.4853 78.3571 48.5508 78.4272 48.6301 78.4774C48.7433 78.5361 48.8694 78.5638 48.9962 78.5577C49.1235 78.5659 49.2505 78.5367 49.3622 78.4737C49.4461 78.4186 49.5128 78.3402 49.5543 78.2477C49.5997 78.1479 49.6259 78.0401 49.6312 77.9302C49.6312 77.8125 49.644 77.6911 49.644 77.5697V75.1792C49.6445 75.0544 49.6384 74.9297 49.6257 74.8057C49.6168 74.6965 49.5896 74.5898 49.5452 74.49V74.4844ZM48.319 76.8134C48.308 76.9504 48.2797 77.0853 48.2349 77.2149C48.2035 77.3085 48.1463 77.3909 48.0702 77.4521C47.9892 77.5058 47.8939 77.5325 47.7975 77.5287C47.7239 77.5329 47.6509 77.5133 47.5888 77.4726C47.5383 77.436 47.4989 77.3855 47.4754 77.327C47.4487 77.2616 47.4326 77.1922 47.4278 77.1215C47.4278 77.045 47.4278 76.9684 47.4278 76.8899V75.8291C47.4278 75.7544 47.4278 75.6797 47.4278 75.605C47.4321 75.5361 47.4482 75.4684 47.4754 75.4052C47.5 75.3483 47.5392 75.2993 47.5888 75.2632C47.6511 75.2232 47.7241 75.2043 47.7975 75.2091C47.8481 75.2068 47.8986 75.2152 47.9459 75.2338C47.9931 75.2525 48.0361 75.2809 48.072 75.3174C48.145 75.3937 48.2017 75.4846 48.2385 75.5845C48.2791 75.6922 48.3074 75.8044 48.3227 75.9188C48.3377 76.0227 48.3457 76.1275 48.3465 76.2325C48.3392 76.4622 48.33 76.6565 48.3154 76.819L48.319 76.8134Z" fill="#454545"/>
</svg>
