<svg width="37" height="36" viewBox="0 0 37 36" fill="none" xmlns="http://www.w3.org/2000/svg">
<g clip-path="url(#clip0_749_361)">
<circle cx="18.5" cy="18" r="18" fill="#454545"/>
<path d="M28.5 18.9009C28.3248 20.7963 27.6135 22.6025 26.4493 24.1084C25.285 25.6142 23.716 26.7573 21.9257 27.404C20.1355 28.0506 18.1981 28.174 16.3403 27.7598C14.4825 27.3456 12.7811 26.4108 11.4352 25.0648C10.0892 23.7189 9.15445 22.0175 8.7402 20.1597C8.32595 18.3019 8.44937 16.3645 9.09601 14.5743C9.74266 12.784 10.8858 11.215 12.3916 10.0507C13.8975 8.88648 15.7037 8.17516 17.5991 8C16.4894 9.50126 15.9554 11.3509 16.0943 13.2126C16.2331 15.0743 17.0355 16.8243 18.3556 18.1444C19.6757 19.4645 21.4257 20.2669 23.2874 20.4057C25.1491 20.5446 26.9987 20.0106 28.5 18.9009Z" fill="white"/>
</g>
<defs>
<clipPath id="clip0_749_361">
<rect width="36" height="36" fill="white" transform="translate(0.5)"/>
</clipPath>
</defs>
</svg>
