<svg width="31" height="30" viewBox="0 0 31 30" fill="none" xmlns="http://www.w3.org/2000/svg">
<path d="M27.9998 21.15V24.9C28.0012 25.2481 27.9299 25.5927 27.7904 25.9117C27.651 26.2307 27.4464 26.517 27.1899 26.7523C26.9334 26.9877 26.6305 27.1669 26.3007 27.2784C25.9709 27.3899 25.6215 27.4313 25.2748 27.4C21.4283 26.982 17.7335 25.6677 14.4873 23.5625C11.4671 21.6433 8.90646 19.0827 6.98729 16.0625C4.87477 12.8015 3.5601 9.08874 3.14979 5.225C3.11856 4.87933 3.15964 4.53095 3.27042 4.20203C3.3812 3.87311 3.55926 3.57086 3.79325 3.31453C4.02725 3.05819 4.31205 2.85339 4.62953 2.71315C4.94702 2.57292 5.29022 2.50033 5.63729 2.5H9.38729C9.99393 2.49403 10.582 2.70885 11.042 3.10441C11.502 3.49998 11.8024 4.04931 11.8873 4.65C12.0456 5.85008 12.3391 7.02841 12.7623 8.1625C12.9305 8.6099 12.9669 9.09614 12.8672 9.5636C12.7675 10.0311 12.5359 10.4601 12.1998 10.8L10.6123 12.3875C12.3917 15.5169 14.9829 18.1081 18.1123 19.8875L19.6998 18.3C20.0397 17.9639 20.4687 17.7323 20.9362 17.6326C21.4037 17.5329 21.8899 17.5693 22.3373 17.7375C23.4714 18.1607 24.6497 18.4542 25.8498 18.6125C26.457 18.6982 27.0115 19.004 27.408 19.4719C27.8044 19.9397 28.015 20.537 27.9998 21.15Z" fill="#454545"/>
</svg>
