<svg id="Calque_1" data-name="Calque 1" xmlns="http://www.w3.org/2000/svg" viewBox="0 0 309.13 150.71"><path d="M205.74,492.5a4.1,4.1,0,0,1-4.32,3.36c-2.86,0-4.53-2.16-4.53-5.19s1.83-5.14,4.64-5.14a4,4,0,0,1,4.15,3.35h-1.36a2.75,2.75,0,0,0-2.86-2.17c-1.76,0-3.14,1.37-3.14,4s1.32,4,3.18,4a2.74,2.74,0,0,0,2.88-2.17Z" transform="translate(-143.43 -345.14)"/><path d="M214,491.47h-2.51v4.2h-1.41v-10h3.17c2.42,0,4.15.49,4.15,2.88a2.45,2.45,0,0,1-2,2.67l2.31,4.43h-1.57Zm-2.51-4.58v3.41h1.87c1.47,0,2.6-.15,2.6-1.69s-1.13-1.72-2.6-1.72Z" transform="translate(-143.43 -345.14)"/><path d="M222.2,485.7H229v1.21h-5.36v3h5v1.21h-5v3.32H229v1.21H222.2Z" transform="translate(-143.43 -345.14)"/><path d="M235.91,485.7h1.62l3.75,10h-1.51l-.78-2.16h-4.58l-.78,2.16H232.2Zm-1.08,6.62h3.72l-1.87-5.2Z" transform="translate(-143.43 -345.14)"/><path d="M246.29,486.91H243V485.7h7.9v1.21h-3.25v8.77h-1.4Z" transform="translate(-143.43 -345.14)"/><path d="M256.28,495.68h-1.41v-10h1.41Z" transform="translate(-143.43 -345.14)"/><path d="M261.9,485.7l2.77,8.53,2.71-8.53h1.47l-3.38,10h-1.68l-3.43-10Z" transform="translate(-143.43 -345.14)"/><path d="M272.92,485.7h6.77v1.21h-5.37v3h5.05v1.21h-5.05v3.32h5.37v1.21h-6.77Z" transform="translate(-143.43 -345.14)"/><path d="M298.08,494.08l1.85-8.38h1.47l-2.49,10H297.2l-1.93-8.2-1.88,8.2h-1.71l-2.53-10h1.54l1.93,8.38,1.84-8.38h1.66Z" transform="translate(-143.43 -345.14)"/><path d="M305.55,485.7h6.77v1.21H307v3H312v1.21H307v3.32h5.37v1.21h-6.77Z" transform="translate(-143.43 -345.14)"/><path d="M316.73,485.7h3.59c1.86,0,3.51.49,3.51,2.47a2.47,2.47,0,0,1-1.1,2.2,2.34,2.34,0,0,1,1.51,2.36c0,2.12-1.59,2.95-3.57,2.95h-3.94Zm1.41,4.27h2.4c1.16,0,1.88-.44,1.88-1.61s-.76-1.47-1.88-1.47h-2.4Zm0,4.52h2.54c1.43,0,2.12-.6,2.12-1.74s-.67-1.67-2.2-1.67h-2.46Z" transform="translate(-143.43 -345.14)"/><path d="M337.26,485.7h1.62l3.76,10h-1.52l-.78-2.16h-4.58l-.77,2.16h-1.43Zm-1.08,6.62h3.72l-1.87-5.2Z" transform="translate(-143.43 -345.14)"/><path d="M354.49,488.61h-1.36a2.65,2.65,0,0,0-2.83-1.9c-1.76,0-3.14,1.37-3.14,4s1.31,4,3.14,4c1.32,0,2.94-.55,2.94-2.61v-.26H350.6v-1.21h4v5.09h-1.1l-.07-1.25a3.47,3.47,0,0,1-3.15,1.43c-2.86,0-4.51-2.16-4.51-5.19s1.83-5.14,4.64-5.14A4,4,0,0,1,354.49,488.61Z" transform="translate(-143.43 -345.14)"/><path d="M359.56,485.7h6.76v1.21H361v3H366v1.21H361v3.32h5.36v1.21h-6.76Z" transform="translate(-143.43 -345.14)"/><path d="M376.71,495.68l-4.57-8.52v8.52h-1.4v-10h2.06l4.56,8.49V485.7h1.4v10Z" transform="translate(-143.43 -345.14)"/><path d="M392.24,492.5a4.1,4.1,0,0,1-4.32,3.36c-2.86,0-4.53-2.16-4.53-5.19s1.83-5.14,4.64-5.14a4.06,4.06,0,0,1,4.16,3.35h-1.37a2.75,2.75,0,0,0-2.86-2.17c-1.76,0-3.13,1.37-3.13,4s1.32,4,3.17,4a2.74,2.74,0,0,0,2.88-2.17Z" transform="translate(-143.43 -345.14)"/><path d="M396.42,485.7l2.72,4.87,2.78-4.87h1.54l-3.66,6.11v3.87h-1.4v-3.89l-3.52-6.09Z" transform="translate(-143.43 -345.14)"/><path d="M162.06,346.35h16.21l18.62,51.33H180.82l-2.62-8.57H161.84l-2.62,8.57H143.43Zm3.25,31.72h9.49l-4.67-15.44Z" transform="translate(-143.43 -345.14)"/><path d="M224,345.14c13.17,0,23.15,7.58,25.21,20.54H234.63a9.73,9.73,0,0,0-10.12-8.15c-6.45,0-11,4.68-11,14.31s4.53,14.37,11,14.37A10.14,10.14,0,0,0,234.84,378h14.52c-2.05,13-12.11,20.6-25.35,20.6-16,0-25.91-10.05-25.91-26.76S208,345.14,224,345.14Z" transform="translate(-143.43 -345.14)"/><path d="M279,345.14c13.17,0,23.16,7.58,25.21,20.54H289.57a9.73,9.73,0,0,0-10.12-8.15c-6.44,0-11,4.68-11,14.31s4.54,14.37,11,14.37A10.15,10.15,0,0,0,289.79,378H304.3c-2.05,13-12.11,20.6-25.35,20.6-16,0-25.91-10.05-25.91-26.76S263,345.14,279,345.14Z" transform="translate(-143.43 -345.14)"/><path d="M310.46,346.35H351.1V359H325.26v6.52h24.5v12.74h-24.5v6.66h26.13v12.74H310.46Z" transform="translate(-143.43 -345.14)"/><path d="M379.35,345.14a43.68,43.68,0,0,1,22.52,5.67l-6.23,12.25a35.79,35.79,0,0,0-16.78-4.75c-4,0-6.23.92-6.23,2.91,0,1.48,1.41,2.55,4.25,3.18l7.57,1.56c9.63,2.05,17.77,5.1,17.77,15.22,0,11.62-10,17.42-22.44,17.42-11,0-18.91-3.11-24.64-7.36l7.29-12a32,32,0,0,0,17.84,6c4.18,0,6.73-.71,6.73-2.9s-2.83-3.26-7.65-4.32l-5.8-1.21c-8.07-1.69-16.08-5.59-16.08-15.36C357.47,350.38,368.38,345.14,379.35,345.14Z" transform="translate(-143.43 -345.14)"/><path d="M429.69,345.14a43.68,43.68,0,0,1,22.52,5.67L446,363.06a35.79,35.79,0,0,0-16.78-4.75c-4,0-6.23.92-6.23,2.91,0,1.48,1.41,2.55,4.25,3.18l7.57,1.56c9.63,2.05,17.78,5.1,17.78,15.22,0,11.62-10,17.42-22.45,17.42-11,0-18.91-3.11-24.64-7.36l7.29-12a32,32,0,0,0,17.85,6c4.17,0,6.72-.71,6.72-2.9s-2.83-3.26-7.65-4.32l-5.8-1.21c-8.07-1.69-16.07-5.59-16.07-15.36C407.82,350.38,418.72,345.14,429.69,345.14Z" transform="translate(-143.43 -345.14)"/><path d="M222,415.47c13.17,0,23.16,7.58,25.21,20.53H232.61a9.73,9.73,0,0,0-10.12-8.14c-6.45,0-11,4.68-11,14.3s4.53,14.38,11,14.38a10.15,10.15,0,0,0,10.34-8.22h14.51c-2.05,13-12.11,20.61-25.35,20.61-16,0-25.91-10.06-25.91-26.77S206,415.47,222,415.47Z" transform="translate(-143.43 -345.14)"/><path d="M274.39,450H268.3V468H253.5V416.67h21.24c13.45,0,23.51,3.26,23.51,16.5,0,7.37-3.75,11.69-9.14,14.16L301.29,468H284.65Zm-6.09-21.31v10.13h8.14c4.32,0,6.37-2.13,6.37-5s-2.05-5.1-6.37-5.1Z" transform="translate(-143.43 -345.14)"/><path d="M176,71.53h28a0,0,0,0,1,0,0v0a12.67,12.67,0,0,1-12.67,12.67h-28a0,0,0,0,1,0,0v0A12.67,12.67,0,0,1,176,71.53Z"/><path d="M176,90.86h28a0,0,0,0,1,0,0v0a12.67,12.67,0,0,1-12.67,12.67h-28a0,0,0,0,1,0,0v0A12.67,12.67,0,0,1,176,90.86Z"/><path d="M176,110.19h28a0,0,0,0,1,0,0v0a12.67,12.67,0,0,1-12.67,12.67h-28a0,0,0,0,1,0,0v0A12.67,12.67,0,0,1,176,110.19Z"/><path d="M368.63,416.67h16.21L403.46,468H387.39l-2.62-8.57H368.42L365.8,468H350Zm3.25,31.73h9.49L376.7,433Z" transform="translate(-143.43 -345.14)"/><rect y="71.22" width="43.22" height="9.14"/><rect x="265.91" y="71.22" width="43.22" height="9.14"/></svg>